SplineFontDB: 3.0
FontName: CoelacanthHeavy
FullName: CoelacanthHeavy
FamilyName: Coelacanth
Weight: Heavy

StartChar: a
Encoding: 97 97 0
Width: 413
VWidth: 1159
Flags: HMW
LayerCount: 2
Fore
SplineSet
215.002 179.617 m 1
 209.20682605 179.47 204.241744323 179.725386719 198.443 179.47 c 1
 182.970716798 177.881673828 149.881892126 167.440071348 145.236 160.441 c 0
 135.033215821 144.583427353 139.704 129.077226562 139.704 112.646 c 3
 139.704 97.4834726563 163.603657227 72.998 182.822 72.998 c 3
 196.462758732 72.998 206.886853976 79.6742922176 209.561 80.029 c 1
 208.561 88.3583759766 208.561 101.535680665 208.561 111.265 c 3
 208.561 134.346218361 214.920496094 159.1114 215.002 179.617 c 1
231.617 408.236 m 3
 247.387639568 408.236 322.186806795 361.778984154 332.058 349.824 c 0
 340.308050781 339.764898437 341.058 316.462731446 341.058 303.118 c 3
 341.058 231.234491599 336.058 162.617830009 336.058 92.913 c 3
 336.058 83.0276582031 338.631215421 70.3824286664 344.352 66.147 c 0
 354.891570312 58.4934609375 367.982829102 58.058 373.234 58.058 c 3
 379.410568412 58.058 391.764589535 59.3398571429 401.029 61.294 c 1
 407.147 18.383 l 1
 352.264101563 3.60646666667 298.520712891 -7.559 262.59 -7.559 c 3
 246.57310384 -7.559 230.348468684 7.24426188402 210.414 55.882 c 1
 168.616442871 23.5849042969 133.816007812 -7.853 88.236 -7.853 c 3
 52.311921875 -7.853 22.648 26.0994257813 22.648 67.559 c 3
 22.648 99.9738814625 30.5642077682 130.043839922 37.677 147.205 c 0
 41.5947021484 156.689807617 56.337942849 169.503228501 66.853 173.94 c 0
 155.032658936 212.169236328 171.552991237 196.06991504 219.443 222.94 c 1
 219.296 218.383 222.59 267.53 222.59 267.53 c 3
 222.59 307.294 201.419546216 323.752395663 193.238 330.441 c 0
 185.010025391 336.882184571 175.401309571 344.766 175.029 344.766 c 1
 179.439 344.766 167.704 339.9275 167.704 342.5735 c 3
 167.704 332.144230469 174.265789684 317.094329852 174.704 311.559 c 1
 59.559 262.06 l 1
 52.8057519531 267.035154297 42.53 302.813125 42.53 316.3975 c 3
 42.53 327.460552734 50.8060951782 336.462853594 72.3975 348.795 c 0
 156.166531083 396.905442383 214.310432652 408.236 231.617 408.236 c 3
EndSplineSet
Substitution2: "case-1" A
Substitution2: "pcap-1" a.pcap
Substitution2: "smcp-1" a.smcp
EndChar

StartChar: b
Encoding: 98 98 1
Width: 507
VWidth: 1159
Flags: HMW
LayerCount: 2
Fore
SplineSet
194.35 341.176 m 1
 195.644 266.234 193.497 222.263 193.497 147.321 c 3
 193.497 132.145 200.938 112.528 210.232 99.646 c 0
 229.762 79.528 252.263 66.969 276.058 66.969 c 3
 327.824 66.969 355.561 99.441 355.561 145.59 c 3
 355.561 236.737 319.913 340.325 216.619 340.325 c 3
 207.029 340.325 196.321 340.853 194.35 341.176 c 1
-1.588 686.441 m 1
 72.116 696.882 117.793 724.882 209.085 759 c 1
 228.938 736.118 l 1
 223.526 717 212.085 685.853 208.791 667 c 0
 204.938 649.468 194.35 438.12 194.35 382.911 c 1
 230.791 395.764 262.704 405.118 308.94 405.118 c 3
 405.911 405.118 476.176 319.588 476.176 237.911 c 3
 476.176 104.323 330.354 -2.118 199.677 -2.118 c 3
 164.058 -2.118 153.617 5.824 141.263 5.824 c 3
 99.911 5.824 79.176 -5.294 71.029 -10 c 1
 57.617 3.147 l 1
 57.323 2.265 62.47 12.824 63.029 19.53 c 0
 69.029 49 76.176 60.971 77.176 145 c 0
 79.176 288 81.176 367 81.176 510 c 3
 81.176 586.058 74.294 595.53 70.294 605.207 c 0
 56.118 640.236 44.53 649.118 7.031 649.118 c 3
 3.913 649.118 -3.646 649.412 -4.617 649.412 c 1
 -1.588 686.441 l 1
EndSplineSet
Substitution2: "case-1" B
Substitution2: "pcap-1" b.pcap
Substitution2: "smcp-1" b.smcp
EndChar

StartChar: c
Encoding: 99 99 2
Width: 421
VWidth: 1159
Flags: HMW
LayerCount: 2
Fore
SplineSet
290.973 267.12 m 1
 255.081905653 284.170179426 205.967622611 315.149 173.855 315.149 c 3
 158.84670945 315.149 151.88 315.838563604 151.88 274.056 c 3
 151.88 185.766022088 187.825485044 72.116 315.292 72.116 c 3
 336.869845669 72.116 355.128106561 78.3665 367.853 84.617 c 1
 386.147 50.588 l 1
 350.36291164 21.9580590236 288.266391223 -9.853 225.118 -9.853 c 3
 177.25316779 -9.853 31.706 -9.68267928822 31.706 177.412 c 3
 31.706 305.556338228 167.777419419 413 271.588 413 c 3
 319.588 413 368.588150427 391.399029473 399.588 366.559 c 1
 397.441 308.59 409.058 335.824 290.973 267.12 c 1
EndSplineSet
Substitution2: "case-1" C
Substitution2: "pcap-1" c.pcap
Substitution2: "smcp-1" c.smcp
EndChar

StartChar: d
Encoding: 100 100 3
Width: 511
VWidth: 1159
Flags: HMW
LayerCount: 2
Fore
SplineSet
305.944 16.296 m 1
 272.000017705 12.5139983944 237.437413864 1.882 194.706 1.882 c 3
 94.7060782392 1.882 31.706 82.616018114 31.706 172 c 3
 31.706 250.037174192 89.3014639754 321.323063533 138.441 354.412 c 0
 182.30437309 384.069922897 236.009187613 398.118 264.706 398.118 c 3
 277.459473302 398.118 306.536928396 394.45916 313.679 394.029 c 1
 313.679 498.1988144 308.792511781 535.843179459 293.327 573.238 c 0
 288.381602682 585.664632227 274.132578947 620.443 255.563 620.443 c 3
 246.709860672 620.443 238.457146307 621.325 236.356 622.619 c 1
 224.915 664.942 l 1
 309.292198019 679.970487805 378.774188119 699.633756098 456.911 751.706 c 1
 475.764 725.383 l 1
 463.7996 712.000086 452.449341789 686.093887646 450.294 675.677 c 0
 419.830922625 523.870685166 424.706 350.518483183 424.706 185 c 3
 424.706 150.35385724 431.441 85.735 440.735 79.027 c 1
 442.735 74.9644325764 451.860802 70.174 457.029 70.174 c 1
 472.651969943 67.8655 490.930913677 64.969 500.853 63.234 c 1
 501.824 25.911 l 1
 425.509467607 8.66302784578 336.062127592 -15.942 321.356 -15.942 c 3
 318.168859093 -15.942 316.367848846 -12.2161470985 312.532 -11.559 c 0
 307.200267856 -11.0411471528 305.944 14.6573212699 305.944 16.296 c 1
206.207 336.06 m 3
 193.886410066 336.06 174.218727968 332.086985951 165.323 323.824 c 0
 148.725571429 308.864866667 143.88 286.951175978 143.88 271.88 c 3
 143.88 176.77518047 205.717075622 79.557 321.379 79.557 c 3
 315.352 79.557 311.207 89.822 307.532 86.882 c 1
 309.679 141.353006791 312.679 198.032309109 311.532 253.238 c 1
 311.532 317.094468354 260.298 325.089000001 215.946 334.53 c 0
 212.673528009 335.168243998 207.955767819 336.06 206.207 336.06 c 3
EndSplineSet
Substitution2: "case-1" D
Substitution2: "pcap-1" d.pcap
Substitution2: "smcp-1" d.smcp
EndChar

StartChar: e
Encoding: 101 101 4
Width: 409
VWidth: 1159
Flags: HMW
LayerCount: 2
Fore
SplineSet
217.588 409.265 m 3
 301.236321059 409.265 341.642311299 356.015644609 357.735 334.764 c 0
 381.713036104 299.7101049 387.535188131 292.0390625 395.617 290.824 c 1
 395.617 266.824 l 1
 321.769914574 257.083500684 231.415520592 239.732217465 160.174 221.8675 c 1
 160.174 222.20638755 160.321 222.60111245 160.321 222.94 c 3
 160.321 114.6606625 236.561484912 70.969 290.468 70.969 c 3
 323.41290727 70.969 344.453015352 84.5576790001 362.029 98.764 c 1
 389.911 62.588 l 1
 346.502844691 31.3590605 284.489996754 -8.853 213.176 -8.853 c 3
 80.2252018869 -8.853 27.971 90.728690197 27.971 181.147 c 3
 27.971 326.32884895 155.569388897 409.265 217.588 409.265 c 3
180.648 347.354 m 3
 178.865042894 347.354 163.727066667 330.186920967 159.88 246.5735 c 1
 250.59 261.354 l 0
 257.443 262.9275 l 1
 246.447245829 299.905018909 214.960332114 347.354 180.648 347.354 c 3
EndSplineSet
Substitution2: "case-1" E
Substitution2: "pcap-1" e.pcap
Substitution2: "smcp-1" e.smcp
EndChar

StartChar: f
Encoding: 102 102 5
Width: 357
VWidth: 1159
Flags: HMW
LayerCount: 2
Fore
SplineSet
403.733 754.853 m 3
 418.077775701 754.853 474.263 749.588 501.557 725.294 c 1
 499.41 683.383 475.176 670.958660156 395.207 616.561 c 1
 377.355932617 628.989537109 331.876592593 664.296 296.383 664.296 c 3
 151.850238925 664.296 246.444722307 560.854423044 243.762 503.735 c 0
 242.335210841 477.823116449 237.321 434.29590099 235.174 392.412 c 1
 277.299165562 396.706 315.373834438 396.706 357.499 401 c 1
 357.499 329.766 l 1
 314.916473684 334.06 275.609526316 336.207 233.027 340.501 c 1
 230.88 315.636820896 230.88 293.247949937 230.88 284.971 c 3
 230.88 212.809284519 236.385626611 145.656708877 243.762 74.646 c 0
 245.875898915 53.780158982 258.838854594 42.9049185123 280.526 41.029 c 0
 306.058694173 38.882 330.034383563 38.882 355.82 39.029 c 1
 353.967 -7.147 l 1
 293.90175 -2.147 208.09425 -0.147 148.029 -0.147 c 3
 108.290320754 -0.147 47.3576792452 -3.147 7.619 -7.147 c 1
 6.619 39.176 l 1
 15.5161666667 39.029 24.9348582313 41.3522722902 35.737 42.176 c 0
 79.1183694584 46.0313083333 84.9335209294 63.2880488225 91.089 101.646 c 0
 99.3074849684 146.087250088 105.971 203.046 105.971 257.971 c 3
 105.971 275.384981681 103.824 308.015787234 103.824 340.501 c 1
 74.9490000002 338.354 47.229 331.913 18.354 329.766 c 1
 18.354 401 l 1
 47.229 398.853 74.9490000002 394.559 103.824 392.412 c 1
 103.824 435.60571875 103.824 485.444625 103.824 498.735 c 3
 103.824 604.38663981 157.128140045 654.447785041 246.94 705.147 c 0
 304.867268791 737.659686528 335.208651852 754.853 403.733 754.853 c 3
EndSplineSet
Substitution2: "salt-1" f.alt
Substitution2: "case-1" F
Substitution2: "pcap-1" f.pcap
Substitution2: "smcp-1" f.smcp
EndChar

StartChar: g
Encoding: 103 103 6
Width: 475
VWidth: 1159
Flags: HMW
LayerCount: 2
Fore
SplineSet
194.88 20.793 m 3
 194.88 8.158971875 202.778281136 3.41 209.824 3.41 c 3
 240.824 3.41 270.01358325 16.292 298.824 16.292 c 3
 393.089370569 16.292 440.824 -39.7104491345 440.824 -86.797 c 3
 440.824 -242.757172606 291.520256479 -328.118 163.824 -328.118 c 3
 73.6216529234 -328.118 10.824 -274.117479351 10.824 -235.205 c 3
 10.824 -141.393080882 88.9164946886 -84.3934338235 102.089 -73.706 c 1
 82.953525 -57.9461502647 59.4923874887 -25.5595579644 53.971 3.706 c 1
 84.971 30.2352 151.515953422 48.3360740741 170.677 59.706 c 1
 84.1099574469 73.3666886227 35.824 135.706422463 35.824 224.706 c 3
 35.824 349.901262231 193.295194205 405.824 223.824 405.824 c 3
 264.895232158 405.824 299.178145852 392.039210527 337.559 365.53 c 1
 368.466135882 369.236 396.171642558 377.824 431.47 377.824 c 3
 444.7495 377.824 461.5702 374.824 466.882 370.824 c 1
 437.412 270.532 l 1
 414.301219902 284.12 377.63437705 304.098470588 369.236 306.325 c 0
 369.971 306.325 367.118 306.325 368 306.472 c 1
 377.902479191 283.254858664 385.824 234.191832099 385.824 228.53 c 3
 385.824 131.435561675 282.051571015 90.3877946718 225.383 57.412 c 0
 195.67322558 39.5663225822 194.88 30.3397586686 194.88 20.793 c 3
161.561 345.325 m 3
 158.656760068 345.325 152.145 321.556103461 152.145 291.263 c 3
 152.145 181.073444208 218.174 108.824 244.441 99.882 c 1
 252.078421699 110.894976428 254.474 136.489553065 254.474 179.149 c 3
 254.474 263.94194475 221.82745856 345.325 161.561 345.325 c 3
82.058 -177.236 m 3
 82.058 -209.238020105 180.403878021 -213.944 238.969 -213.944 c 3
 261.628169513 -213.944 369.59 -208.55965783 369.59 -136.178 c 3
 369.59 -118.594904132 344.265764092 -106.47 300.971 -106.47 c 3
 274.482746 -106.47 247.047254 -117.205 220.559 -117.205 c 3
 189.633013108 -117.205 157.562186584 -113.6757049 139.236 -106.617 c 1
 87.3407777328 -126.793951057 82.058 -138.255889316 82.058 -177.236 c 3
EndSplineSet
Substitution2: "case-1" G
Substitution2: "pcap-1" g.pcap
Substitution2: "smcp-1" g.smcp
EndChar

StartChar: h
Encoding: 104 104 7
Width: 531
VWidth: 1159
Flags: HMW
LayerCount: 2
Fore
SplineSet
195.41 327.706 m 1
 193.9835 288.826287879 190.263 234.896532959 190.263 189 c 3
 190.263 141.039496175 197.266142446 97.4220911979 202.145 79.234 c 0
 209.049778615 52.4721525853 223.133313192 41.9939207472 230.704 38.882 c 0
 234.68227677 37.1719582291 249.407263158 37.176 256.087 37.323 c 1
 253.234 -8.147 l 1
 205.368 -2.23490513722 173.285606307 2.853 117 2.853 c 3
 85.9246875 2.853 48.6343125 -2.147 17.559 -6.147 c 1
 15.706 31.441 l 1
 18.1444642857 32.0646 16.8844240696 31.0281144717 21.913 33 c 0
 44.3347245321 45.6093624499 52.4237884693 60.3248460605 62.207 106.969 c 0
 71.8190557943 150.91882868 78.236 219.16659091 78.236 274 c 3
 78.236 476.250629627 73.1127804804 556.377892683 71.795 574.385 c 0
 69.4752889587 609.921681597 57.1483333334 641.089 29.443 641.089 c 3
 23.9345714286 641.089 21.6283142857 641.971 14.971 640.971 c 1
 6.971 683.294 l 1
 78.5957999999 694.639671233 161.2398 725.813561644 220.468 758.588 c 1
 239.468 738 l 1
 234.451142857 726.470461539 229.204265848 704.009307125 227.762 695.176 c 0
 205.017555556 554.811459626 196.537444444 475.060071857 195.41 361 c 1
 252.72652071 399.45798 332.753360948 423.029 378.174 423.029 c 3
 431.07131579 423.029 471.37709301 387.877177964 471.528 301 c 0
 471.533268156 280.675565719 472.381 234.695238095 472.381 183 c 3
 472.381 135.122651163 471.381 88.9252093023 471.381 74.646 c 0
 471.381 51.8255454545 488.140767083 43.0791283763 495.793 41.176 c 0
 499.501215774 39.8852464305 518.328217391 38.176 524.588 38.47 c 1
 523.029 -8.147 l 1
 478.176084113 0.853 448.274140187 2.853 399.971 2.853 c 3
 363.089 2.853 327.4364 -2.147 295.472 -8.147 c 1
 297.06 35.176 l 1
 308.484814814 34.6526 314.232998021 34.6760770182 319.472 36.735 c 0
 338.007020357 43.7916623512 347.63109202 68.1933251309 354.207 119.586 c 0
 355.040510292 126.06086667 356.06 136.89200638 356.06 141.853 c 3
 356.06 185.98465625 353.385851154 245.473735731 348.766 270.236 c 0
 340.407163317 315.011416081 332.917069768 345.354 285.706 345.354 c 3
 222.314222221 345.354 209.314406824 332.75825 195.41 327.706 c 1
EndSplineSet
Substitution2: "case-1" H
Substitution2: "pcap-1" h.pcap
Substitution2: "smcp-1" h.smcp
EndChar

StartChar: k
Encoding: 107 107 10
Width: 486
VWidth: 1159
Flags: HMW
LayerCount: 2
Fore
SplineSet
187.851 262.234 m 1
 200.334862069 273.054054945 221.635250363 287.206244099 230.443 301.619 c 0
 235.272383177 308.840877831 239.267 325.867148148 239.267 334.354 c 3
 239.267 359.717171827 235.582192713 360.041726007 209.855 360.236 c 1
 211.855 401 l 1
 247.682704545 399 295.912306818 399 333.118 399 c 3
 370.674138889 399 419.610925926 396.706 456.029 403 c 1
 458.029 361.824 l 1
 412.52502985 352.485884616 318.531416597 301.59612939 275.855 275.414 c 2
 236.793 251.559 l 1
 298.659878505 192.395985222 362.535524682 134.973059113 423.265 74.94 c 1
 432.383 63.381 496.604724138 33.5100241229 478.971 38.323 c 1
 477.118 -7.147 l 1
 435.650297872 -1.147 413.69680851 2.853 362.472 2.853 c 3
 328.731782609 2.853 292.742217391 -4.147 259.002 -6.147 c 1
 256.002 37.176 l 1
 276.188042553 40.74225 276.188042553 45.1437 282.356 46.029 c 1
 249.115190158 88.7984835165 192.376850829 153.674845401 154.118 190.178 c 1
 192.145 216.294 l 1
 192.145 151.21885 192.176435728 86.2311285446 205.027 63.176 c 0
 209.321 56.205 224.767690153 44.1744270559 226.027 42.176 c 0
 230.941808558 36.3695598541 236.581117647 36.029 243.969 36.176 c 1
 241.263 -10.441 l 1
 199.052894737 -3.18972727273 175.464894737 2.853 123.323 2.853 c 3
 87.2295625 2.853 43.9174375 -4.147 7.824 -6.147 c 1
 5.824 37.176 l 1
 13.66975 36.5702 19.1690301242 35.1450542847 28.648 39.882 c 0
 54.9284051712 52.4821286713 59.4882523946 68.5296502963 68.677 119.586 c 0
 76.2258888889 160.139171717 82.265 223.319051126 82.265 274 c 3
 82.265 505.19465909 76.2977285881 558.366466191 73.677 587.002 c 0
 71.5777916667 610.3428 58.9825416667 630.766 23.296 630.766 c 3
 21.8280487805 630.766 11.1235853658 632.542912088 13.265 632.942 c 1
 5.265 676.412 l 1
 78.5664285714 688.103342466 161.735357143 720.157123287 222.35 754 c 1
 243.497 733.412 l 1
 238.480142857 722.500076923 234.266019434 701.29252584 231.791 692.882 c 0
 210.867190476 620.947478842 187.851 381.165741648 187.851 262.234 c 1
EndSplineSet
Substitution2: "case-1" K
Substitution2: "pcap-1" k.pcap
Substitution2: "smcp-1" k.smcp
EndChar

StartChar: l
Encoding: 108 108 11
Width: 248
VWidth: 1159
Flags: HMW
LayerCount: 2
Fore
SplineSet
185.234 300 m 3
 185.234 221.441 197.36986552 90.3777056327 207.292 64.323 c 0
 211.521855347 53.3411066939 225.700711498 40.0694295008 225.528 39.882 c 0
 230.058 38.176 241.176 38.323 246 38.47 c 1
 239.853 -7 l 1
 197.990088 -1 144.533564571 4 105.677 4 c 3
 68.5233679092 4 35.4336415094 -1 7.706 -5 c 1
 5.706 38.323 l 1
 12.955 37.2584 25.7668554015 37.6747353365 30.089 44.47 c 0
 35.8595957447 54.5118095238 47.9502795355 75.0158441725 53.178 106.969 c 0
 60.328625 150.835727273 64.619 219.16659091 64.619 274 c 3
 64.619 503.09221875 62.2618720327 571.705807681 60.472 592.737 c 0
 59.7596641849 600.451967096 48.1193333333 636.501 18.12 636.501 c 3
 11.7719015721 636.501 7.95888 637.9565 3.648 638.677 c 1
 2.53 682.147 l 1
 73.0004000001 692.974164383 154.3124 720.534219178 212.586 754 c 1
 231.586 736.853 l 1
 231.585692308 729.509696429 222.436523586 694.931812613 219.733 686 c 0
 197.957133333 611 185.234 424 185.234 300 c 3
EndSplineSet
Substitution2: "case-1" L
Substitution2: "pcap-1" l.pcap
Substitution2: "smcp-1" l.smcp
EndChar

StartChar: m
Encoding: 109 109 12
Width: 791
VWidth: 1159
Flags: HMW
LayerCount: 2
Fore
SplineSet
713.176 150.677 m 3
 713.176 115.026009346 715.819353095 81.7942114956 719.617 71.205 c 0
 725.352 54.0888770053 748.743311232 44.9621980368 757.381 40.029 c 0
 760.878958338 37.8331160313 774.470959184 37.029 778.853 35.029 c 1
 772.706 -10.441 l 1
 737.847944444 -1.441 713.715444444 0.559 676.176 0.559 c 3
 633.363765957 0.559 579.13493617 -4.441 542.031 -10.441 c 1
 538.031 32.882 l 1
 544.69390625 33.9644 553.996318935 34.9344490807 557.414 35.588 c 0
 562.576211069 36.5747522511 577.594073811 44.7620455922 579.532 50.766 c 0
 584.790375069 71.3365230158 596.855 144.866035819 596.855 199.203 c 3
 596.855 230.92874292 597.478464166 263.94375644 587.414 288.646 c 0
 577.836946166 309.780445697 570.584782609 326.619 532.118 326.619 c 3
 534.995200629 326.619 490.218085714 316.166461541 471.851 301.913 c 1
 472.851 299.102043478 472.851 296.226687155 472.851 292.677 c 3
 472.851 265.877735866 466.116 213.819857143 466.116 172.677 c 3
 466.116 129.413744187 469.38902156 84.2578941585 472.557 71.205 c 0
 475.998 56.5178181818 499.679639259 37.1915484997 506.88 35.441 c 0
 509.591658571 34.7694589844 515.494285714 33.588 518.94 33.882 c 1
 513.94 -10.441 l 1
 469.28951579 -1.441 453.261136842 0.559 405.176 0.559 c 3
 369.558040816 0.559 319.692897959 -4.441 288.824 -10.441 c 1
 285.971 34.029 l 1
 293.809 33.735 295.718768525 35.5299357914 304.619 39.029 c 0
 314.943726744 43.1368888889 337.839243423 62.5842162966 340.648 76 c 0
 346.37575 105.42161194 349.795 146.386238806 349.795 199.203 c 3
 349.795 231.40515625 347.198463017 261.870524642 338.207 292.882 c 0
 332.271567246 311.32502317 310.590063025 330.884 296.882 330.884 c 3
 277.7864 330.884 249.7976 312.90221057 231.938 297.207 c 1
 225.222555556 226.341890626 217.203 120.497154507 217.203 88.205 c 3
 217.203 58.9373153847 246.279317934 40.5185960144 263.967 36.588 c 0
 266.070115197 36.1206410673 267.457421052 36.2584 268.704 36.176 c 1
 265.851 -10.441 l 1
 232.679000001 -6.735 186.869 0.559 138.793 0.559 c 3
 102.6995625 0.559 59.3874375 -4.441 23.294 -8.441 c 1
 21.441 36.029 l 1
 31.9903928572 38.4878 37.6972636361 38.2883982633 48.294 42.176 c 0
 59.7913777715 46.5466042991 80.2640801206 59.8007878458 85.853 73.706 c 0
 96.1590588236 100.388430895 98.441 158.790936212 98.441 188.677 c 3
 98.441 204.008221658 95.040518959 255.844172848 87.147 272.443 c 0
 75.0404893029 298.144757381 56.6014644617 301.59 41.383 301.59 c 3
 31.3148216784 301.59 24.4688290792 301.737 22.824 301.737 c 1
 26.559 347.942 l 1
 84.0939999999 357.258057692 141.629 362.581519231 219.379 417.147 c 1
 239.232 392.971 l 1
 234.614333333 378.483028167 236.202333333 357.555957746 233.526 335.824 c 1
 279.331739131 370.887657143 320.880000001 415 369.41 415 c 3
 426.985666666 415 463.969380952 375.179402986 470.439 336.53 c 1
 504.991859648 364.29103846 555.492192983 402.147 621.94 402.147 c 3
 689.793084113 402.147 717.47 364.711267241 717.47 305.646 c 3
 717.47 258.294361111 713.176 203.768231481 713.176 150.677 c 3
EndSplineSet
Substitution2: "case-1" M
Substitution2: "pcap-1" m.pcap
Substitution2: "smcp-1" m.smcp
EndChar

StartChar: n
Encoding: 110 110 13
Width: 526
VWidth: 1159
Flags: HMW
LayerCount: 2
Fore
SplineSet
84.853 270.149 m 0
 75.1753291016 309.834591797 68.4077841797 314.207 47.118 314.207 c 3
 40.0907910156 314.207 34.118 314.354 25.118 314.354 c 1
 25.412 357.118 l 1
 81.5783251953 365.198913085 137.743530273 369.816097656 213.644 417.147 c 1
 233.497 396.412 l 1
 231.523556641 381.014772997 229.734403321 366.130890308 223.203 335.677 c 1
 265.461197536 365.537840821 311.240115733 416.147 366.704 416.147 c 3
 421.25515977 416.147 454.882 377.42505371 454.882 300.559 c 3
 454.882 251.355949727 450.588 197.678379557 450.588 144.002 c 3
 450.588 112.342411133 452.68564581 82.3976287792 454.735 72.352 c 0
 459.029 50.4030305693 484.897490484 40.1615994428 484.323 40.029 c 0
 489.412670898 37.2774013672 503.182049804 39.0933759766 509.265 38.47 c 1
 508.853 -9.294 l 1
 463.713637696 -1.23228483073 439.407051758 0.559 390.795 0.559 c 3
 358.014869141 0.559 311.028372071 -3.91921207683 282.619 -9.294 c 1
 285.501 36.323 l 1
 288.532486328 36.4882480469 292.341778698 35.8768650092 295.973 36.735 c 0
 305.803129883 39.136328125 326.161197642 47.1506210831 328.267 66.824 c 0
 330.980514648 91.7753303411 331.973 141.749179988 331.973 179.704 c 3
 331.973 208.701375 327.940039277 253.483617895 325.826 264.06 c 0
 319.690816138 296.179169063 310.135141295 323.443 276.942 323.443 c 3
 251.563886719 323.443 231.912464844 310.404060547 218.174 310.236 c 1
 207.985943359 231.948384006 211.468 122.853163458 211.468 89.352 c 3
 211.468 58.4789153239 230.915661746 46.3715665072 239.88 42.323 c 0
 244.737806641 40.1773847656 252.667688477 39.2403759766 257.234 38.47 c 1
 255.528 -8.147 l 1
 212.497818359 -3.39827272727 179.398454102 0.559 133.058 0.559 c 3
 99.1151875 0.559 58.3838125 -3.16655555556 24.441 -6.147 c 1
 24.882 37.176 l 1
 35.4317128906 39.176 41.4883176033 38.6056663969 51.735 42.176 c 0
 62.8214335938 46.1647978884 82.1396442122 63.5753950811 85.853 94.352 c 0
 88.7432900391 119.339210937 91.559 164.136980469 91.559 188.677 c 3
 91.559 203.626450556 90.6692564934 246.05947445 84.853 270.149 c 0
EndSplineSet
Substitution2: "case-1" N
Substitution2: "pcap-1" n.pcap
Substitution2: "smcp-1" n.smcp
EndChar

StartChar: o
Encoding: 111 111 14
Width: 505
VWidth: 1159
Flags: W
HStem: -11 56.205<237.363 316.648> 356.795 58.764<187.367 263.537>
VStem: 32 135.644<147.287 284.246> 339.944 133.056<108.859 263.893>
LayerCount: 2
Fore
SplineSet
257 415.559 m 3
 392 415.559 473 311.032158878 473 208.441 c 3
 473 79.4178878521 378.503333969 -11 254.853 -11 c 3
 130.493584042 -11 32 66.8708 32 183.677 c 3
 32 345.478692023 167 415.559 257 415.559 c 3
215.354 356.795 m 3
 191.669581443 356.795 167.644 316.824146498 167.644 256.822 c 3
 167.644 161.045457193 223.877721947 45.205 282.205 45.205 c 3
 318.624652351 45.205 339.944 99.2336689507 339.944 156.913 c 3
 339.944 299.612402459 247.745856179 356.795 215.354 356.795 c 3
EndSplineSet
Substitution2: "case-1" O
Substitution2: "pcap-1" o.pcap
Substitution2: "smcp-1" o.smcp
EndChar

StartChar: p
Encoding: 112 112 15
Width: 513
VWidth: 1159
Flags: HMW
LayerCount: 2
Fore
SplineSet
95.882 20.677 m 3
 95.882 115.967451579 85 209.703952 78.706 225.327 c 1
 69.2454444444 260.834549063 44.2790966188 277.091 19.325 277.091 c 3
 12.7396754098 277.091 11.2081529412 278.414 4.853 278.414 c 1
 0 328.913 l 1
 48.2338375541 337.609712984 122.540099856 368.667143508 177.292 417.118 c 1
 205.06325 417.108392934 202.321 411.601431913 205.468 353.677 c 1
 236.217747223 376.21426675 279.125725 404.118 314.882 404.118 c 3
 411.881601044 404.118 487.882 304.607095799 487.882 214.853 c 3
 487.882 75.5726555559 367.881938827 -13.441 250.882 -13.441 c 3
 237.864826419 -13.441 225.268273461 -12.7953419213 214.35 -19.381 c 1
 214.35 -90.7150629121 213.909459064 -240.491906631 225.085 -272.53 c 0
 229.379 -284.761364 250.328499842 -293.122855611 257.085 -293.677 c 0
 278.051113257 -295.482512565 306.0123328 -297.824 325.584 -299.971 c 1
 325.731 -345.441 l 1
 264.620281 -344.441 226.145877274 -342.441 166.704 -342.441 c 3
 122.6850219 -342.441 52.2549781 -347.441 8.236 -351.441 c 1
 6.383 -309.118 l 1
 19.4858333333 -309.265 30.3229862468 -308.712854282 42.118 -304.118 c 0
 58.0365367 -297.965066667 69.9556699648 -273.843748276 76.559 -245.354 c 0
 87.294 -198.775869 95.882 -116.369377 95.882 20.677 c 3
220.414 330.737 m 3
 195.21814326 330.737 198.631551015 321.3769615 205.762 310.501 c 1
 214.644 83.499 l 1
 242.554245933 51.0051593677 273.848348893 47.058 315.292 47.058 c 3
 375.03506048 47.058 373.708 80.5492794211 373.708 133.267 c 3
 373.708 243.782373211 312.796997031 330.737 220.414 330.737 c 3
EndSplineSet
Substitution2: "case-1" P
Substitution2: "pcap-1" p.pcap
Substitution2: "smcp-1" p.smcp
EndChar

StartChar: q
Encoding: 113 113 16
Width: 491
VWidth: 1159
Flags: HMW
LayerCount: 2
Fore
SplineSet
301.209 72.588 m 1
 302.954111111 134.398689363 305.062 169.339771016 305.062 230.474 c 3
 305.062 239.321724137 302.570483985 258.447266241 295.062 273.238 c 0
 270.177021142 322.914805513 220.593035088 332.296 178.768 332.296 c 3
 165.589759125 332.296 155.321 295.10445 155.321 253.998 c 3
 155.321 158.865016574 184.83538261 62.675 301.292 62.675 c 3
 302.22046446 62.675 299.695769199 61.1474117647 301.209 72.588 c 1
299.062 19.118 m 1
 278.416145833 10.6236 246.508916667 -2.118 208.971 -2.118 c 3
 103.971 -2.118 23.971 92.3323368421 23.971 181 c 3
 23.971 299.287579832 142.971 399.236 283.971 399.236 c 3
 354.849418519 399.236 359.475651852 371.795 382.795 371.795 c 3
 399.546389307 371.795 419.409263158 398.81675 427.677 407.824 c 1
 462.735 383.06 l 1
 459.900818182 378.146631579 456.53362583 376.525195972 452.588 369.412 c 0
 442.569544827 351.049789473 436.74512029 330.321848851 424.971 253.118 c 0
 421.444549578 230.049984082 423.971 131.872578034 423.971 93 c 3
 423.971 -106.495306358 432.674669596 -183.326350789 443.294 -215.149 c 0
 452.258059468 -241.9398011 469.753136215 -273.431490729 487.058 -273.913 c 0
 497.180261181 -274.159998518 519.058 -278.06 526.058 -278.06 c 1
 524.058 -327.824 l 1
 492.530808081 -326.824 445.92539394 -325.824 388.354 -325.824 c 3
 345.077700787 -325.824 248.427299213 -330.824 205.151 -334.824 c 1
 204.298 -293.648 l 1
 213.992793104 -292.93475 220.214549934 -292.196064816 229.857 -290.795 c 0
 253.588992772 -287.293821429 282.702770274 -252.090418625 290.474 -222.149 c 0
 297.47591958 -195.56771324 299.062 -78.7385454545 299.062 19.118 c 1
EndSplineSet
Substitution2: "case-1" Q
Substitution2: "pcap-1" q.pcap
Substitution2: "smcp-1" q.smcp
EndChar

StartChar: r
Encoding: 114 114 17
Width: 358
VWidth: 1159
Flags: HMW
LayerCount: 2
Fore
SplineSet
202.439 178.795 m 0
 203.827473684 149.425020833 214.150934454 85.3373880748 227.497 70.352 c 0
 248.922091283 46.9421324697 271.657108098 41.0807581226 306.29 38.588 c 0
 315.620094609 37.8891937699 326.478208333 38.735 334.791 37.735 c 1
 332.644 -3.441 l 1
 277.271137255 -2.441 175.044313726 0.559 115.412 0.559 c 3
 80.0593333333 0.559 44.7066666667 -4.441 9.354 -8.441 c 1
 9.648 34.882 l 1
 23.80225 35.5542857143 39.3708505955 36.565858728 50.824 42.176 c 0
 62.2083103448 47.323 70.4725692333 72.3232458138 75.53 94.352 c 0
 79.824 113.091964789 81.824 181.404595044 81.824 200.795 c 3
 81.824 211.397891566 81.9298182013 227.483864835 76.677 244.797 c 0
 70.9100863422 266.280288578 55.4746000832 289.826 29.884 289.826 c 3
 17.0197639268 289.826 18.795 290.855 8.648 290.855 c 1
 7.236 337.06 l 1
 60.9543939394 344.47709091 137.902363637 377.324207792 198.88 418.648 c 1
 207.605555556 413.645007692 219.615 411.6157 219.615 395.207 c 3
 219.615 383.895469136 214.174 350.989197531 209.586 311.913 c 1
 248.155058823 343.147 295.617 383.002 294 398.913 c 1
 311.621563636 397.766 358.176 359.17189091 358.176 314.091 c 3
 358.176 247.534 322.294 210.476 238.561 210.476 c 1
 230.086892561 261.187618182 207.660545848 265.416 203.414 265.416 c 3
 201.815835675 265.416 208.429327265 263.828036294 208.586 266.619 c 0
 204.586 232.700698795 201.731256736 194.188954924 202.439 178.795 c 0
EndSplineSet
Substitution2: "case-1" R
Substitution2: "pcap-1" r.pcap
Substitution2: "smcp-1" r.smcp
EndChar

StartChar: s
Encoding: 115 115 18
Width: 352
VWidth: 1159
Flags: HMW
LayerCount: 2
Fore
SplineSet
50.559 144.499 m 1
 87.5973301406 61.9615018051 174.565266797 37.882 180.294 37.882 c 1
 203.645636719 37.882 211.002 49.3536923828 211.002 71.089 c 1
 211.002 120.089080009 163.642707031 139.476308175 135.737 161.089 c 0
 100.082453739 186.421260202 46.706 204.188748098 46.706 278.824 c 1
 46.706 337.934369877 117.313555556 408 195.294 408 c 1
 230.307947122 408 262.138489793 403.147 295.029 398.294 c 1
 295.029 398.294 305.147141602 327.791220486 311.47 281.207 c 1
 295.323 272.766 l 1
 247.211438596 303.951026316 214.006666888 356.236 176.147 356.236 c 1
 160.621683594 356.236 155.145 351.100749023 155.145 334.499 c 1
 155.145 317.048324103 163.350430665 292.498331184 232.704 256.323 c 0
 300.292440897 226.752331054 324.882 178.841817383 324.882 127.499 c 1
 324.882 41.4131805895 235.172407877 -12.441 155.294 -12.441 c 1
 109.030740327 -12.441 70.4906366353 -4.46867675781 34.147 5.677 c 1
 35.853 19.677 36.706 33.7229248047 36.706 48.677 c 1
 36.706 67.6762344338 34.0507314453 123.087765566 27.412 142.087 c 1
 50.559 144.499 l 1
EndSplineSet
Substitution2: "case-1" S
Substitution2: "pcap-1" s.pcap
Substitution2: "smcp-1" s.smcp
EndChar

StartChar: t
Encoding: 116 116 19
Width: 341
VWidth: 1159
Flags: HMW
LayerCount: 2
Fore
SplineSet
-2.058 353.942 m 1
 52.5843564453 411.929248047 138.108485352 476.008548828 191.615 494.058 c 1
 214.644 487.617 l 1
 207.96804004 456.908027344 209.87895996 430.923770508 207.497 397.853 c 1
 245.593514648 402.147 290.549485352 400 328.646 404.294 c 1
 320.058 330.913 l 1
 282.761249023 330.913 239.499750977 335.207 202.203 337.354 c 1
 196.8409375 285.360541204 201.791 241.406644047 201.791 111.588 c 3
 201.791 88.8922226562 207.968101563 65.528 265.497 65.528 c 3
 288.605103516 65.528 295.174492187 68.7729609375 321.617 77.029 c 1
 321.617 77.029 319.588 72.058 330.323 50.588 c 1
 290.9609375 23.5393056641 224.6669375 -10 164.588 -10 c 3
 144.588 -10 72.588 -0.642947265625 72.588 90.118 c 3
 72.588 184.383360715 77.3526666667 242.826993392 79.735 335.207 c 1
 79.735 335.207 33.4665399258 328.766 4.383 328.766 c 1
 -2.058 353.942 l 1
EndSplineSet
Substitution2: "case-1" T
Substitution2: "pcap-1" t.pcap
Substitution2: "smcp-1" t.smcp
EndChar

StartChar: u
Encoding: 117 117 20
Width: 506
VWidth: 1159
Flags: HMW
LayerCount: 2
Fore
SplineSet
241.561 367.853 m 1
 318.225016136 379.202411764 397.780841275 393.956647059 457.087 406.441 c 1
 461.205 388.147 l 1
 434.066497333 342.733896 418.559 169.338408 418.559 130.118 c 3
 418.559 113.799084338 421.796927449 91.6880305804 424.559 84.969 c 0
 427.085359282 77.3808907839 433.102702508 71.557 448.882 71.557 c 3
 452.79024 71.557 480.4878 73.969 497.735 77.822 c 1
 494.559 34.205 l 1
 439.689067042 24.8268904634 370.688848708 -2.32989045746 322.327 -12.559 c 0
 314.536079671 -14.1713236662 314.827 -12.824 307.327 -12.824 c 3
 297.417874737 -12.824 299.711874737 8.153 294.503 57.735 c 1
 266.861600835 42.6844285714 214.953866481 -11 175.853 -11 c 3
 136.43238315 -11 95.8942153049 5.74373945664 80.412 46.294 c 0
 71.7776875 68.9768282828 67.853 92.566969697 67.853 136.118 c 3
 67.853 180.666047338 70.853 257.924412214 70.853 273.002 c 0
 70.853 279.943333333 62.3794146748 295.443 40.795 295.443 c 3
 20.472 295.443 9.79499019659 297.207 3.795 297.501 c 1
 -2.764 337.677 l 1
 44.4731980386 336.697723792 150.297611979 390.807276073 217.967 423.147 c 1
 229.085 399.118 l 1
 207.530642288 329.468906375 198.909 247.879002988 198.909 171.265 c 3
 198.909 122.920391385 212.619467964 80.704 257.381 80.704 c 3
 281.904044174 80.704 284.248578426 89.5265034545 293.503 98.764 c 1
 295.65 176.283712499 307.532 246.632905487 307.532 256.708 c 3
 307.532 306.338607753 288.156232324 322.089 242.826 326.53 c 1
 241.561 367.853 l 1
EndSplineSet
Substitution2: "case-1" U
Substitution2: "pcap-1" u.pcap
Substitution2: "smcp-1" u.smcp
EndChar

StartChar: v
Encoding: 118 118 21
Width: 418
VWidth: 1159
Flags: HMW
LayerCount: 2
Fore
SplineSet
419 374.824 m 1
 383.441 341.690890625 388.18267817 342.939815018 360 291.325 c 0
 331.186551725 238.832219251 308.873946254 187.455190112 276.441 133 c 0
 251.276317125 90.6633529685 218.902222223 38 215.735 -20 c 1
 168.677 -20 l 1
 148.641768 104.935082418 91.492363783 234.921092592 44.677 332.53 c 0
 39.8714466984 342.54938094 29.7592514128 350.803407038 24.824 355.53 c 0
 18.5157295042 361.167635031 10.04 366.098444444 3 369.118 c 1
 6 405 l 1
 36.3995487805 401 83.9814512195 400 114.381 400 c 3
 147.363660869 400 194.897495653 405 225.94 411 c 1
 230.94 369.824 l 1
 226.284872727 365.461222223 214.938 361.971 214.938 361.971 c 1
 203.04110495 357.193849505 200.497 338.549319831 200.497 325.737 c 3
 200.497 304.838823866 205.925174424 284.294441742 212.440694027 261.563002168 c 0
 222.353377542 230.728937766 238.664399422 203.12808104 252.675 181.437 c 1
 278.751975518 214.938931411 281.978791186 221.005955928 297.136961915 269.532 c 0
 301.610353832 284.022415545 305.942 303.608465953 305.942 319.06 c 3
 305.942 337.354307692 291.661844827 366.323769231 258.265 371.824 c 1
 266.265 412 l 1
 294.443015873 405 307.168571429 404 323.53 404 c 3
 352.303026316 404 386.830657894 409 411 415 c 1
 419 374.824 l 1
EndSplineSet
Substitution2: "case-1" V
Substitution2: "pcap-1" v.pcap
Substitution2: "smcp-1" v.smcp
EndChar

StartChar: w
Encoding: 119 119 22
Width: 657
VWidth: 1159
Flags: HMW
LayerCount: 2
Fore
SplineSet
659 375.971 m 1
 604.34345 342.89165625 603.274611702 344.904898374 574.913 282.149 c 0
 553.342766965 234.143310879 522.179989465 182.962442481 501.588 133 c 0
 483.167551788 88.6004386604 457.094777777 38 456.793 -20 c 1
 414.323 -20 l 1
 398.456861445 77.4776250001 364.075163511 179.780875 322.147 265.677 c 1
 296.380731343 218.447013986 272.722218288 175.087205213 243.677 124.971 c 0
 220.702911625 85.4445094099 188.942 36.1033267974 191 -20 c 1
 138.942 -20 l 1
 148.766294118 97.6281703296 96.4838343001 247.812963223 55.294 342.853 c 0
 51.684394091 351.180178171 46.6939766526 352.258036847 32 360.118 c 0
 23.6096709782 364.720782605 12 369.648682539 2 370.265 c 1
 5 405 l 1
 40.2253414635 401 95.3606585365 400 130.586 400 c 3
 161.211173077 400 195.439307692 401.4265 224.263 405.706 c 1
 228.263 364.53 l 1
 227.200674419 362.3975 229.129808659 362.343181324 225.408 361.971 c 0
 213.35356449 360.80965484 206.379 341.748356876 206.379 323.443 c 3
 206.379 302.759681701 209.275980886 283.794456873 213.420047722 262.710001857 c 0
 218.338926801 238.983342179 228.809544674 218.785878193 242.41 203.466 c 1
 268.42688 240.112163265 292.94 274.998 291.942 312.294 c 1
 288.170928571 316.9855 284.097675479 323.109378895 281.383 326.795 c 0
 276.508363424 333.708733746 267.112709355 346.888336636 260.236 356.677 c 0
 256.853061069 362.012310639 250.0644375 367.245444444 245.441 370.265 c 1
 248.441 405 l 1
 275.349296296 401 316.296703704 400 343.205 400 c 3
 376.526773913 400 424.549330435 403.43590909 455.911 407.559 c 1
 460.911 366.383 l 1
 458.069037736 363.294666667 451.497 360.824 451.497 360.824 c 0
 445.835166667 359.824 441.791 358.824 441.791 349.824 c 3
 441.791 348.824 442.375595159 339.013875237 442.644 333.824 c 0
 444.3926875 291.310193416 466.141578125 229.635234568 489.439 188.319 c 1
 509.572166667 210.292 514.494975792 242.056698212 517.002 283.296 c 0
 517.61653932 289.834545661 516.267 296.296 516.267 305.296 c 3
 516.267 341.530564102 506.127156454 359.61914984 473.325 369.53 c 1
 484.766 408.559 l 1
 504.825384616 404.569875 515.178615384 404 526.826 404 c 3
 568.101 404 614.329 409 649 415 c 1
 659 375.971 l 1
EndSplineSet
Substitution2: "case-1" W
Substitution2: "pcap-1" w.pcap
Substitution2: "smcp-1" w.smcp
EndChar

StartChar: x
Encoding: 120 120 23
Width: 435
VWidth: 1159
Flags: W
HStem: -6 34.735<10.3954 40.5524 138.32 163.947 389.058 423.834> 365.824 41.176<196.498 205.68 263 280.442>
VStem: 196.499 12.501<365.824 367.579>
LayerCount: 2
Fore
SplineSet
8 28.735 m 1
 38 39.9240434782 45.6247992024 49.4309884912 60 65.499 c 2
 170.501 187.383 l 1
 110.824 287.443 l 2
 78.1686043703 342.567979506 71.4494958678 364.118 19 360.677 c 1
 19 404 l 1
 36 403 69 401 86 401 c 0
 124 401 169 403 205 407 c 1
 209 365.824 l 1
 195.47 371.807926797 196.499 361.524962705 196.499 356.824 c 3
 196.499 354.53725 196.27508926 349.481132695 197.352 347.677 c 2
 245.617 267.646 l 1
 267.472 300.913 l 2
 271.929580011 307.596726681 282.031 315.019133333 282.031 328.619 c 3
 282.031 365.338833333 265.53 366.265 255.559 368.677 c 1
 263 405 l 1
 279 404 306 404 322 404 c 0
 352 404 399 406 420 407 c 1
 423 380.853 l 1
 399.453142857 362.325304347 355.899349033 320.534151996 341.53 306.178 c 0
 317.045278919 282.092268038 291.882 258.568666666 267.058 234.764 c 1
 301.408689655 180.195333334 331.948434871 131.705300404 366.675 71.058 c 0
 384.489371856 39.6965743483 403.017556889 39.8139375 427 27.588 c 1
 423 -5 l 1
 396 -1 346 2 318 2 c 0
 286.073113637 2 250.598795455 -1 213.942 -5 c 1
 210.942 29.029 l 1
 244.648 27.2457857143 243.913 33.8482857143 243.913 39.588 c 3
 243.913 46.5037142857 237.52952259 63.1597479823 237.178 63.793 c 2
 188.795 151.354 l 1
 140.499 81.499 l 2
 136.853693273 76.2434716125 133.499 71.499 133.499 66.499 c 3
 133.499 44.0185652174 140.69009434 38.7271739131 168.147 32.029 c 1
 163 -6 l 1
 141 -4 111 -1 88 -1 c 0
 63 -1 34 -4 11 -6 c 1
 8 28.735 l 1
EndSplineSet
Substitution2: "case-1" X
Substitution2: "pcap-1" x.pcap
Substitution2: "smcp-1" x.smcp
EndChar

StartChar: y
Encoding: 121 121 24
Width: 446
VWidth: 1159
Flags: HMW
LayerCount: 2
Fore
SplineSet
151.998 -346 m 1
 146.493737705 -346 120.348491803 -343 68.058 -343 c 3
 32.7185172414 -343 24.4726379311 -345 -0.265 -346 c 1
 -0.265 -346 0.735 -318.445037037 -1.265 -299.501 c 1
 92.992 -250.857931818 75.331 -210.319136363 150.766 -56.087 c 1
 141.478556484 48.2394068375 96.1583330225 239.283468092 64.5022802734 313.59 c 0
 52.414789127 341.48480271 42.709416652 355.37957718 25.53 364.265 c 0
 19.879474861 366.428857143 12.3 367.489880952 6 369.118 c 1
 10 406 l 1
 39.1881358025 402 83.6048641975 400 112.793 400 c 3
 159.239170213 400 197.488957447 401.491571429 241.203 410.441 c 1
 245.203 373.265 l 1
 240.615 372.118 242.165363308 372.897813111 236.29 370 c 0
 217.919849206 360.579061721 216.114 318.108706338 216.114 298.209 c 3
 216.114 287.261917301 216.938865899 277.199104402 217.548076172 265.71 c 0
 219.808633987 211.515418477 232.132690638 154.214142644 250.087 125.791 c 1
 290.49175 161.484900877 314.07090007 234.52347179 321.354 290.325 c 0
 322.753005998 299.792637192 324.06 314.296792663 324.06 324.501 c 3
 324.06 337.365912169 320.047534884 363.875413793 262.971 372.971 c 1
 268.971 411 l 1
 297.265576087 404 336.512891304 400 352.942 400 c 3
 382.592 400 415.8 402 440.706 408 c 1
 445.706 371.118 l 1
 417.830753087 361.837305085 406.693308054 348.916635123 380.706 296.06 c 0
 364.559 263.20675625 259.452098299 67.7150743524 220.706 -13.147 c 0
 212.263 -31.474 158.88 -246.59 151.998 -346 c 1
EndSplineSet
Substitution2: "case-1" Y
Substitution2: "pcap-1" y.pcap
Substitution2: "smcp-1" y.smcp
EndChar

StartChar: z
Encoding: 122 122 25
Width: 453
VWidth: 1159
Flags: HMW
LayerCount: 2
Fore
SplineSet
291.915 2.294 m 2
 174.588 2.294 l 2
 148.030559574 2.294 55.5566099291 -6.294 35.882 -19.176 c 1
 13.971 17.706 l 1
 101.739000675 118.398497058 180.736482385 233.75495 230.269 350.089 c 1
 235.76919297 354.126287645 229.95592082 354.383 224.913 354.383 c 3
 185.739913044 354.383 152.812193937 353.233700118 115.588 343.648 c 0
 79.3407708491 334.680825094 51.147 298.021055556 45.735 291.53 c 1
 17.441 305.265 l 1
 50 434.205 l 1
 74.8455628415 418.764 102.27862295 397.706 237.588 397.706 c 3
 331.809557894 397.706 408.620610527 399 432.176 410.588 c 1
 442.176 389.441 l 1
 360.237219156 277.048617143 255.347491883 163.661611428 225.319 41.323 c 1
 268.089 43.47 l 2
 303.628343129 44.9020122546 329.79382757 51.8415885349 359.559 73.234 c 0
 376.940446882 85.7730864928 391.197038346 102.449883287 402.853 120.822 c 0
 408.716296668 130.043468792 414.336727274 138.476583333 417.294 151.087 c 1
 443.588 143.087 l 1
 413.176 -19.176 l 1
 382.823501045 -4.48703220544 371.403169253 2.294 291.915 2.294 c 2
EndSplineSet
Substitution2: "case-1" Z
Substitution2: "pcap-1" z.pcap
Substitution2: "smcp-1" z.smcp
EndChar

StartChar: A
Encoding: 65 65 26
Width: 705
VWidth: 1159
Flags: HMW
LayerCount: 2
Fore
SplineSet
254.132192383 260.708609375 m 1
 275.897724609 250.14722754 349.022346679 252.697469727 380.86103125 254.302597656 c 1
 359.387504883 312.983714844 341.715576172 344.797085938 305.488660156 399.507978516 c 1
 276.686736328 337.779287109 272.849639648 311.237655273 254.132192383 260.708609375 c 1
377.211 -8.82947753906 m 1
 377.211 -8.82947753906 364.329 9.83257324219 355.741 40.6575888672 c 1
 401.765581054 51.0742724609 435.046342773 73.1880751953 427.004307617 103.811389648 c 0
 417.693259766 140.900838867 411.704337891 150.756712891 404.209 180.944 c 1
 361.537212891 202.998701172 291.403223633 207.73296875 231.323 197.973 c 1
 220.14999121 169.10494629 207.28289746 156.8211875 204.530726563 123.151782227 c 0
 200.497 86.2624091797 242.137725585 46.9879619141 299.5115 42.6697070312 c 1
 295.2175 -11.3004560547 l 1
 249.750723512 -3.52391052282 171.835223608 0.933213221777 104.941655864 0.933213221777 c 3
 71.8624642807 0.933213221777 41.5629559344 -0.566265680192 19.294 -3.75106933594 c 1
 19.294 -3.75106933594 16.2113759766 19.2517617188 15.441 46.3168085937 c 1
 86.4468222656 59.4554384766 108.587427734 103.780574219 111.447536133 111.577223633 c 0
 196.337032227 310.916212891 263.545823242 464.967313477 328.885544922 633.91888379 c 0
 332.507394531 643.332373047 336.053359375 673.711926758 334.465094727 710.853 c 1
 402.92871875 710.853 l 1
 403.491934571 683.842918946 403.479816406 647.781804687 406.276404297 636.18099121 c 0
 460.83229004 433.050159179 495.834388672 315.169174804 612.56729004 83.5656162109 c 0
 629.184413085 50.9748466797 677.598222656 42.5588154297 689.706 44.2787246094 c 1
 689.706 44.2787246094 687.559 20.5217900391 685.412 -5.24220996094 c 1
 651.160639737 -1.85094741089 605.701127179 -0.0281612188865 559.728945177 -0.0281612188865 c 3
 485.97906413 -0.0281612188865 410.983484366 -2.74258177299 377.211 -8.82947753906 c 1
EndSplineSet
Position2: "cpsp-1" dx=0 dy=0 dh=50 dv=100
Substitution2: "c2pc-1" a.pcap
Substitution2: "c2sc-1" a.smcp
EndChar

StartChar: B
Encoding: 66 66 27
Width: 584
VWidth: 1159
Flags: HMW
LayerCount: 2
Fore
SplineSet
9.412 46.617 m 1
 34.4572435898 46.323 113.205 48.7391950573 112.911 91.352 c 0
 112.911 95.8282410149 119.352 183.563075302 119.352 287.412 c 3
 119.352 443.168787758 104.569069936 595.020603862 102.176 584.178 c 0
 100.393954545 575.647068 93.1699774896 612.575869577 72.588 621.913 c 0
 64.188526628 625.631206 12.548125 635.0422 3.971 636.501 c 1
 14.412 691.706 l 1
 25.2858726526 691.706 70.9618033315 680.559 128.588 680.559 c 3
 186.068501857 680.559 245.995898992 690.559 300.352 690.559 c 3
 468.958225163 690.559 513.557 579.094354492 513.557 521.441 c 3
 513.557 452.515457031 469.386089844 409.844180665 369.263 369.843448242 c 1
 470.690663085 353.247139648 567.352 261.347529525 567.352 176.412 c 3
 567.352 67.4766 465.351585421 -5.147 306.352 -5.147 c 3
 247.63960076 -5.147 194.101105645 0.127764856222 132.588 0.853 c 3
 69.320548267 0.853 21.0653578971 -3.147 13.559 -3.147 c 1
 9.412 46.617 l 1
300.352 379.853 m 0
 331.273357903 388.395352595 363.913 430.2505 363.913 480.648 c 3
 363.913 584.049402344 322.093972656 632.354 298.41 632.354 c 3
 295.899041992 632.354 286.447634596 634.710970158 281.379 631.795 c 0
 279.465213757 630.470719988 273.673167984 615.530795797 272.437 584.178 c 0
 270.153497717 516.658776404 266.731 377.853 266.731 377.853 c 1
 294.579245643 377.853 297.004863569 378.905302683 300.352 379.853 c 0
276.352 340.971 m 0
 262.437 340.971 l 1
 264.584 258.521696294 266.901305364 177.833923213 268.878 128.116 c 0
 270.351942961 92.4460572864 273.530591469 51.6301074791 296.29 49.029 c 0
 299.815252871 48.66844467 316.2427268 48.911 325.675 48.911 c 3
 375.800033795 48.911 401.65 90.1049424837 401.65 169.971 c 3
 401.65 253.97071795 365.494948 340.971 276.352 340.971 c 0
EndSplineSet
Position2: "cpsp-1" dx=0 dy=0 dh=50 dv=100
Substitution2: "c2pc-1" b.pcap
Substitution2: "c2sc-1" b.smcp
EndChar

StartChar: C
Encoding: 67 67 28
Width: 743
VWidth: 1159
Flags: W
HStem: -10.147 62.646<379.567 519.697> 633.766 58.352<330.453 498.371>
VStem: 34.971 193.613<242.758 455.96>
LayerCount: 2
Fore
SplineSet
34.971 339.971 m 3
 34.971 504.340948427 154.382801031 692.118 438.971 692.118 c 3
 505.529321375 692.118 545.04843297 682.54576217 606.441 663.089 c 0
 649.689848874 649.264908684 634.504173956 686.4199 661.089 687.176 c 1
 696.118 670.882 l 1
 656.94 609.031521786 657.971 570.889593856 657.971 548.211375977 c 0
 657.971 505.271375977 683.352 490.242375977 614.648 490.242375977 c 1
 605.964356164 496.643959325 587.027176649 531.46466904 547.826 572.478375977 c 0
 508.23383924 615.198646046 465.160512123 633.766 408.913 633.766 c 3
 312.969614337 633.766 228.584 550.327307202 228.584 382.911 c 3
 228.584 178.745344837 343.549439392 52.499 460.029 52.499 c 3
 537.680972886 52.499 585.532 153.231846153 668.412 219.733 c 1
 698.853 205.998 l 1
 688.429223913 144.173025 679.163783696 109.971975 665.265 48.147 c 1
 601.644296539 15.877142536 511.269991086 -10.147 429.971 -10.147 c 3
 209.97046094 -10.147 34.971 135.980441436 34.971 339.971 c 3
EndSplineSet
Position2: "cpsp-1" dx=0 dy=0 dh=50 dv=100
Substitution2: "c2pc-1" c.pcap
Substitution2: "c2sc-1" c.smcp
EndChar

StartChar: D
Encoding: 68 68 29
Width: 792
VWidth: 1159
Flags: W
HStem: -3.118 54.058<11.412 89.1478> -0.118 66.94<302.504 452.734> 13.764 662.501<120.994 264.004> 643.151 0.938252<312.392 313.02> 644.089 53.058<312 432.001> 669.147 20G<11.1432 37.3518>
VStem: 119.147 148.299<103.131 294.652 456.348 527.447> 594.209 174.29<224.039 469.007>
LayerCount: 2
Fore
SplineSet
347.94 66.822 m 1x13
 507.204698242 66.822 594.209 183.558298827 594.209 333.118 c 3
 594.209 529.248620117 500.152317383 644.089 312 644.089 c 3x0b
 320.612230469 644.089 312.738292969 643.422733398 314.2445 643.150748047 c 0
 287.965 636.971 271.4805 576.417748047 271.4805 579.357748047 c 0
 264.5985 470.107973934 267.445609127 344.051130587 267.445609127 228.922421373 c 3
 267.445609127 200.040944543 268.624359299 169.238169998 274.201 138.762 c 0
 274.201 120.762 294.854046875 87.8767626953 320.112 76.969 c 0
 331.083184571 71.6273642578 336.821569335 66.822 347.94 66.822 c 1x13
11.853 689.147 m 25x87
 62.8506367188 684.853 92.5013632812 676.265 143.499 676.265 c 19
 230.459795898 676.265 278.543804688 697.147 365.499 697.147 c 3
 569.490488281 697.147 768.499 570.666550782 768.499 354.588 c 3
 768.499 68.5808164062 532.576208008 -0.118 341.499 -0.118 c 3x4b
 267.499 -0.118 224.382507812 13.764 150.499 13.764 c 3x23
 63.2132900391 13.764 46.7975234375 5.323 11.412 -3.118 c 9
 10.559 50.94 l 1
 23.4575 57.6271611328 106.254814453 57.2987021484 108.499 99.263 c 1
 116.422660013 140.722526838 119.147066519 175.492924719 119.147066519 214.599822368 c 3
 119.147066519 370.839034418 108.905484113 535.01874713 96.617 595.501 c 1
 93.4375166016 617.880375 44.9275 631.291476562 9.706 628.648 c 9
 11.853 689.147 l 25x87
EndSplineSet
Position2: "cpsp-1" dx=0 dy=0 dh=50 dv=100
Substitution2: "c2pc-1" d.pcap
Substitution2: "c2sc-1" d.smcp
EndChar

StartChar: E
Encoding: 69 69 30
Width: 619
VWidth: 1159
Flags: W
HStem: -12.441 38.441<22.0496 52.8126> 13.4729 54.0698<309.261 440.6> 329.559 49.764<262.319 411.589> 456.822 20G<476.624 526.94> 618.113 53.4984<296.087 472.435> 643.383 39.029<19.294 60.2588>
VStem: 121.925 140.394<138.477 329.559 379.323 570.12> 475.176 49.764<227.56 276.594 424.921 463.522> 520.764 43.764<517.648 579.175>
LayerCount: 2
Fore
SplineSet
19.294 682.412 m 1xb7
 174.996569834 674.588273731 218.702237519 671.610963673 303.932668024 671.610963673 c 3
 470.967464207 671.610963673 530.461032438 680.665459785 565.94 688.853 c 1
 579.385161609 677.225977977 584.126163465 672.323940867 584.126163465 664.267774152 c 3
 584.126163465 648.914568427 571.737282642 622.164683477 564.528 517.648 c 1
 520.764 511.207 l 1x3a80
 520.087 524.267 510.971900724 568.764444524 497.352 581.12 c 0
 466.45000278 606.716069029 414.256969817 618.112569593 365.597928109 618.112569593 c 3
 339.916761903 618.112569593 315.217301084 614.949476433 295.143 609.031 c 0
 289.383640625 607.089246094 280.710008981 562.412532837 280.348 561.267 c 0
 271.76 504.873716796 264.466 432.76897461 262.319 379.323 c 1
 295.166300781 383.617 404.819178553 383.533705799 412 385.764 c 0
 451.728605469 396.651335937 471.7785 466.888124023 481.47 476.822 c 1
 526.94 461.793 l 1
 518.740762571 424.252151532 515.426275545 386.995222261 515.426275545 349.748283658 c 3
 515.426275545 309.767158123 519.24571837 269.79695915 524.94 229.501 c 1
 475.176 210.178 l 1
 453.4555 271.658124023 456.40104584 299.502099113 412 318.824 c 0
 389.416640625 329.559 310.052824219 327.412 262.319 329.559 c 1
 260.172 258.32589746 269.906109146 179.935112676 286.495 131.468 c 0
 290.652936523 118.914865234 309.456118803 86.5672212291 308.466 85.704 c 0
 325.440577395 70.4805645868 342.092768449 67.5427178016 362.846941964 67.5427178016 c 1
 382.271542486 67.5427178016 432.176241067 81.0381093965 456.706 98.145 c 0
 513.257423828 136.343543946 532.20604004 158.215585938 585.352 202.234 c 1
 619.087 194.087 l 1
 593.645532227 100.194961915 590.851510742 78.9216103516 577.793 6.882 c 1
 352.863285527 5.71103946115 344.671486968 13.4729049147 276.837637985 13.4729049147 c 3x7b
 181.658325921 13.4729049147 151.909700744 8.06874298671 24.706 -12.441 c 1
 10.118 26 l 1
 68.136125 45.0707239192 115.94 77.5882730599 115.94 113.704 c 1
 119.799971516 188.290232391 121.92494921 181.578363932 121.92494921 266.191962335 c 3
 121.92494921 402.277215445 118.138990889 484.335909737 111.646 584.031 c 0
 109.499 615.076863281 85.3629179687 615.086944335 8.559 643.383 c 1
 19.294 682.412 l 1xb7
EndSplineSet
Position2: "cpsp-1" dx=0 dy=0 dh=50 dv=100
Substitution2: "c2pc-1" e.pcap
Substitution2: "c2sc-1" e.smcp
EndChar

StartChar: F
Encoding: 70 70 31
Width: 566
VWidth: 1159
Flags: W
HStem: -6.706 48.764<16.648 72.6108 339.564 422.671> 454.675 20G<399.973 455.737> 649.412 39.029<11.7209 56.5278>
VStem: 111.029 157.114<119.439 613.51> 414.296 53.205<185.572 240.345>
LayerCount: 2
Fore
SplineSet
422.671 -6.412 m 1
 355.8335 -3.10292871094 304.10625 -1.37489306641 252.801625 -1.37489306641 c 1
 186.586 -1.37489306641 119.646 -4.24992871094 16.648 -6.706 c 1
 12.383 42.058 l 1
 60.795 42.882 111.029 85.704 111.029 119.439 c 1
 113.143883846 136.637014036 114.219293667 171.565272593 114.219293667 215.199227717 c 3
 114.219293667 337.736854801 107.710358097 527.548532792 104.588 580.884 c 0
 102.441 620.501 76.971 620.501 8.559 649.412 c 1
 12.412 688.441 l 1
 69.6223694643 683.116483946 134.919812284 681.003720178 199.204020891 681.003720178 c 3
 369.497248652 681.003720178 533.799661237 695.85427408 542.234 711.47 c 1
 551.298386191 700.268066946 556.352 700.205 556.352 672.323 c 1
 556.352 637.706 549.117766737 589.238195193 546.058 462.886 c 1
 507.029 456.445 l 1
 490.294 458.035 473.619432617 553.112244141 443.383 584.855 c 0
 405.617 625.795 349.332916992 631.646133789 298.172 622.648 c 0
 273.29 618.354 269.15922168 581.854138672 268.143 571.884 c 0
 259.555 500.06 261.702 431.089 261.702 364.118 c 1
 283.263 368.412 326.930649414 363.247342773 332.915 364.118 c 0
 379.091 374.853 393.12 431.822 406.826 474.675 c 1
 455.737 469.969 l 1
 450.060266478 432.067473798 447.106457185 395.278753511 447.106457185 357.34182272 c 1
 447.106457185 301.383345623 453.427121691 244.276473798 467.501 187.209 c 1
 414.296 174.768 l 1
 388.561 262.973 386.542048828 266.892750977 332.915 297.178 c 0
 317.59 307.913 291.764 305.766 259.555 307.913 c 1
 265.702 215.559 261.049545898 128.751072266 288.613 101.646 c 0
 292.613 97.263 338.464 43.147 424.083 43.147 c 1
 422.671 -6.412 l 1
EndSplineSet
Position2: "cpsp-1" dx=0 dy=0 dh=50 dv=100
Substitution2: "c2pc-1" f.pcap
Substitution2: "c2sc-1" f.smcp
EndChar

StartChar: G
Encoding: 71 71 32
Width: 803
VWidth: 1159
Flags: W
HStem: -10.147 51.911<436.27 560.976> 321.706 24<761.86 780.499> 660.236 54.058<337.996 510.092>
VStem: 43 183.878<260.336 472.257>
LayerCount: 2
Fore
SplineSet
43 355 m 3
 43 634.227882511 343.292 714.294 466 714.294 c 3
 539.475771285 714.294 598.137017734 699.418421719 646.30900922 701.623421719 c 0
 658.043342239 702.652421719 662.686732584 706.455431741 666.441 714.617 c 1
 694.735 707.882 l 1
 710.588 531.265 l 1
 672.706 520.677 l 1
 580.532 612.089 493.834593266 660.236 416.619 660.236 c 3
 261.808564784 660.236 226.878 487.757810023 226.878 374.029 c 3
 226.878 191.282866002 383.912 41.764 528.88 41.764 c 3
 549.468241121 41.764 560.168338843 44.351599564 560.356 59.412 c 0
 566.541001022 79.6517370546 572.915 121.821692308 572.915 124.793 c 0
 572.915 143.794098875 577.209 175.295351686 577.209 203.797 c 0
 577.209 261.303127273 521.888 285.766 478.623 305.824 c 0
 480.042611755 306.873613373 477.532 308.824 482.236 308.677 c 1
 484.236 349.853 l 1
 599.136479087 339.470666667 725.301711027 342 780.499 345.706 c 1
 783.499 321.706 l 1
 760.057589743 311.9532 739.440980166 297.506082759 736.47 261.472 c 0
 732.176 214.581836688 728.211960916 175.071503637 725.735 138.145 c 0
 723.650027768 105.392368129 734.057344827 89.5677954545 753.735 54 c 1
 745 36.441 l 1
 666 23.1301428571 502 -10.147 448 -10.147 c 3
 250.969 -10.147 43 114.96854651 43 355 c 3
EndSplineSet
Position2: "cpsp-1" dx=0 dy=0 dh=50 dv=100
Substitution2: "c2pc-1" g.pcap
Substitution2: "c2sc-1" g.smcp
EndChar

StartChar: H
Encoding: 72 72 33
Width: 831
VWidth: 1159
Flags: W
HStem: -16.588 49.911<492.534 553.393> -11.294 56.911<9.824 84.4467> -11.294 47.764<280.957 362.201 751.91 820.798> 303.06 58.352<257.261 480.781 494.817 579.416> 633.795 51.911<276.135 356.143> 669.706 20G<5.9748 39.7232 476.45 506.319 784.985 823.232>
VStem: 579.416 150.257<59.0394 304.485 361.412 481.244>
LayerCount: 2
Fore
SplineSet
6.236 689.706 m 1x56
 73.2103486175 683.764677498 132.637381342 680.866368082 197.457966747 680.866368082 c 1
 245.598688516 680.866368082 297.058876571 682.879838638 356.143 685.706 c 1
 356.996 633.795 l 1x1a
 327.874498047 634.383 278.227340818 622.91917533 275.996 617.089 c 0
 264.261 582.243464844 257.967 460.929512695 257.114 361.412 c 1
 755.966422852 346.383 343.28404501 368.942395719 579.416 361.412 c 1
 577.122 425.98693457 579.416 536.142555664 561.799 596.089 c 0
 553.972498139 623.042351314 485.378389648 647.147 476.211 641.942 c 1
 476.623 689.706 l 1
 536.015412596 683.725744618 584.438232726 679.712176369 632.831713078 679.712176369 c 1
 689.729788816 679.712176369 747.793280389 684.727605676 822.176 696.706 c 1
 824.735 648.236 l 1
 775.35304004 650.834181818 753.230868867 634.573147634 748.971 609.089 c 0
 731.677528937 506.218723676 729.67302499 302.588492859 729.67302499 166.98060637 c 3
 729.67302499 119.779947444 734.803754682 73.8435184311 750 59.882 c 0
 769.323 41.764 807.789375 32.735 822.735 36.47 c 1
 822.735 36.47 826.911 18.764 819.882 -11.294 c 1x36
 770.440261785 -4.35172096467 719.928259023 -0.386269233476 667.238488517 -0.386269233476 c 1
 611.512639589 -0.386269233476 553.640461444 -3.16803871377 492.534 -16.588 c 1
 492.534 -16.588 489.975 7.559 484.534 33.323 c 1x92
 509.400484375 34.147 565.220384755 53.310024327 567.122 68.882 c 0
 577.563 156.484351562 579.563 211.593738281 579.416 303.06 c 1
 437.398065429 313.795 559.69577246 311.648 257.261 303.06 c 1
 257.408 226.62431543 257.775203109 136.292608298 266.29 76.47 c 0
 271.000683594 43.911 357.202341797 39.882 363.76 40.911 c 1
 363.76 40.911 363.201 16.764 362.201 -13.294 c 1
 288.362639392 -4.23538635038 225.522371612 0.787489920391 164.760995974 0.787489920391 c 1
 111.995409052 0.787489920391 61.4219476441 -2.12658950272 9.824 -11.294 c 1
 9.824 -11.294 9.412 11.559 7.412 45.617 c 1
 16.1785908203 42.441 84.0404637912 53.9421017025 85.559 68.441 c 0
 98.2646 203.322228711 96.42964 357.997747227 96.42964 498.214202891 c 3
 96.42964 542.37084 91.7494733609 596.64922678 80.236 612.089 c 0
 67.1414423828 629.501 11.4991289062 640.971 5.53 635.648 c 1
 6.236 689.706 l 1x56
EndSplineSet
Position2: "cpsp-1" dx=0 dy=0 dh=50 dv=100
Substitution2: "c2pc-1" h.pcap
Substitution2: "c2sc-1" h.smcp
EndChar

StartChar: I
Encoding: 73 73 34
Width: 341
VWidth: 1159
Flags: W
HStem: -10 57.205<16.1075 72.7809> 628.354 63.646<264.563 320.118>
VStem: 11.118 4<631.354 633.511> 106.946 135.247<85.706 589.368>
LayerCount: 2
Fore
SplineSet
15.118 695 m 1
 74.0556965497 686.653621982 120.085948981 683.019084901 167.243004004 683.019084901 c 3
 212.899525416 683.019084901 259.612281217 686.329381745 320.118 692 c 1
 322.118 628.354 l 1
 309.998 627.501 283.468 623.737 267.998 616 c 0
 253.939858471 611.363897595 242.193530408 432.502075935 242.193530408 296.649327908 c 3
 242.193530408 234.99595247 247.216147406 164.203910556 258.851 90.087 c 0
 263.165304063 33.3371551221 316.292 41.176 329 46.058 c 1
 328 -9 l 1
 276.492938281 -4.11511258936 219.264315368 -1.26844418498 164.006610353 -1.26844418498 c 3
 110.909683571 -1.26844418498 59.6325388021 -3.93628557304 17 -10 c 1
 9.706 47.205 l 1
 20.385 43.764 85.414 47.646 93.149 111.41 c 0
 100.734025119 174.057309953 106.946241032 256.125068719 106.946241032 336.857691819 c 3
 106.946241032 441.981067859 98.1179038826 544.625077408 80.826 608.265 c 0
 72.1825000332 636.688728667 12.503 636.677 11.118 631.354 c 1
 15.118 695 l 1
EndSplineSet
Position2: "cpsp-1" dx=0 dy=0 dh=50 dv=100
Substitution2: "c2pc-1" i.pcap
Substitution2: "c2sc-1" i.smcp
EndChar

StartChar: J
Encoding: 74 74 35
Width: 337
VWidth: 1356
Flags: HMW
LayerCount: 2
Fore
SplineSet
82.561 595.648 m 0
 69.1199812854 626.628953582 48.648 627.501 14 633.648 c 1
 18 692 l 1
 72.807138728 688.11463793 116.452643759 686.432158512 160.221998326 686.432158512 c 3
 209.078292929 686.432158512 270.731464362 687.808797114 323 692 c 1
 325 627.207 l 1
 308.292 624.06 273.732914543 618.002016277 269.733 599.942 c 0
 246.480038085 486.718179688 243.234 371.716142578 243.234 225 c 3
 243.234 61.8646933594 266.439 -3.38965332031 266.439 -57.35 c 3
 266.439 -99.3177255859 193.702468786 -148.778681566 104.323 -203.441 c 0
 65.559 -227.323 53.5583333333 -236.079529412 28.176 -251 c 1
 -9.441 -204.236 l 1
 10.1377758621 -194.542305556 26.76487145 -185.137660103 42.824 -176.265 c 0
 48.1759900167 -173.239162926 52.7733169267 -169.946380973 56.824 -166.412 c 0
 121.277305556 -109.706 110.472 0.522073242188 110.472 65 c 3
 110.472 101.553664063 97.59 560.686348633 82.561 595.648 c 0
EndSplineSet
Position2: "cpsp-1" dx=0 dy=0 dh=50 dv=100
Substitution2: "c2pc-1" j.pcap
Substitution2: "c2sc-1" j.smcp
EndChar

StartChar: K
Encoding: 75 75 36
Width: 687
VWidth: 1159
Flags: W
HStem: -10 36.882<293.379 330.109 392.133 417.279> -1 21G<659 678.245> 641.089 50.911<572.247 605.868> 643.089 41.911<19.9518 63.0442 360.031 392.237>
VStem: 99.5133 140.425<94.6836 293.06 354.706 589.088>
LayerCount: 2
Fore
SplineSet
360.031 685 m 1x98
 393.077469113 683.004664367 429.341041883 681.949571772 466.741023273 681.949571772 c 3
 512.626433009 681.949571772 560.921831532 685.101999391 604 692 c 1
 617.588 641.089 l 1
 589.205 632.236 538.286459327 602.573500873 499.648 568.708 c 0
 419.265 498.031 376.505888888 438.865806584 329.613 372.735 c 1
 350.259 349.795 499.519589567 186.312793987 543.884 148.938 c 0
 605.961458146 96.5462857019 682.263 50.617 679.294 23 c 1
 673 -1 l 1x68
 645 1 606 4 578 4 c 3
 520.945158878 4 448.329906542 1 393.004 -4 c 1
 389.004 22.147 l 1
 398.358 26.9413333333 433.857 31.853 414.151 83.234 c 0
 406.73309556 105.064770656 296.71028754 224.74455814 239.938 293.06 c 1
 241.085 236.756797469 247.352453946 170.290806796 251.82 128.321 c 0
 259.623777876 54.4661490205 303.486986111 32.853 333.35 26.882 c 1
 329.35 -10 l 1
 264.941398648 -2.8 199.02714168 1.88 126.488 1.88 c 3
 91.8 1.88 55 -0.2 15 -5 c 1
 12 38.323 l 1
 32.59 35.882 73.0797762558 50.8511391619 81.824 112.292 c 0
 93.7477296222 192.47061175 99.513267791 280.921355538 99.513267791 367.184455971 c 3
 99.513267791 423.916228266 94.8050786698 474.752996005 89.265 536.238 c 0
 82.1302794157 617.861877898 61.942 636.971 11.559 648.971 c 1
 21 688 l 1
 56.6601886794 683.542476415 94.1086338448 681.667989976 131.662527565 681.667989976 c 3
 189.276337999 681.667989976 247.091299556 684.566018868 301.116 689 c 1
 304.116 647.824 l 1
 292.866137931 638.236 266.916681211 632.743826654 259.261 575.884 c 0
 248.526 501.864270916 239.938 431.369290837 239.938 354.706 c 1
 274.719053061 409.201013216 310.206799951 459.022347135 343.857 517.474 c 0
 356.787904465 538.303363926 381.753444044 585.305852127 389.65 604.942 c 0
 400.891003246 631.410039093 378.906491229 638.97104503 359.031 643.089 c 1
 360.031 685 l 1x98
EndSplineSet
Position2: "cpsp-1" dx=0 dy=0 dh=50 dv=100
Substitution2: "c2pc-1" k.pcap
Substitution2: "c2sc-1" k.smcp
EndChar

StartChar: L
Encoding: 76 76 37
Width: 614
VWidth: 1159
Flags: W
HStem: -7 55.47<23 72.5005> 2 80.969<274.931 448.861> 632.501 60.499<288.316 346.107>
VStem: 94 161.408<103.486 601.478>
LayerCount: 2
Fore
SplineSet
345.644 693 m 1xb0
 349.644 632.501 l 1
 265.658509859 614.860473684 267.013624453 603.965006897 260.702 510.621 c 0
 257.170476477 458.993974471 248.058130795 285.100027568 255.408 147.853 c 0
 256.084597322 143.891629413 258.972171322 88.3573294719 328.23 82.969 c 0
 334.209793428 82.2043333333 364.21505092 84.1774597426 368.033 85.116 c 0
 483.754793104 103.529506024 522.089 132.292 552.824 211.88 c 1
 600.441 202.586 l 1
 606.238 150.148791209 574.677 88.737 560.294 -23.294 c 1
 533.706 -8.559 543.680753112 4.43471183772 486 0.147 c 0
 474.975429382 -0.64002683642 386 2 284 2 c 3x70
 69 2 34 -7 23 -7 c 1
 15.706 48.47 l 1
 51.766 54.1170769231 89.853 70.7181978374 89.706 100.087 c 0
 89.706 103.656875 94 191.1188125 94 300 c 3
 94 439.167948004 82.4119231826 572.742318734 81.118 582.884 c 0
 76.824 616.274739772 45.325 638.824 12 624.766 c 1
 16 696 l 1
 56.3726980984 686.141550464 101.593828395 682.453832817 146.076608846 682.453832817 c 3
 217.778101633 682.453832817 288.13455357 687.163949757 345.644 693 c 1xb0
EndSplineSet
Position2: "cpsp-1" dx=0 dy=0 dh=50 dv=100
Substitution2: "c2pc-1" l.pcap
Substitution2: "c2sc-1" l.smcp
EndChar

StartChar: M
Encoding: 77 77 38
Width: 958
VWidth: 1159
Flags: W
HStem: -10 60.499<269.539 311.401> 0.210843 50.2882<16.079 81.1089> 9 21G<454.794 520.072> 631.501 59.499<888.643 941> 632.06 66.94<27.4438 101.913>
VStem: 455.294 58.058<9 133.806> 721.385 135.526<205.9 458.021>
LayerCount: 2
Fore
SplineSet
945 1 m 1x16
 910.834884854 7.78062235728 872.801603728 11.5117681082 832.253214522 11.5117681082 c 3
 759.893860225 11.5117681082 734.890202145 7.28209695268 683.323 -2 c 1
 677.176 52.058 l 1
 668.71 48.147 718.091 105.88 721.385 194.526 c 0
 734.229483307 286.443743854 727.669777004 380.217242795 706.238 461.857 c 1
 642.8612 371.124425781 585.827619935 273.86325085 546.147 165.617 c 0
 526.108718136 119.37665338 526.793 80.528 513.352 9 c 1
 455.294 9 l 1x36
 454.294 104.145 448.662324656 132.774148531 432.381 162 c 2
 259.321 473.327 l 1
 230.998 388.251495116 219.174915819 292.608928544 227.174 196.143 c 0
 236.748985615 63.7872932158 282.878942857 61.058 317.851 50.499 c 1
 310.557 -10 l 1x86
 263.394053973 -4.00292886961 207.425800053 0.210842966352 148.988672743 0.210842966352 c 3x46
 104.441898191 0.210842966352 58.3249220282 -2.72227415177 14 -10 c 1
 12 50.499 l 1
 89.383 51.323 129.583481806 108.499340849 134.47 178.967 c 2
 157.029 460.18 l 2
 159.476958918 507.327785345 149 534.327 131.441 578.12 c 0
 111.673867849 614.189419822 88.441 623.031 14.118 632.06 c 1
 29 699 l 1x8e
 121.384255369 687.059076923 208.119758813 676.680695753 315.348 684.853 c 0
 338.908646252 686.639856329 336.442004471 672.847759783 340.054 661 c 0
 381.99378453 536.079184571 433.960165746 415.681958009 531.41 316.669 c 1
 720.826 681.441 l 0
 725.826 690.441 734.917055778 695.355564807 740.826 693.441 c 0
 808.552762376 681.706 875.771653466 686 941 691 c 1
 946.147 631.501 l 1
 890.646 626.06 857.621674261 600.787098789 856.911 507.592 c 0
 852.796081651 398.651344756 854.567332151 290.94017367 864.47 186.232 c 0
 871.801180851 77.675 915.631361702 48.441 946 65.793 c 1
 945 1 l 1x16
EndSplineSet
Position2: "cpsp-1" dx=0 dy=0 dh=50 dv=100
Substitution2: "c2pc-1" m.pcap
Substitution2: "c2sc-1" m.smcp
EndChar

StartChar: N
Encoding: 78 78 39
Width: 836
VWidth: 1159
Flags: W
HStem: -11 70.087<232.517 270.257> 623.913 68.087<14 52.3346> 640.089 53.911<788.429 832> 681 20G<599.488 628.76>
LayerCount: 2
Fore
SplineSet
14 692 m 1xc0
 68.927659091 687.4265 142.286997357 678.060079266 199.909 682.853 c 0
 214.958126468 684.152241448 216.423446134 679.333720476 222.909 671.853 c 0
 354.058 520.15478806 500.383 391.761405894 673.766 281.7 c 1
 683.694534081 327.482434411 687.169187003 373.265173894 687.169187003 420.846190765 c 3
 687.169187003 427.390024432 687.222652345 433.81144732 687.207 440.623 c 0
 686.401580357 655.121745763 575.71 656 597 648.089 c 1
 601 701 l 1x90
 656.519587699 693.825498252 703.298840942 691.263713704 747.271642729 691.263713704 c 3
 776.164975797 691.263713704 803.846638333 692.369750597 832 694 c 1
 837 640.089 l 1xa0
 816.675 634.089 779.53333595 634.503238928 772.176 579.178 c 0
 749.529333333 410.538278199 745 230.998096434 745 50.443 c 0
 745 32.0443372093 753.8675 0.0466627906939 762.735 -18.352 c 1
 713.118 -28.205 l 1
 708.361006755 4.76076893535 675.785661473 49.383125521 646.029 77.472 c 0
 504.189442348 211.367450736 356.074802935 333.612039149 195.41 457.093 c 1
 176.087 259.524 l 2
 163.601647515 115.431649109 247.938 52.3308056641 281.588 59.087 c 1
 269 -11 l 1
 230.475274138 -2.82996917899 193.353344449 0.0350683801344 158.148197194 0.0350683801344 c 3
 109.280738727 0.0350683801344 64.1064561839 -5.48516570496 24 -10 c 1
 16.706 55.793 l 1
 41.443 44.323 75.4678765349 75.9490048383 85.53 142.321 c 0
 100.17751887 235.528029758 106.63207391 332.535176751 106.63207391 430.331351559 c 3
 106.63207391 449.662615223 103.145062861 468.731878056 102.706 488.416 c 0
 100.591074992 582.394021738 31.149 622.619 12 623.913 c 1
 14 692 l 1xc0
EndSplineSet
Position2: "cpsp-1" dx=0 dy=0 dh=50 dv=100
Substitution2: "c2pc-1" n.pcap
Substitution2: "c2sc-1" n.smcp
EndChar

StartChar: O
Encoding: 79 79 40
Width: 845
VWidth: 1159
Flags: W
HStem: -0.118 67.205<398.345 534.309> 608.826 77.675<296.635 438.318>
VStem: 43 172.143<296.398 447.841> 612.681 189.319<222.352 408.035>
LayerCount: 2
Fore
SplineSet
348.561 608.826 m 3
 274.788628818 608.826 215.143 556.009414636 215.143 425.292 c 3
 215.143 238.943830498 349.50186904 67.087 470.793 67.087 c 3
 559.788182467 67.087 612.681 173.92964966 612.681 294.325 c 3
 612.681 448.804087878 493.401143094 608.826 348.561 608.826 c 3
428 686.501 m 3
 635.000342199 686.501 802 529.392411706 802 337.265 c 3
 802 150.991568575 643.999732367 -0.118 430 -0.118 c 3
 215.999596256 -0.118 43 150.040191031 43 337.265 c 3
 43 523.713461906 218.000538137 686.501 428 686.501 c 3
EndSplineSet
Position2: "cpsp-1" dx=0 dy=0 dh=50 dv=100
Substitution2: "c2pc-1" o.pcap
Substitution2: "c2sc-1" o.smcp
EndChar

StartChar: P
Encoding: 80 80 41
Width: 596
VWidth: 1159
Flags: W
HStem: -11 55.205<0.105678 57.8522> -10 63.058<301.895 388.613> 244.294 47.47<300.439 325.392> 626.648 56.352<14.7792 80.5101> 650.412 43.588<275.383 349.153>
VStem: 114.344 152.476<88.222 243.144 295.708 551.968> 400.445 163.555<380.259 555.64>
LayerCount: 2
Fore
SplineSet
254.53 291.764 m 3x2e
 317.871916736 291.764 400.445 348.318988838 400.445 449.824 c 3
 400.445 542.285922936 376.562118662 584.045003323 368.412 604.325 c 0
 359.024130471 625.527953121 333.20129406 650.412 316.495 650.412 c 3
 286.936923077 650.412 264.968941052 623.313391191 265.261 602.913 c 0
 266.023706688 532.099559551 262.82 411.792767375 260.379 290 c 1
 258.292000629 291.323 257.069837115 291.764 254.53 291.764 c 3x2e
15 687 m 1
 41 685 75 683 114 683 c 3xb6
 185 683 224 694 295 694 c 3
 460 694 564 579.441 564 467 c 3
 564 335.531856364 433.895688726 244.294 300.439 244.294 c 3
 303.82 244.294 263.88 241.412 266.82 240.824 c 1
 270.786285714 189.361369318 278.610004227 117.224154457 280.702 109.557 c 0
 293.584 56.0673698408 335.377 56.4522 390.319 53.058 c 1
 388.613 -10 l 1x6e
 299.761572331 -6.10725642399 238.228954904 3.9817931902 171.481845258 3.9817931902 c 3
 122.688973152 3.9817931902 70.9130989292 -0.0653219543444 1.59 -11 c 1
 -10.116 44.205 l 1
 77.14332 68.2802480469 105.087768238 81.0056627951 108.559 114.557 c 0
 112.237456137 149.888233271 114.34375 190.515560197 114.34375 233.62318182 c 3
 114.34375 342.93116729 107.520693201 450.041231925 100.706 568.561 c 0
 98.5716043956 604.178 55.619 626.795 10.853 626.648 c 1xb6
 15 687 l 1
EndSplineSet
Position2: "cpsp-1" dx=0 dy=0 dh=50 dv=100
Substitution2: "c2pc-1" p.pcap
Substitution2: "c2sc-1" p.smcp
EndChar

StartChar: Q
Encoding: 81 81 42
Width: 785
VWidth: 1361
Flags: W
HStem: -163.882 63.646<782.321 864.163> 646.472 41.176<310.825 436.885>
VStem: 45.294 182.878<257.625 483.388> 551.828 191.466<255.96 475.739>
LayerCount: 2
Fore
SplineSet
367.677 646.472 m 3
 286.446240506 646.472 228.172 553.637926491 228.172 418.675 c 3
 228.172 239.344481897 301.421577947 70.087 418.911 70.087 c 3
 513.641165352 70.087 551.828 168.059390371 551.828 306.002 c 3
 551.828 541.599574935 466.455314176 646.472 367.677 646.472 c 3
573.82 58.851 m 1
 699.071273885 -48.9188910961 805.053121019 -100.236 876.35 -100.236 c 3
 873.41 -100.236 874.205 -100.53 872 -101.265 c 1
 873.559 -139.294 l 1
 805.310703125 -159.952533333 767.8449375 -163.882 751.294 -163.882 c 3
 622.745870786 -163.882 498.37816854 -101.7205 379.236 1.882 c 1
 179.82492 17.2845714286 45.294 166.747024415 45.294 360.706 c 3
 45.294 564.695972681 200.294 687.648 391.294 687.648 c 3
 583.294 687.648 743.294 548.918249324 743.294 362.706 c 3
 743.294 225.707014894 627.784017341 89.4585605032 573.82 58.851 c 1
EndSplineSet
Position2: "cpsp-1" dx=0 dy=0 dh=50 dv=100
Substitution2: "salt-1" Q.alt
Substitution2: "c2pc-1" q.pcap
Substitution2: "c2sc-1" q.smcp
EndChar

StartChar: R
Encoding: 82 82 43
Width: 734
VWidth: 1159
Flags: HMW
LayerCount: 2
Fore
SplineSet
244.526 372.147 m 1
 254.456776699 369.71325 266.481223301 367 281 367 c 3
 334.990937143 367 395.209 406.634558951 395.209 488.354 c 3
 395.209 521.809942258 357.92229207 642.06 268.677 642.06 c 3
 258.796546391 642.06 265.278248681 639.778005242 252.114 557.65 c 0
 242.117386197 500.139995219 240.614333333 430.404011644 244.526 372.147 c 1
12 693 m 1
 45.0903333334 692 71.5576666666 691 144.793 691 c 0
 232.825423729 691 239.902819209 707 300 707 c 0
 439.27781893 707 554.47 618.823875351 554.47 511.971 c 0
 554.47 425.043841179 460.383 352.757427381 425.116 336.118 c 1
 551.487210374 153.18158873 620.514342939 20.7824277286 743.441 18.911 c 1
 733 -33 l 1
 526.567323944 -37.6455898877 309.886 177.926268293 269.149 297.766 c 1
 270.472 297.913 257.884 300.207 258.913 300.207 c 0
 255.08672381 302.0422 252.94027619 302.3718 249.114 304.06 c 1
 253.1964 235.811804878 256.058041302 190.02383771 271.437 129.174 c 0
 284.065866667 78.1670728022 320.23 61.94 346.555 58.087 c 1
 333.967 -10 l 1
 267.652794402 -0.858262886928 235.008254252 3.94586051795 134.784678701 3.94586051795 c 3
 97.6709470415 3.94586051795 60.4423114024 0.396012128874 23 -7 c 1
 13.706 54.646 l 1
 40.6914027777 38.3112481203 71.7016111111 58.1975488722 79.971 106.851 c 1
 90.9606037201 215.617775939 95.5236239017 288.743537942 95.5236239017 360.943477088 c 3
 95.5236239017 414.450590241 92.0724922675 467.35321105 86.412 539.621 c 1
 74.8203797469 614.382039215 52.9892151899 639.403862745 12 641.089 c 1
 12 693 l 1
EndSplineSet
Position2: "cpsp-1" dx=0 dy=0 dh=50 dv=100
Substitution2: "salt-1" R.alt
Substitution2: "c2pc-1" r.pcap
Substitution2: "c2sc-1" r.smcp
EndChar

StartChar: S
Encoding: 83 83 44
Width: 575
VWidth: 1159
Flags: W
HStem: -3.118 64.793<233.427 360.839> 649.06 54.058<280.942 356.849>
VStem: 66.853 142.791<439.36 579.16> 381.327 146.526<109.796 208.775> 445.296 73.145<524.778 562.471>
LayerCount: 2
Fore
SplineSet
27.706 211.205 m 1xf0
 73.176 217.205 l 1
 71.3700878906 234.765009766 91.5028986339 199.008344638 126.058 157.35 c 0
 169.199664063 104.794932617 263.222004883 61.675 330.234 61.675 c 3
 353.182849609 61.675 381.327 106.518349609 381.327 141.06 c 3xf0
 381.327 251.521672852 260.93294302 274.163477952 173.501 324.149609375 c 0
 127.515930665 349.812208008 66.853 393.954401367 66.853 484.766 c 3
 66.853 559.807751953 112.737 703.118 308.853 703.118 c 3
 352.413569335 703.118 392.256671825 694.795537822 405.737 691.294 c 0
 417.123500513 688.452081482 446.302079365 665.265 460.06 702.147 c 1
 510.706 689.706 l 1
 482.236 602.782555665 497.642274409 632.77133268 518.441 559.147 c 0
 524.341309571 538.229888672 513.796994141 497.789460937 445.296 514.677 c 1xe8
 446.325 512.325 447.497644029 527.75305248 436.619 545.149 c 0
 403.509413085 598.420271484 350.340558594 649.06 280.942 649.06 c 3
 285.787091797 649.06 209.644 656.167894531 209.644 559.822 c 3
 209.644 476.290510742 296.215904043 474.914210387 366.031 432.673 c 0
 483.545425944 364.139069727 527.853 295.775256835 527.853 199.352 c 3
 527.853 114.547817383 472.853 -3.118 280.853 -3.118 c 3
 230.884566406 -3.118 178.423491795 7.53144927973 132.764 18 c 0
 116.317011719 21.7673417969 116.889126953 19.6203417969 98.029 -15.47 c 1
 56.853 -6.882 l 1
 57.8944443359 70.68465625 54.7712314453 90.9204101562 27.706 211.205 c 1xf0
EndSplineSet
Position2: "cpsp-1" dx=0 dy=0 dh=50 dv=100
Substitution2: "c2pc-1" s.pcap
Substitution2: "c2sc-1" s.smcp
EndChar

StartChar: T
Encoding: 84 84 45
Width: 728
VWidth: 1159
Flags: HMW
LayerCount: 2
Fore
SplineSet
125 688.441 m 0
 250.179953808 684.033542113 375.31580054 682.171572875 500.827254201 682.171572875 c 3
 548.997537478 682.171572875 597.211911473 684.233110606 645.53 684.147 c 0
 662.495894737 684.147 678.401421052 691.5234 685.824 702.588 c 1
 718.853 682 l 1
 701.933363637 627.871804878 681.38809091 567.729365853 678.971 497.062 c 1
 625.913 505.356 l 1
 631.648 519.12 628.405670858 525.84835429 631.913 543.385 c 0
 640.832468074 588.864340367 518.027 603.178 456.439 604.325 c 1
 447.457355764 491.341970573 443.694229174 380.138909824 443.694229174 266.992400997 c 3
 443.694229174 236.276581722 444.066796299 205.210198502 444.557 173.967 c 0
 446.044106407 72.442037304 448.546666667 61.876761194 523.441 61.087 c 1
 513 -7 l 1
 474.745360611 -1.66214334103 425.212355377 0.945200232948 374.874776298 0.945200232948 c 3
 266.168779143 0.945200232948 247.969467552 -3.11635527979 203 -11 c 1
 188.118 63.381 l 1
 264.973 70.0253737793 262.130880584 99.8118508245 264.973 124.027 c 0
 272.576345576 187.312852116 281.67559924 328.39206171 281.67559924 444.682412151 c 3
 281.67559924 520.609369774 277.289860322 585.299923025 264.973 606.472 c 1
 230.258106383 608.0455 198.12429511 600.463513884 162.998 592.443 c 0
 93.0531336886 577.820995367 79.3062404762 587.016807692 48.47 509.267 c 1
 -3.147 529.414 l 1
 18 582.792464286 48.66315 690.918071429 60.294 721.029 c 1
 71.824 699.588 113.310560498 688.920716786 125 688.441 c 0
EndSplineSet
Position2: "cpsp-1" dx=0 dy=0 dh=50 dv=100
Substitution2: "c2pc-1" t.pcap
Substitution2: "c2sc-1" t.smcp
EndChar

StartChar: comma
Encoding: 44 44 46
Width: 200
VWidth: 1159
Flags: W
HStem: -173.145 319.673
VStem: -0.528 197.909
LayerCount: 2
Fore
SplineSet
13.178 -173.145 m 1
 -0.528 -137.822 l 1
 33.472 -134.027 111.684215055 -94.4999708165 87.706 -39.234 c 0
 74.265 -6.911 41.4030503638 15.0155275756 12.913 29.412 c 0
 5.619 31.7943333333 1.325 42.0441666667 1.325 50.147 c 3
 1.325 58.6048571429 5.75014107079 64.6535705354 14.06 67.735 c 0
 40.795 82.176 59.6218367041 107.859948877 76.971 131.793 c 0
 80.2454444444 139.087 89.0492222223 146.528 97.853 146.528 c 3
 106.147 146.528 115.805916394 138.959698681 118.735 130.646 c 0
 130.067026316 107.352 157.563838046 85.0170539845 183.646 67.735 c 0
 190.94 64.588 197.381 58.441 197.381 50.147 c 1
 197.381 47.588 225.232 -74.882 13.178 -173.145 c 1
EndSplineSet
Position2: "cpsp-1" dx=0 dy=0 dh=7 dv=14
EndChar

StartChar: period
Encoding: 46 46 48
Width: 200
VWidth: 1159
Flags: W
HStem: -48.528 195.056<72.631 122.352>
VStem: 1.38213 196.515<22.7084 72.0731>
LayerCount: 2
Fore
SplineSet
186.22675 27.9527519531 m 0
 157.518830078 12.4546112399 132.912469727 -7.27038801877 117.87475 -36.8573759766 c 0
 114.780926688 -44.1513759766 107.045777576 -48.528 97.7631259766 -48.528 c 3
 89.4697660435 -48.528 79.7925792876 -44.1513759766 77.0281259766 -36.8573759766 c 0
 62.0330020113 -7.27038801877 40.2214606702 12.4546112399 11.5935019531 27.9527519531 c 0
 4.29950195312 30.2975980338 1.38212597656 39.6733019575 1.38212597656 46.706 c 3
 1.38212597656 55.988651599 4.29950195312 63.723800711 11.5935019531 66.8176240234 c 0
 40.2214606702 82.0755972392 62.0330020113 104.269471913 77.0281259766 133.399248047 c 0
 79.7925792876 140.693248047 89.4697660435 146.528 97.7631259766 146.528 c 3
 107.045777576 146.528 114.780926688 140.693248047 117.87475 133.399248047 c 0
 132.912469727 104.269471913 157.518830078 82.0755972392 186.22675 66.8176240234 c 0
 193.52075 63.723800711 197.897374023 55.988651599 197.897374023 46.706 c 3
 197.897374023 39.6733019575 193.52075 30.2975980338 186.22675 27.9527519531 c 0
EndSplineSet
Position2: "cpsp-1" dx=0 dy=0 dh=7 dv=14
EndChar

StartChar: dotlessi
Encoding: 305 305 50
Width: 263
VWidth: 1159
Flags: HMW
LayerCount: 2
Fore
SplineSet
200.116 185.677 m 3
 200.116 155.497922852 208.038541667 104.781921875 212.557 75.793 c 0
 214.843396023 58.2579704251 224.377375 41.882 231.793 38.735 c 0
 242.084260525 35.3992294922 250.356291667 35.6470400391 258 35.029 c 1
 252.853 -10.441 l 1
 212.421999378 -4.441 166.806077592 0.559 123.265 0.559 c 3
 89.3221875 0.559 48.5908125 -6.441 14.648 -10.441 c 1
 9.35848046875 34.0233994141 l 1
 22.0169900666 36.1715195312 41.9730210265 41.8757470703 53.089 44.764 c 0
 51.1538312639 44.2370771484 61.6526650391 52.3090908203 68.766 101.234 c 0
 70.7928828125 117.736791016 75.207 148.921327148 75.207 165.677 c 3
 75.207 185.677 71.1720732422 273.495393554 66.619 290.677 c 0
 64.472 299.795 49.2442099609 301.325 44.766 301.325 c 1
 45.648 301.325 47.853 301.741622071 30.2505 301.830375977 c 1
 21.53 351.265 l 1
 38.8657333984 350.705125977 114.599385742 376.312900391 204.822 421.824 c 1
 222.528 398.942 l 1
 220.398004883 395.581993165 217.756971679 370.180400391 216.412240234 362.540751953 c 0
 207.48371452 295.600751953 200.116 203.680625 200.116 185.677 c 3
EndSplineSet
Substitution2: "case-1" I
Substitution2: "pcap-1" i.pcap
Substitution2: "smcp-1" i.smcp
EndChar

StartChar: uniFB01
Encoding: 64257 64257 51
Width: 576
VWidth: 1159
Flags: W
HStem: -10.441 44.4644<329.585 368.354> 0.559 397.588<395.333 508.406> 340.501 51.911<235.174 365.65> 401.824 20G<477.268 535.944> 664.296 90.557<222.279 412.335>
VStem: 103.824 139.938<394.377 576.316> 105.971 124.909<72.9203 339.337 392.412 600.786> 394.853 121.203<49.9235 321.896>
LayerCount: 2
Fore
SplineSet
367.822 332.06 m 0x9d
 321.413921053 334.9954 279.141078947 337.1246 233.027 340.501 c 1
 230.88 315.636820896 230.88 293.247949937 230.88 284.971 c 1
 230.88 212.809284519 236.385626611 145.656708877 243.762 74.646 c 0
 245.875898915 53.780158982 258.827953904 42.7709134287 280.526 41.029 c 0
 288.144641746 38.882 296.958561644 38.882 304.675 39.029 c 1
 302.822 -7.147 l 1
 258.145666667 -2.147 192.705333333 -0.147 148.029 -0.147 c 1
 108.290320754 -0.147 47.3576792452 -3.147 7.619 -7.147 c 1
 6.619 39.176 l 1
 15.5161666667 39.029 24.9488842799 41.206076951 35.737 42.176 c 0
 79.1183694584 46.0313083333 84.1047617907 63.4221894491 91.089 101.646 c 0
 99.3074849684 146.087250088 105.971 203.046 105.971 257.971 c 1xbb
 105.971 275.384981681 103.824 308.015787234 103.824 340.501 c 1
 74.9490000002 338.354 47.229 331.913 18.354 329.766 c 1
 18.354 401 l 1
 47.229 398.853 74.9490000002 394.559 103.824 392.412 c 1
 103.824 435.60571875 103.824 485.444625 103.824 498.735 c 1
 103.824 604.38663981 159.743146654 656.668269908 246.94 705.147 c 0
 304.867268791 737.659686528 329.034651852 754.853 400.058 754.853 c 1
 424.611369491 754.853 510.68009091 738.7528 553.615 665.532 c 1
 551.468 623.621 527.528 611.196660156 447.559 556.799 c 1
 417.915898925 586.226483212 345.80138889 664.296 296.53 664.296 c 1
 148.028238925 664.296 246.218577375 556.881554489 243.762 503.735 c 0
 242.335210841 477.970116449 237.321 434.29590099 235.174 392.412 c 1
 277.43829139 395.2795 300.93870861 395.2795 343.203 398.147 c 1
 360.391733398 398.57098802 434.067385742 408.312457885 520.468 421.824 c 1
 538.174 398.942 l 1
 536.044004883 395.581993165 533.376706797 370.231416911 532.352240234 362.540751953 c 0
 523.42371452 295.600751953 516.056 203.680625 516.056 185.677 c 1
 516.056 155.497922852 524.715014904 104.908935979 528.35 75.793 c 0
 530.636396023 58.2579704251 540.118486438 41.3059524849 547.733 38.735 c 0
 558.024260525 35.3992294922 566.149291667 35.6470400391 573.793 35.029 c 1
 568.793 -10.441 l 1xbd
 528.361999378 -4.441 482.746077592 0.559 439.205 0.559 c 1x5d
 405.2621875 0.559 364.3838125 -6.441 330.441 -10.441 c 1
 325.004480469 34.0233994141 l 1
 337.662990067 36.1715195312 357.753129263 41.9277817315 368.882 44.764 c 0
 367.287026855 44.2370771484 382.548848231 52.0158184594 388.265 101.234 c 0
 390.291882812 123.000562585 394.853 162.729238577 394.853 184.853 c 1
 394.853 207.05524 387.973746087 303.019316203 381.824 322.882 c 0
 379.989818182 332 367.824147949 332.306608652 367.822 332.06 c 0x9d
EndSplineSet
LCarets2: 1 298
Ligature2: "liga-1" f i
EndChar

StartChar: uni0237
Encoding: 567 567 52
Width: 265
VWidth: 1159
Flags: HMW
LayerCount: 2
Fore
SplineSet
-27 -327.706 m 1
 -21.2626428571 -272.016781818 -21.6367402534 -259.584757286 11.559 -214.265 c 0
 26.0967350269 -194.249837266 38.9876645323 -163.133005763 47.648 -140 c 0
 57.795 -112.706 69.383 -11.414 69.383 96 c 3
 69.383 232.38743977 62.5097107181 253.260408223 51.913 301 c 0
 49.614429354 310.952659838 37.2635220588 318.53 17.59 318.53 c 3
 3.98702857143 318.53 -3.68650892857 319.118 -7.822 319.265 c 1
 -13.675 362.735 l 1
 63.5266901408 373.805 118.458661972 386.72 197.145 431 c 1
 217.145 406.971 l 1
 212.292 395.132653847 206.645631093 372.14232971 204.145 363 c 0
 192.506428571 319 187.851 217 187.851 196 c 3
 187.851 146.497 187.998 -14.795 187.998 -84 c 3
 187.998 -122.507509804 177.733470915 -167.270711911 164.292 -188.294 c 0
 136.557 -231.47 95.1147603757 -258.52710287 47.764 -277.323 c 0
 28.1047977324 -285.043854563 3.63135294118 -323.568838236 2.294 -335 c 1
 -27 -327.706 l 1
EndSplineSet
EndChar

StartChar: U
Encoding: 85 85 53
Width: 815
VWidth: 1159
Flags: W
HStem: -10 88.41<361.381 552.215> 630.501 58.352<8.66519 81.8846> 639.089 49.764<293.865 365.849>
VStem: 97.853 159.261<175.307 560.411> 102.853 165.702<253.026 609.525> 628.443 97.557<264.999 615.515> 628.443 90.557<148.221 565.017>
LayerCount: 2
Fore
SplineSet
9.265 688.853 m 1xc8
 46.9930929332 685.353 107.672442401 683.603 171.653 683.603 c 3
 239.847798964 683.603 311.561248491 685.353 365.849 688.853 c 1
 369.849 639.089 l 1
 317.798995687 635.333788949 266.826995419 629.112829877 268.555 541.679 c 0
 268.736677283 534.251519185 257.114 279.354746373 257.114 251.559 c 0
 257.114 208.318465753 276.966538461 169.087 301.114 144.557 c 0
 339.853156224 104.914783475 376.506709325 78.41 491.174 78.41 c 3
 519.475855796 78.41 566.911 96.615 587.207 120.646 c 0
 627.193954146 166.231068645 626.892531995 195.879838366 628.443 257 c 0xaa
 630.725671391 342.976520397 628.203758544 484.874843596 622.561 569.002 c 0
 618.546533779 637.697992219 566.343857143 647.231285714 509.356 634.795 c 1
 509.062 692 l 1
 552.512142962 687.878263908 642.702813761 684.796652821 718.796500645 684.796652821 c 3
 759.338637084 684.796652821 794.6359046 686.299374976 808.882 690 c 1
 810.735 634.942 l 1
 775.616915887 647.427939394 734.378110948 642.113136463 726 590.472 c 0xa4
 723.853 580.192466168 719.548371622 469.946268086 719 255 c 0
 718.668338862 173.399488619 690.050216547 119.496786769 648.559 74 c 0
 595.302256 15.853 517.207196 -10 402 -10 c 3
 290.07385445 -10 239.977804947 14.123459461 197.557 41.354 c 0
 137.245766234 81.06 97.853 151.694540342 97.853 209.619 c 0xb2
 97.853 237.85477323 102.738835958 530.383744988 102.853 544.679 c 0
 103.244452893 611.007435934 83.1938698389 619.764254453 4.265 630.501 c 1
 9.265 688.853 l 1xc8
EndSplineSet
Position2: "cpsp-1" dx=0 dy=0 dh=50 dv=100
Substitution2: "c2pc-1" u.pcap
Substitution2: "c2sc-1" u.smcp
EndChar

StartChar: V
Encoding: 86 86 54
Width: 841
VWidth: 1159
Flags: W
HStem: 643.383 44.4609<276.219 357.319 515.311 614.204> 678 20G<9.18857 45.0083 513.22 531.517 817.603 831.54>
VStem: 385.53 71.234<-27 59.9921>
LayerCount: 2
Fore
SplineSet
357.319 694 m 1x60
 357.319 690.632927734 357.319 667.497473633 357.319 644.236 c 1
 347.671 644.089 332.696231617 642.841124293 311.083 642.236 c 0
 255.996 640.824 273.562105549 601.575737821 282.613 584.443 c 2
 481.263 204.083 l 1
 611.944 562.532 l 2
 624.831923591 596.519712138 623.79885254 643.677 573.592 643.383 c 0xa0
 558.416 643.383 514.122 643.089 512.563 639.648 c 1
 513.563 698 l 1x60
 549.471220872 690.913116435 674.852531431 687.843940271 716.180707465 687.843940271 c 3xa0
 762.324241673 687.843940271 805.206314112 691.66969722 830 698 c 1
 835 633.06 l 1
 831.557 655 772.617 632.354 710.942 535.915 c 0
 684.368945446 502.240263956 536.817106538 220.4991586 470.147 60 c 0
 460.061948324 33.5961363713 460.764 9.176 456.764 -27 c 1
 385.53 -27 l 1
 386.824 6.882 377.81463415 21.9313078572 365.559 58.147 c 0
 325.653306898 174.747905246 232.756363968 362.823602716 105.323 568.414 c 0
 66.4614735693 638.830983324 31.207 645.265 6 640.795 c 1
 11 696 l 1
 79.0166726843 688.556145795 88.8397974971 686.071915039 119.686023744 686.071915039 c 3
 192.104124097 686.071915039 291.636392773 693.361330705 357.319 694 c 1x60
EndSplineSet
Position2: "cpsp-1" dx=0 dy=0 dh=50 dv=100
Substitution2: "c2pc-1" v.pcap
Substitution2: "c2sc-1" v.smcp
EndChar

StartChar: W
Encoding: 87 87 55
Width: 1130
VWidth: 1159
Flags: W
HStem: 633.354 61.646<10.3187 51.3685> 645.677 36.7605<821.414 889.507> 646.383 46.617<298.722 328.01 1104.04 1122.3>
VStem: 366.824 48.47<-21 55.2956> 738.648 47.47<-15 47.5273>
LayerCount: 2
Fore
SplineSet
1121 693 m 1x38
 1130.441 642.089 l 1
 1039.53 591.990000978 1028.72272633 528.035081715 941.503 310.509 c 0
 856.089 122.091 816.00861621 66.0833994141 804.824 42 c 0
 793.691561523 19.2352246094 789.374771484 8.147 786.118 -15 c 1
 738.648 -17.147 l 1
 736.730624023 12.8808183594 736.585802734 20.5681640625 719.795 59.147 c 0
 675.361839844 162.089 639.987807617 265.031 590.735 367.973 c 1
 505.627483398 219.82 433.628051429 55.8712717405 423.706 21.853 c 0
 419.176461539 2.37436363637 415.941076923 -1.49961363637 415.294 -21 c 1
 366.824 -21 l 1
 358.490888889 10.2614545455 353.987713995 51.4191217631 312.472 150.938 c 0
 240.932571429 336.694453979 141.782079001 482.585096051 136.764 490.151 c 0
 122.56810254 511.967916993 115.398290337 526.733398044 76.383 582.855 c 0
 50.9362058588 620.501480123 27.265 630.072058823 5 633.354 c 1
 11 695 l 1x98
 42 686 93.25 682 145.375 682 c 3
 197.5 682 291.792 686 326.292 693 c 1
 337.733 646.383 l 1x38
 315.29 645.236 285.408 634.55259375 285.408 578.207 c 0
 285.408 558.734698242 298.654551194 500.871463467 307.172 483.563 c 2
 454.263 189.584 l 1
 558.412 428.884 l 1
 492.568442383 570.747125 445.867529297 603.560710938 438.884 610.354 c 1
 423.178 620.443 404.501 636.501 387.53 648.383 c 1
 396.971 690 l 1
 437.377999023 684.95795996 501.309497071 682.4375 553.55191059 682.4375 c 3x58
 597.561082356 682.4375 691.810566406 685.95795996 730.909 693 c 1x38
 734.909 645.383 l 1
 730.056 645.383 720.194340821 646.273757812 716.495 645.677 c 0x58
 644.687358398 635.304917969 651.517568359 595.468701172 659.967 574.59 c 2
 812.617 199.907 l 1
 825.737 228.207 839.729287583 247.624654377 879.298 380.801 c 0
 925.356 533.872543946 939.737 653.757103516 821.414 650.118 c 1
 821.414 688 l 1
 847.838818988 684.754886093 927.735594389 682.584305724 968.652078053 682.584305724 c 3
 1015.99540112 682.584305724 1069.50477037 685.490279012 1121 693 c 1x38
EndSplineSet
Position2: "cpsp-1" dx=0 dy=0 dh=50 dv=100
Substitution2: "c2pc-1" w.pcap
Substitution2: "c2sc-1" w.smcp
EndChar

StartChar: X
Encoding: 88 88 56
Width: 761
VWidth: 1159
Flags: W
HStem: -6 45.029<267.043 331.054> -2 55.205<692.927 743.469> 645.236 39.764<13 48.4359 395.318 446.915 675.712 702> 672 20G<311.25 362.623>
LayerCount: 2
Fore
SplineSet
13 685 m 1xa0
 57.995726729 682.979465194 91.5563485075 681.795874747 121.969454011 681.795874747 c 3
 197.300407303 681.795874747 260.328845814 684.743198768 362.172 692 c 1
 363.172 647.677 l 1
 361.76 647.971 357.501398637 648.204891523 355.141 647.265 c 0
 316.377 636.53 322.568774012 605.409377727 329.965 578.296 c 1
 350.611 510.623 361.503184935 480.758227595 394.058 423.822 c 1
 405.296289063 439.952044922 423.406383925 491.020145358 430.298 512.033 c 0
 462.65 595.118 468.353977262 634.43684689 414.269 639.559 c 0
 400.340751154 640.995447952 397.4173 641.990235294 384.65 642.236 c 1
 395.385 691.735 l 1
 452.976783017 685.965582733 511.562360067 681.868707696 570.181401645 681.868707696 c 3
 614.37006491 681.868707696 658.585712798 683.831632476 702 689 c 1
 704 641.383 l 1
 683.74770909 637.853666667 670.215294977 617.949510076 580.236 551.385 c 0
 564.856799244 540.407533398 426.477858398 400.640928711 415.764 385.764 c 1
 461.078751038 332.459455985 600.842260201 167.982669592 614.325 153.085 c 0
 685.558753155 74.076743882 687.89790566 69.4072962963 753.588 53.205 c 1
 742 -2 l 1x50
 713.157233926 3.8521554354 672.607337968 6.55911179773 629.84557086 6.55911179773 c 3
 535.721503175 6.55911179773 434.818964362 1.31182235955 367.652 -8 c 1
 364.652 35.323 l 1
 374.505 34.441 381.054671608 33.6977037045 394.153 37.853 c 0
 442.77 53.294 418.046153748 118.023095986 406.888 148.027 c 0
 396.316661453 178.857875269 383.196686568 224.793540693 347.089 276.59 c 1
 308.689321429 227.263797202 290.969421507 174.177833327 280.143 139.497 c 0
 254.232 68.588 260.066595504 44.1219404496 303.319 39.029 c 0
 335.590056418 35.1511339354 332.143 32.882 330.673 33.029 c 1
 331.82 -6 l 1
 259.107481665 -2.91258870663 196.155548124 -0.619519787796 134.593382787 -0.619519787796 c 3
 96.7821846861 -0.619519787796 59.7762418928 -2.66025403784 19 -8 c 1
 17 36.47 l 1
 35.029 64.851 60.1329946403 64.6122102408 140.499 128.321 c 0
 153.897986323 138.755941104 253.524 245.538506836 318.942 324.383 c 1
 180.909 500.779765625 117.111225107 576.013171906 108.882 582.884 c 0
 50.5221155383 625.678680492 33 637.795 12 645.236 c 1
 13 685 l 1xa0
EndSplineSet
Position2: "cpsp-1" dx=0 dy=0 dh=50 dv=100
Substitution2: "c2pc-1" x.pcap
Substitution2: "c2sc-1" x.smcp
EndChar

StartChar: Y
Encoding: 89 89 57
Width: 735
VWidth: 1159
Flags: W
HStem: -11 63.793<240.941 276.834 510.897 546.935> 634.795 57.205<9.37018 47.7588 422.209 458.658>
VStem: 316.296 146.82<128.637 347.979>
LayerCount: 2
Fore
SplineSet
364.613 633.795 m 1
 364.613 633.795 348.27407798 634.029002916 342.524 632.942 c 0
 328.381683594 630.648 302.324471664 616.938423126 305.613 604.795 c 0
 350.574094123 482.290176816 410.713666666 414.438266856 413.617 410.439 c 1
 433.086155556 467.03 452.36344384 520.84029836 452.269 523.621 c 0
 472.8715 559.169222223 480.75068393 604.655536038 443.122 625.795 c 0
 432.269 631.942 422.225457031 633.942 420.209 634.795 c 1
 422.209 691 l 1
 445.367171708 687.343800294 568.314609615 682.572593564 628.046975448 682.572593564 c 3
 666.327781965 682.572593564 703.613081447 684.532048312 729 690 c 1
 727.853 625.207 l 1
 670.882 637.298714286 625.592374568 584.203035596 578.884 547.238 c 0
 525.057359709 505.970807598 486.532998291 434.904752651 463.116 365.969 c 1
 461.498384616 319.792333333 454.196451472 274.642600815 484.145 130.468 c 0
 497.520825708 69.8983902741 529.450264182 53.3005833333 553.441 53.793 c 1
 546.147 -11 l 1
 491.506748228 -3.57260574732 441.443913535 0.771590086481 391.246592974 0.771590086481 c 3
 343.282213018 0.771590086481 295.200755933 -2.83439248512 243.265 -11 c 1
 222.089 52.793 l 1
 280.512215518 59.7542809953 316.296 100.703763384 316.296 169.967 c 2
 314.59 286.53 l 1
 309.884 321.557568359 268.873177298 435.681359165 133.499 562.12 c 0
 94.9697594135 602.01865021 56.6033717949 604.926727273 4.853 634.795 c 1
 10 692 l 1
 45.1714158843 688.297745696 113.467325179 684.214750089 174.244228645 684.214750089 c 3
 211.964454466 684.214750089 333.960031205 685.787056918 356.172 690 c 1
 364.613 633.795 l 1
EndSplineSet
Position2: "cpsp-1" dx=0 dy=0 dh=50 dv=100
Substitution2: "c2pc-1" y.pcap
Substitution2: "c2sc-1" y.smcp
EndChar

StartChar: Z
Encoding: 90 90 58
Width: 710
VWidth: 1159
Flags: W
HStem: -4.294 60.499<281.606 438.118> 2.147 40.764<29 47.531> 669.588 20G<655.724 667.552>
LayerCount: 2
Fore
SplineSet
6.265 526.296 m 1x60
 80.8591730769 664.147461539 26.7154285714 714.735 88.617 723.588 c 1
 99.2717101604 704.512453125 110.201578461 693.04759061 123.354 689.588 c 0
 156.446101423 680.685617192 524.733893974 677.763973978 634.265 685.827203125 c 0
 645.155583287 686.600709388 653.330628359 688.103211354 658.118 689.588 c 1
 670.118 664.147 l 1
 651.838242188 640.099609375 l 0
 263.201 60.499 l 1
 265.352231441 57.058 267.531768559 56.205 269.683 56.205 c 0
 450.743138207 56.205 647.147 140.791 668.706 197.439 c 1
 700.294 176.557 l 1
 661 63.1905 648.256 18.3422142857 621.706 -32.735 c 1
 583.251652174 -21.8624444444 585.379653651 -6.65634181855 503 -4.294 c 0xa0
 352 7.34209568142e-016 108 17.176 29 2.147 c 1
 13.265 42.911 l 1
 49.1089689441 54.2693861386 72.7144538677 89.9550282586 91.913 118.294 c 0
 202.850846875 281.72836621 315.7635625 450.636582031 416.712 621.942 c 0
 418.418 625.942 l 1
 187.47 624.795 l 2
 138.308431271 624.562981578 50.8044637682 495.439167172 43.441 501.414 c 1
 6.265 526.296 l 1x60
EndSplineSet
Position2: "cpsp-1" dx=0 dy=0 dh=50 dv=100
Substitution2: "c2pc-1" z.pcap
Substitution2: "c2sc-1" z.smcp
EndChar

StartChar: parenleft
Encoding: 40 40 59
Width: 383
VWidth: 1515
Flags: W
VStem: 37 75.528<53.9198 375.539>
LayerCount: 2
Fore
SplineSet
342.735 718.265 m 1
 375.205 668.354 l 1
 198.819586205 583.276535058 112.528 436.706982417 112.528 214.441 c 3
 112.528 -11.3655311235 181.51963594 -132.795788219 373.205 -237.325 c 1
 346.47 -296.412 l 1
 149.460655145 -187.803687056 37 -15.5059933485 37 214.441 c 3
 37 442.82923873 150.781322481 617.00489396 342.735 718.265 c 1
EndSplineSet
Position2: "cpsp-1" dx=0 dy=0 dh=50 dv=100
Position2: "'case' vertical ajustments for all-caps-1" dx=0 dy=125 dh=0 dv=0
EndChar

StartChar: zero
Encoding: 48 48 63
Width: 502
VWidth: 1159
Flags: W
HStem: 7.882 44.47<231.691 306.908> 337.354 49.764<201.98 279.989>
VStem: 61.882 129.203<109.753 277.602> 315.238 138.644<107.789 280.761>
LayerCount: 2
Fore
SplineSet
228.265 337.354 m 3
 199.66887727 337.354 191.085 291.523295326 191.085 265.468 c 3
 191.085 154.173282939 204.14044027 52.352 280.47 52.352 c 3
 305.088208536 52.352 315.238 85.5769675918 315.238 126.797 c 3
 315.238 244.945006107 307.198433333 337.354 228.265 337.354 c 3
260.882 387.118 m 3
 367.004986155 387.118 453.882 300.013967252 453.882 194 c 3
 453.882 91.047320912 372.696184649 7.882 261.882 7.882 c 3
 150.823828036 7.882 61.882 91.8421181174 61.882 194 c 3
 61.882 297.443916371 153.634102805 387.118 260.882 387.118 c 3
EndSplineSet
Substitution2: "'zero' Slashed Zero lookup 22-1" zero.alt
Substitution2: "dnom-1" zero.denom
Substitution2: "numr-1" zero.numerator
Substitution2: "lnum-1" zero.proportionallining
Substitution2: "tnum-1" zero.tabulartext
EndChar

StartChar: one
Encoding: 49 49 64
Width: 371
VWidth: 1159
Flags: W
HStem: 6.882 28.147<64.383 89.8924 284.813 324.675> 363.265 21.853<74.383 111.384> 373.265 21.853<291.157 318.528>
VStem: 145.383 103.439<74.6198 340.155>
LayerCount: 2
Fore
SplineSet
74.383 385.118 m 1xd0
 139.101648289 381.003446478 249.803554772 381.955765172 318.822 395.118 c 1
 318.528 373.265 l 1xb0
 268.05652976 360.7359 269.133821865 341.930074129 263.851 318.971 c 0
 261.812651367 310.539912 248.822 245.901953 248.822 200 c 3
 248.822 149.887367 261.76050199 74.923165837 263.851 70.617 c 0
 277.235617977 39.0103495935 336.346382023 31.500849963 324.675 35.029 c 1
 324.822 6.882 l 1
 235.830322418 13.3595390625 153.655259921 14.1720390625 64.383 6.882 c 1
 61.236 32.882 l 1
 39.55 33.982148718 97.2337039835 40.4040358288 123.913 74.617 c 0
 131.160697707 83.9340422656 145.383 103.6912324 145.383 200 c 3
 145.383 291.699722424 136.380660437 311.691732389 133.501 316.971 c 0
 121.110571429 339.285222223 129.377739143 359.056373444 72.236 363.265 c 1
 74.383 385.118 l 1xd0
EndSplineSet
Substitution2: "dnom-1" one.denom
Substitution2: "numr-1" one.numerator
Substitution2: "tnum-1" one.tabulartext
Substitution2: "lnum-1" one.proportionallining
EndChar

StartChar: two
Encoding: 50 50 65
Width: 445
VWidth: 1159
Flags: W
HStem: 4.294 111.027<174.909 358.738> 371.737 86.263<117.43 194.007>
VStem: 208.385 118.468<269.307 357.348>
LayerCount: 2
Fore
SplineSet
58.294 367 m 1
 84.4526376079 414.314453125 123.143002827 458 190 458 c 1
 265.36831884 458 326.853 405 326.853 335 c 3
 326.853 251.894486989 187.387492753 134.103962825 174.909 115.321 c 1
 339.147 120.615 l 2
 393.509522673 120.560469668 416.740379121 136.276043478 418.441 148.323 c 1
 439.588 130.176 l 1
 439.588 130.176 373.261419924 30.3532630854 365.412 -23.617 c 1
 332.264415301 10.735 259.150096578 3.33035662865 187 4.294 c 0
 97 5.441 38 1.147 33 1.147 c 1
 27 18 l 1
 35.062583691 71.9475602606 208.385 152.670466469 208.385 313.53 c 3
 208.385 350.4144875 175.602758242 371.737 144.913 371.737 c 1
 111.961666667 371.737 92.6206666667 363.089153847 78.294 353 c 1
 58.294 367 l 1
EndSplineSet
Substitution2: "dnom-1" two.denom
Substitution2: "numr-1" two.numerator
Substitution2: "tnum-1" two.tabulartext
Substitution2: "lnum-1" two.proportionallining
EndChar

StartChar: three
Encoding: 51 51 66
Width: 388
VWidth: 1159
Flags: W
HStem: -227.118 29.441<88.9009 102.296> 119.706 31.735<89.559 110.682> 363.002 84.116<136.003 231.452>
VStem: 198.149 116.321<276.813 358.991> 210.855 127.056<-73.8851 70.4094>
LayerCount: 2
Fore
SplineSet
79.53 -197.677 m 1xe8
 182.383931687 -141.31018408 210.855 -120.432358208 210.855 -23.058 c 3xe8
 210.855 56.7211666666 170.19975 110.135833334 136.677 130.118 c 1
 133.186777778 130.118 107.882666666 118.7884 89.559 119.706 c 1
 77.118 151.441 l 1
 124.893394737 167.523065573 198.149 218.449606557 198.149 314.942 c 3
 198.149 359.93728169 168.966499999 363.002 157.942 363.002 c 3
 120.248475309 363.002 114.888249158 353.450575 86.118 344.795 c 1
 76.706 367.383 l 1
 88.827741833 408.983095891 168.33469147 447.118 201.029 447.118 c 3
 261.874627273 447.118 314.47 403.99490909 314.47 341.706 c 3xf0
 314.47 273.842176745 225.181019802 191.631209303 221.499 188.058 c 1
 269.603132231 174.182111994 337.911 103.609409638 337.911 6 c 3
 337.911 -137.7561 140.598 -220.318725 91.824 -227.118 c 1
 79.53 -197.677 l 1xe8
EndSplineSet
Substitution2: "dnom-1" three.denom
Substitution2: "numr-1" three.numerator
Substitution2: "tnum-1" three.tabulartext
Substitution2: "lnum-1" three.proportionallining
EndChar

StartChar: four
Encoding: 52 52 67
Width: 463
VWidth: 1159
Flags: W
HStem: -7 21G<405.436 428.791> 0 71.881<72.205 230.766 334.205 416.428>
VStem: 230.766 103.439<-149.123 0>
LayerCount: 2
Fore
SplineSet
232.913 71.881 m 1x60
 232.913 131.230964439 247.547824219 196.662106817 228.619 236.7815 c 1
 228.619 236.7815 137.171799297 124.104319344 72.205 71.881 c 1
 232.913 71.881 l 1x60
347.441 414.088 m 1
 348.977632402 391.399117188 353.441491735 373.161615083 351.381 347.088 c 0
 342.793 241.697135522 341.740466797 190.812564691 334.205 71.3075 c 1
 358.913313182 67.0879220911 405.640771353 79.314553577 438.294 110.235 c 1
 438.294 110.235 454.6143125 103.57484375 459.294 101.235 c 1
 459.294 101.235 436.846974261 35.211237519 420.735 -7 c 1xa0
 390.137567104 3.96702075196 358.726949438 2.21622778321 334.205 2.147 c 1
 331.941290039 -22.4358183594 333.827738281 -141.313663086 369.88 -167.4565 c 1
 299.86512 -194.833517123 260.369546667 -222.793023973 235.236 -252.5 c 1
 235.236 -252.5 207.754165799 -231.410926192 203.648 -222.03 c 1
 240.963676471 -197.735152034 228.818612305 -49.4287802734 230.766 0 c 1
 91.1016351299 0 47.7739083665 1.2024117647 1.559 -20.441 c 1
 1.559 -20.441 -16.9808805804 -0.226207763678 -22.882 5.294 c 1
 -7.47296582467 21.5128410273 301.084917997 375.083377439 322.794 430.328804688 c 1
 347.441 414.088 l 1
EndSplineSet
Substitution2: "dnom-1" four.denom
Substitution2: "numr-1" four.numerator
Substitution2: "tnum-1" four.tabulartext
Substitution2: "lnum-1" four.proportionallining
EndChar

StartChar: five
Encoding: 53 53 68
Width: 362
VWidth: 1159
Flags: W
HStem: 273.738 124.762<122 292.494>
VStem: 94.853 26.029<216.353 393.5> 209.296 107.733<-40.5446 66.716>
LayerCount: 2
Fore
SplineSet
94.853 393.5 m 1
 164.57053679 395.450195312 256.924849167 395.340485492 273.617 398.5 c 0
 293.620617375 402.759765625 303.995191838 428.610351562 313 448.5 c 1
 313 448.5 336.013712239 437.795143695 341.588 435.647 c 1
 308.583334761 386.044314316 295.124633647 271.782234703 279.617 273.738 c 0
 246.436540888 276.904070312 189.405470541 270.738 122 270.738 c 1
 122 270.738 121.372489746 240.364390358 120.882 216.353 c 1
 206.161269231 225.102884616 317.029 181.034548643 317.029 48.5 c 3
 317.029 -96.850183364 152.895727273 -208.215647059 39.265 -217.294 c 1
 39.265 -217.294 39.7997441406 -184.582312927 36.118 -177.265 c 1
 107.777862069 -181.554701422 209.296 -106.747859389 209.296 5.06 c 3
 209.296 52.6519699708 174.932674286 115.788999999 61.824 104.973 c 1
 74.37502 171.877811594 90.043151875 287.959013114 94.853 393.5 c 1
EndSplineSet
Substitution2: "dnom-1" five.denom
Substitution2: "numr-1" five.numerator
Substitution2: "tnum-1" five.tabulartext
Substitution2: "lnum-1" five.proportionallining
EndChar

StartChar: six
Encoding: 54 54 69
Width: 487
VWidth: 1159
Flags: W
HStem: -3.118 53.764<194.428 331.375> 300.501 56.617<253.412 293.192>
VStem: 74.441 127.056<145.002 344.672> 334.855 107.586<97.1017 244.704>
LayerCount: 2
Fore
SplineSet
377.029 624.265 m 1
 377.029 624.265 385.242861328 611.840536134 393.617 600.118 c 1
 264.695979021 523.413517073 201.497 434.173195806 201.497 278.41 c 3
 201.497 162.235842808 247.570640559 50.646 307.058 50.646 c 3
 330.136911894 50.646 334.855 65.6232781572 334.855 100.708 c 3
 334.855 217.20232132 304.529759261 300.501 253.412 300.501 c 3
 254.001390705 300.501 254.145 302.853 254.791 306.087 c 1
 249.849 346.468 l 1
 261.199848911 352.732561127 289.480775423 357.118 324.263 357.118 c 3
 384.151232519 357.118 442.441 270.756423629 442.441 178 c 3
 442.441 71.6577484563 339.289290159 -3.118 260.441 -3.118 c 3
 128.414848199 -3.118 74.441 138.505928536 74.441 214 c 3
 74.441 405.085738252 200.349760398 567.065225532 377.029 624.265 c 1
EndSplineSet
Substitution2: "dnom-1" six.denom
Substitution2: "numr-1" six.numerator
Substitution2: "tnum-1" six.tabulartext
Substitution2: "lnum-1" six.proportionallining
EndChar

StartChar: seven
Encoding: 55 55 70
Width: 420
VWidth: 1159
Flags: W
HStem: 381.118 20G<432.271 439.323>
VStem: 72.029 24<408.333 429.294>
LayerCount: 2
Fore
SplineSet
96.029 430.029 m 1
 96.3058666667 406.164928362 122.196301444 397.466553479 129.029 396.824 c 0
 249.944962596 386.244154297 425.218727273 392.53 439.323 401.118 c 1
 439.323 401.118 443.771108397 387.345138672 450.47 378.971 c 1
 394.971 351.265 189.439 -65.474 193.439 -165.412 c 1
 193.439 -165.412 117.002789062 -173.206752929 65.089 -174.882 c 1
 159.224454419 -32.3099257733 216.604697478 59.0895830305 304.679 236.71 c 0
 311.253078778 249.950196688 300.377804339 268.753048951 284.356 271.915 c 0
 233.54107601 282.762988281 202.509895323 288.948675942 150.029 280.503 c 0
 71.5838249963 269.668012234 64.9501053187 256.789283256 42.559 217.621 c 1
 42.559 217.621 23.2217832031 226.56660254 9.824 229.915 c 1
 17.3044347826 245.342957746 63.8329055327 383.9220981 72.029 429.294 c 1
 96.029 430.029 l 1
EndSplineSet
Substitution2: "dnom-1" seven.denom
Substitution2: "numr-1" seven.numerator
Substitution2: "tnum-1" seven.tabulartext
Substitution2: "lnum-1" seven.proportionallining
EndChar

StartChar: eight
Encoding: 56 56 71
Width: 468
VWidth: 1159
UnlinkRmOvrlpSave: 1
Flags: W
HStem: -0.118 44.323<200.747 313.027> 587.236 36.882<192.169 259.609>
VStem: 76.47 113.027<117.429 222.992> 107.47 74.969<460.966 554.926> 297.766 93.704<428.122 548.201> 319.178 107.292<79.2133 202.582>
LayerCount: 2
Fore
SplineSet
219.853 587.236 m 3xe8
 208.246383622 587.236 182.439 581.095784629 182.439 526.735 c 3
 182.439 389.858319336 426.47 328.947822727 426.47 155 c 3xd4
 426.47 64.0527799917 347.141939254 -0.118 236.47 -0.118 c 3
 165.024451134 -0.118 76.47 51.8614071073 76.47 147.911 c 3
 76.47 306.572295412 297.766 324.696951071 297.766 473.706 c 3
 297.766 504.069646056 274.997904404 587.236 219.853 587.236 c 3xe8
249.911 624.118 m 3
 310.544922568 624.118 391.47 602.061792418 391.47 497 c 3
 391.47 360.986912132 189.497 347.50444921 189.497 194.793 c 3xe8
 189.497 125.903194453 252.053614414 44.205 289.704 44.205 c 3
 298.658330232 44.205 319.178 52.9617658248 319.178 104.325 c 3
 319.178 162.334937267 291.173247745 236.112576212 257.064057616 267.095375977 c 0
 182.803940806 333.180204062 107.47 396.483140338 107.47 484 c 3
 107.47 582.440535295 209.682915237 624.118 249.911 624.118 c 3
EndSplineSet
Substitution2: "dnom-1" eight.denom
Substitution2: "numr-1" eight.numerator
Substitution2: "lnum-1" eight.proportionallining
Substitution2: "tnum-1" eight.tabulartext
EndChar

StartChar: uniFB00
Encoding: 64256 64256 73
Width: 642
VWidth: 1159
Flags: W
HStem: -7.147 21G<7.18725 27.4883 606.787 637.623> -0.147 41.176<9.49711 78.424 330.47 363.24 529.86 633.986> 382.147 20G<18.354 32.7915 618.995 640.058> 634.59 90.557<224.117 411.064> 664.296 90.557<506.97 728.178>
VStem: 105.971 124.909<72.9203 341.648> 388.53 125.203<71.4621 341.648 393.559 579.832>
LayerCount: 2
Fore
SplineSet
386.383 393.559 m 1x36
 386.383 430.695125 386.677 473.5445 386.677 484.971 c 1
 386.677 522.351547396 392.305001089 553.913721935 403.194210937 581.109918946 c 1
 379.127089786 599.296257727 334.20790952 634.59 296.383 634.59 c 1
 151.850238925 634.59 249.923691693 527.356325735 244.056 470.354 c 1
 242.482210841 452.305829086 237.321 422.065019802 235.174 393.559 c 1
 272.116220038 397.115782875 305.890676012 397.88797873 334.572700196 400.050669922 c 1
 355.144918807 401.820456605 359.630269956 395.442526335 386.383 393.559 c 1x36
507.087 690.735 m 1
 514.714265625 696.083091797 521.619042706 700.586594154 529.793 705.147 c 0
 587.720268791 737.659686528 618.061651852 754.853 686.586 754.853 c 1
 700.930775701 754.853 757.116 749.588 784.41 725.294 c 1
 782.263 683.383 758.029 670.958660156 678.06 616.561 c 1
 660.208932617 628.989537109 614.729592593 664.296 579.236 664.296 c 1
 434.703238925 664.296 531.743698547 552.341000733 526.615 489.971 c 1
 525.041210841 467.442157232 520.174 429.832821782 518.027 393.559 c 1
 560.152165562 397.853 597.932834438 397.853 640.058 402.147 c 1
 640.058 330.913 l 1
 597.475473684 335.207 558.462526316 337.354 515.88 341.648 c 1
 513.733 310.107253733 513.733 281.77399115 513.733 271.207 c 1
 513.733 203.767661088 519.238626611 141.015360715 526.615 74.646 c 0
 528.728898915 53.780158982 541.680953904 42.7709134287 563.379 41.029 c 0
 588.911694173 38.882 612.887383563 38.882 638.673 39.029 c 1
 636.82 -7.147 l 1xae
 576.75475 -2.147 490.94725 -0.147 430.882 -0.147 c 3
 396.313288101 -0.147 369.428320319 -0.923710763903 330.47 -6 c 1
 330.47 -6 328.056890708 31.5608578908 325.649544922 43.1277734375 c 1
 331.777661449 42.8550401005 338.23277978 41.5249458532 344.971 42.176 c 0
 358.493662951 43.7373083333 367.047875654 63.9464102539 373.942 101.646 c 0
 382.160484968 146.087250088 388.53 203.046 388.53 257.971 c 1
 388.53 275.627290987 386.383 308.71130851 386.383 341.648 c 1
 357.950275306 339.64609278 356.209656639 330.693383183 333.55563379 333.030083008 c 1
 305.699134025 328.757246842 269.914370456 338.129976739 233.027 341.648 c 1
 230.88 310.107253733 230.88 281.77399115 230.88 271.207 c 1
 230.88 203.767661088 236.385626611 135.6019495 243.762 74.646 c 0
 246.044809557 53.7745007914 261.384568606 41.6165910961 283.967 41.029 c 0
 287.252608856 40.9533570371 292.805814955 41.5043008935 295.94 41.7430439453 c 1
 290.205 30.2436892016 290.499 -7 290.499 -7 c 1
 253.642984782 -0.843220212425 195.490898501 -0.147 148.029 -0.147 c 3x66
 108.291385258 -0.147 47.3576792452 -3.147 7.619 -7.147 c 1xa6
 6.619 39.176 l 1
 15.5161666667 39.029 24.9488842799 41.206076951 35.737 42.176 c 0
 79.1183694584 46.0313083333 84.1047617907 63.4221894491 91.089 101.646 c 0
 99.3074849684 146.087250088 105.971 203.046 105.971 257.971 c 1
 105.971 275.627290987 103.824 308.71130851 103.824 341.648 c 1
 74.9490000002 339.501 47.229 333.06 18.354 330.913 c 1
 18.354 402.147 l 1
 47.229 400 74.9490000002 395.706 103.824 393.559 c 1
 103.824 387.826 103.824 467.118 103.824 465.354 c 1
 103.824 571.00563981 156.950146654 625.051269908 246.94 675.441 c 0
 304.867268791 707.953686528 334.620651852 725.147 403.145 725.147 c 1
 418.983658832 725.147 475.545339548 719.872849286 507.087 690.735 c 1
EndSplineSet
Substitution2: "salt-1" uniFB00.alt
LCarets2: 1 311
Ligature2: "liga-1" f f
EndChar

StartChar: question
Encoding: 63 63 74
Width: 378
VWidth: 1159
Flags: W
HStem: -48.528 195.056<90.631 140.352> 479.758 156.636<77.6393 200.865> 679.424 20G<43.9092 70.5499>
VStem: 19.3821 196.515<22.7084 72.0731> 25.6824 28.6116<673.826 699.424> 107.706 18<191.882 216.252> 270.559 30.441<392.124 451.386>
LayerCount: 2
Fore
SplineSet
38 482.932975976 m 1xee
 42.1802742632 511.358066769 43.8642755153 535.64852187 43.8642755153 556.400935642 c 1
 43.8642755153 655.267497474 25.6823878414 675.506593699 25.6823878414 692.91262815 c 1
 25.6823878414 704.403191381 33.5243478928 697.769692033 54.294 699.4236 c 1
 86.8058904347 635.11093617 93.0883518709 636.3946 123.764 636.3946 c 3
 206.086837676 636.3946 301 560.173345468 301 444.800224024 c 3
 301 292.175691526 227.520335616 271.22661373 217.88 266.388224024 c 0
 160.66927409 238.624224023 131.293001318 231.463721948 125.706 191.882 c 1
 125.706 191.882 112.492236 190.681775977 107.706 190.681775977 c 1
 100.785409726 228.328682291 94.5552464348 260.124084327 94.5552464348 291.068231337 c 3
 94.5552464348 345.474440797 102.680239786 413.73202575 159.528 412.061224024 c 1
 178.259126586 409.987201024 270.559 348.787271092 270.559 425.477224024 c 3
 270.559 463.675096711 213.174725048 479.758279406 72.9218889099 479.758279406 c 3
 62.8596716532 479.758279406 51.3421839314 480.774315553 38 482.932975976 c 1xee
EndSplineSet
Refer: 48 46 N 1 0 0 1 18 0 2
Position2: "cpsp-1" dx=0 dy=0 dh=50 dv=100
Substitution2: "smcp-1" question.smcp
Substitution2: "pcap-1" question.pcap
EndChar

StartChar: exclam
Encoding: 33 33 75
Width: 266
VWidth: 1159
Flags: W
HStem: -48.528 195.056<95.631 145.352>
VStem: 24.3821 196.515<22.7084 72.0731> 95.236 69.087<210.147 369.289>
LayerCount: 2
Fore
SplineSet
95.236 210.147 m 1xa0
 95.236 339.686783951 90.942 437.339851852 75.913 533 c 0
 67.325 580.891219 15.797 605.346578 20.091 656.294 c 1
 193.998 677.764 258.791 737.88 269.526 671.323 c 1
 235.174 632.42023461 239.468 574.547045847 226.586 533 c 0
 202.969 408 164.323 342 164.323 208 c 1
 95.236 210.147 l 1xa0
EndSplineSet
Refer: 48 46 N 1 0 0 1 23 0 2
Substitution2: "pcap-1" exclam.pcap
Substitution2: "smcp-1" exclam.smcp
Position2: "cpsp-1" dx=0 dy=0 dh=50 dv=100
EndChar

StartChar: paragraph
Encoding: 182 182 76
Width: 591
VWidth: 1159
UnlinkRmOvrlpSave: 1
Flags: W
HStem: -3.412 21G<364.364 466.26> 661 20G<374.615 432.581>
VStem: 74.5974 237.84<157.98 436.746> 366.615 54.058<69.617 406.634> 374.615 58.352<318.219 663.824>
LayerCount: 2
Fore
SplineSet
374.615 663.824 m 1xe8
 432.967 681 l 1xe8
 420.673 43.853 l 1
 366.615 69.617 l 1xf0
 374.615 663.824 l 1xe8
557.294 736.412 m 1
 559.294 645.855 l 1
 526.816767443 645.579125 399.708615292 657.504019577 359.791 641.441 c 0
 316.115836039 619.392867794 312.437 606.260521592 312.437 192.652 c 3
 312.437 123.3072 347.720975168 101.852347016 335.174 93.588 c 0
 337.110937691 82.8398365886 479.139946262 67.823476671 479.323 84.998 c 1
 462.441 -3.412 l 1
 266.287861847 40.6077546161 228.085823895 75.025288985 174.735 137.882 c 0
 121.902067961 202.453660377 98.2615131485 283.392730784 80.911 345.294 c 0
 77.7692963058 356.444830226 74.5973671875 365.548976023 74.5973671875 374.478025391 c 3
 74.5973671875 380.258829718 76.9720385517 388.699804691 79.911 396.706 c 0
 108.587538461 474.359232557 156.239322367 585.502753329 253.882 653.559 c 0
 354.362597402 723.589511905 557.294 736.412 557.294 736.412 c 1
EndSplineSet
Position2: "cpsp-1" dx=0 dy=0 dh=50 dv=100
EndChar

StartChar: ampersand
Encoding: 38 38 78
Width: 676
VWidth: 1159
Flags: W
HStem: -4.118 94.851<131.471 319.856> 1.882 66.6777<514.651 614.537> 439.895 48.0762<615.633 675.395>
VStem: 17 127.056<155.698 272.719> 81 54.058<483.559 546.793>
LayerCount: 2
Fore
SplineSet
184.2215 326.049248047 m 1x30
 158.984820284 311.342848815 144.056 278.970635866 144.056 266.468 c 3
 144.056 147.602869593 190.944403764 90.733 291.321 90.733 c 3
 320.896796315 90.733 338.220516861 112.774486003 352.1635 121.225248047 c 1
 280.443 299.559 218.904754727 311.882455378 184.2215 326.049248047 c 1x30
155.1345 556.608248047 m 1
 123.566090863 556.608248047 135.058 537.031 135.058 546.793 c 3x28
 135.058 474.588142134 195.248900522 447.862509854 234.7495 414.312248047 c 1
 250.7773362 431.659599116 258.6045 443.133923582 258.6045 463.784248047 c 3
 258.6045 474.876127719 241.100804298 556.608248047 155.1345 556.608248047 c 1
675.3955 439.894751953 m 1
 617.681817803 439.894751953 597.717232798 400.963233563 558.559 348.474 c 0
 509.94091577 285.817498086 482.600424911 270.52773713 450.8675 198.664248047 c 1
 494.117609259 84.2980669128 536.108626424 68.5596881727 562.547699115 68.5596881727 c 3
 610.3681386 68.5596881727 618.204064382 88.7162620185 631.824 130.176 c 1
 673.147 113.735 l 1
 648.320548283 45.4354010785 633.666868225 1.882 518.53 1.882 c 3x68
 476.274459495 1.882 408.764038961 16.6243735168 383.06 69.002 c 1
 357.942 34.414 312.871856699 -4.118 199 -4.118 c 3
 63.9419433247 -4.118 17 107.770720296 17 172 c 3xb0
 17 260.597690988 79.6959177586 329.149759443 151.2215 350.931248047 c 1
 112.918776952 382.42973305 81 435.73432701 81 506 c 3
 81 588.24811729 156 618.283771955 231 644.971 c 1
 325.343485772 612.380143411 364.1905 560.276153046 364.1905 476.666248047 c 3
 364.1905 478.173341687 290.793984218 411.94156981 278.9255 393.724248047 c 1
 352.934180593 365.107866114 392.450024368 313.361890113 423.412 248.116 c 1
 451.733265832 298.493143452 505.914128102 391.535476743 507.648 400.561 c 0
 517.47508961 446.723566086 474.009029429 476.085787388 454.2215 484.658751953 c 1
 470.383 528.441 l 1
 524.352694614 506.113001 618.158443717 486.575285 682.41 487.971 c 1
 675.3955 439.894751953 l 1
EndSplineSet
Substitution2: "pcap-1" ampersand.pcap
Substitution2: "smcp-1" ampersand.smcp
Position2: "cpsp-1" dx=0 dy=0 dh=50 dv=100
EndChar

StartChar: quotesingle
Encoding: 39 39 79
Width: 200
VWidth: 1159
Flags: W
HStem: 438.818 267.764<66.383 133.911>
VStem: 29.207 141.88<578.82 706.582> 66.383 67.528<438.818 597.33>
LayerCount: 2
Fore
SplineSet
29.207 706.582224023 m 1xc0
 171.087 706.582224023 l 1
 169.714143428 558.512222023 137.450686286 634.912322024 133.911 438.818224023 c 1
 66.383 438.818224023 l 1xa0
 62.6794737714 634.648241024 30.7861833714 558.847154023 29.207 706.582224023 c 1xc0
EndSplineSet
Position2: "cpsp-1" dx=0 dy=0 dh=7 dv=14
EndChar

StartChar: bracketleft
Encoding: 91 91 85
Width: 246
VWidth: 1515
Flags: W
HStem: -236.882 43.323<178.874 219> 682.706 41.176<182.886 219>
VStem: 37 71.234<-174.236 661.236>
LayerCount: 2
Fore
SplineSet
108.234 661.236 m 1
 108.234 -174.236 l 1
 219 -193.559 l 1
 219 -236.882 l 1
 37 -236.882 l 1
 37 723.882 l 1
 219 723.882 l 1
 219 682.706 l 1
 108.234 661.236 l 1
EndSplineSet
Position2: "cpsp-1" dx=0 dy=0 dh=50 dv=100
Position2: "'case' vertical ajustments for all-caps-1" dx=0 dy=90 dh=0 dv=0
EndChar

StartChar: asterisk
Encoding: 42 42 87
Width: 362
VWidth: 1159
Flags: W
LayerCount: 2
Fore
SplineSet
188.005524049 526.031361538 m 1
 159.74604487 456.381608033 191.99768735 431.897990632 159.670434997 368.951423407 c 1
 110.289434997 360.363423407 60.778140129 416.855967532 50.043140129 455.501967532 c 1
 93.4913501703 510.351528903 120.805183473 485.9754998 170.259234455 534.489913332 c 1
 96.0998173914 536.035279287 84.9992626214 501.556664387 14.6930237597 509.697776147 c 1
 -11.0709762403 559.078776147 33.2999065161 622.671510662 59.0639065161 641.994510662 c 1
 126.644932718 620.858942613 105.903544494 586.940434251 172.757621764 554.765470554 c 1
 154.098149611 620.038600593 114.67971474 616.738334215 104.558494122 694.271425747 c 1
 136.763494122 728.623425747 212.38804552 715.585500006 246.74004552 689.821500006 c 1
 243.643754363 613.426342559 208.044363584 620.624910203 194.586407588 557.146391612 c 1
 249.022028807 597.162963581 240.185135248 631.909359733 304.885511306 663.618773317 c 1
 339.237511306 648.589773317 362.825910535 585.899210047 343.502910535 530.077210047 c 1
 270.862416523 508.918518152 267.935471126 546.383034926 203.695052409 537.742382654 c 1
 259.450295605 494.797123256 287.624818252 517.490018146 341.198534375 463.317342578 c 1
 336.904534375 420.377342578 273.817341862 387.057303878 224.436341862 387.057303878 c 1
 182.349042357 451.849890822 218.460167531 468.139128718 188.005524049 526.031361538 c 1
EndSplineSet
EndChar

StartChar: uniE2A2
Encoding: 58018 58018 90
Width: 222
VWidth: 1159
Flags: W
HStem: 735.556 176.953
VStem: 26.035 246.569<797.696 800.665>
LayerCount: 2
Fore
SplineSet
26.0350361328 785.995062501 m 1
 75.1384277344 827.406591796 157.32127832 878.305598633 211.424726563 912.50943457 c 1
 211.013442383 912.944118163 252.642458008 861.229107421 272.604146484 797.695823242 c 1
 208.665371094 794.563213867 124.506304688 772.329885742 38.7455478516 735.556373047 c 1
 26.0350361328 785.995062501 l 1
EndSplineSet
EndChar

StartChar: acutecomb
Encoding: 769 769 92
Width: 0
VWidth: 1159
Flags: W
HStem: 419.866 239.874
VStem: -237.606 194.852
LayerCount: 2
Fore
SplineSet
-237.605817 452.782875 m 1
 -217.277369187 513.895793495 -174.551091625 601.506993 -146.752068 659.739796 c 1
 -147.291827801 659.850850364 -89.0110291828 642.472281656 -42.7541977 603.27314 c 1
 -93.2353843594 564.17001439 -151.119203859 498.27051968 -203.432327 419.865797 c 1
 -237.605817 452.782875 l 1
EndSplineSet
EndChar

StartChar: uni0302
Encoding: 770 770 93
Width: 0
VWidth: 1159
Flags: W
HStem: 421.453 185.258
VStem: -308.243 221.486
LayerCount: 2
Fore
SplineSet
-86.75725 435.5706 m 1
 -105.697224023 421.453448047 l 1
 -196.9265 481.073532453 l 1
 -289.302775976 421.453448047 l 1
 -308.24275 435.5706 l 1
 -216.26015 606.7118 l 1
 -178.73985 606.7118 l 1
 -86.75725 435.5706 l 1
EndSplineSet
EndChar

StartChar: gravecomb
Encoding: 768 768 94
Width: 0
VWidth: 1159
Flags: W
HStem: 424.641 239.872
VStem: -360.983 194.848
LayerCount: 2
Fore
SplineSet
-166.135902 457.557803 m 1
 -200.307245 424.640725 l 1
 -252.620368141 503.04330068 -310.504187641 568.943812595 -360.983442 608.048068 c 1
 -314.685904786 647.263971351 -256.665527191 664.680547027 -256.989651 664.512577 c 1
 -229.188480375 606.281921 -186.466496812 518.6718857 -166.135902 457.557803 c 1
EndSplineSet
EndChar

StartChar: uniE2A3
Encoding: 58019 58019 96
Width: 222
VWidth: 1159
Flags: W
HStem: 736.319 176.949
VStem: -129.87 246.565<798.46 801.431>
LayerCount: 2
Fore
SplineSet
116.695163087 786.75521875 m 1
 103.988988281 736.318769531 l 1
 18.2269677734 773.090185547 -65.9308349609 795.324346679 -129.869753907 798.460316406 c 1
 -109.881364258 862.030922851 -68.4976269531 913.618054687 -68.6925742187 913.26749414 c 1
 -14.5868857422 879.066874999 67.5906513672 828.166891602 116.695163087 786.75521875 c 1
EndSplineSet
EndChar

StartChar: uni030A
Encoding: 778 778 98
Width: 0
VWidth: 1159
Flags: W
HStem: 420.787 40.5418<-233.149 -163.52> 540.671 40.5418<-232.48 -163.092>
VStem: -280.056 41.8773<466.593 535.588> -157.821 41.8773<466.412 535.451>
LayerCount: 2
Fore
SplineSet
-198 540.671041125 m 1
 -218.862226962 540.671041125 -238.178548148 523.672901778 -238.178548148 500.49258621 c 1
 -238.178548148 476.993669452 -219.634106351 461.328958875 -198 461.328958875 c 1
 -177.137773038 461.328958875 -157.821451852 478.327098222 -157.821451852 501.50741379 c 1
 -157.821451852 523.439242526 -176.365893649 540.671041125 -198 540.671041125 c 1
-198 581.212825273 m 1
 -153.815653292 581.212825273 -115.944140469 546.728633419 -115.944140469 502.843034258 c 1
 -115.944140469 455.50364323 -155.393861763 420.787174727 -198 420.787174727 c 1
 -242.184346708 420.787174727 -280.055859531 452.135367463 -280.055859531 499.156965742 c 1
 -280.055859531 546.495582393 -240.606138237 581.212825273 -198 581.212825273 c 1
EndSplineSet
EndChar

StartChar: uni031B
Encoding: 795 795 99
Width: 0
VWidth: 1159
Flags: W
HStem: 330 18<-84.5 -47.4434>
VStem: -30.8397 106.465<368.883 462.683>
LayerCount: 2
Fore
SplineSet
-30.8396982422 380.342591797 m 3
 -30.8396982422 387.510459701 -48.4825952495 401.538150469 -65.2006748047 423.062482422 c 1
 -45.7700786269 465.574702513 -12.6052437671 492.322265625 17.29603125 492.322265625 c 3
 62.8368188596 492.322265625 75.625 453.946421875 75.625 444.775390625 c 3
 75.625 399.205078125 -15.2378927954 330.428 -84.5 330 c 1
 -85 348 l 1
 -60.8681211807 348.707927343 -30.8396982422 357.423910647 -30.8396982422 380.342591797 c 3
EndSplineSet
EndChar

StartChar: tildecomb
Encoding: 771 771 100
Width: 0
VWidth: 1159
Flags: W
HStem: 415.702 101.292<-219.855 -119.963> 449.087 100.103<-297.768 -196.465>
VStem: -108.958 41.9343<524.176 544.694>
LayerCount: 2
Fore
SplineSet
-351.149622 427.157538 m 1x60
 -325.562919906 496.496675763 -283.375944428 549.18909857 -277.285503523 549.18909857 c 3x60
 -234.001183177 549.18909857 -190.278949774 516.994424788 -142.412735938 516.994424788 c 3
 -128.809323012 516.994424788 -115.667561647 534.825917954 -108.958288 557.945128 c 1
 -67.0240371 542.039233 l 1
 -87.1164230768 478.223494386 -133.589751507 415.702424788 -137.550784937 415.702424788 c 3xa0
 -174.479364294 415.702424788 -234.523493166 449.086536571 -279.563084641 449.086536571 c 3
 -297.321262472 449.086536571 -311.323 409.539337 -306.06597 413.208815 c 1
 -351.149622 427.157538 l 1x60
EndSplineSet
EndChar

StartChar: uni0306
Encoding: 774 774 105
Width: 0
VWidth: 1159
Flags: W
HStem: 443.156 89.9537<-275.371 -120.27>
VStem: -332.903 270.834
LayerCount: 2
Fore
SplineSet
-332.903417745 540.933003024 m 1
 -299.451960991 564.345943526 l 1
 -285.636382478 545.600507333 -242.825919069 533.109693 -197.727567 533.109693 c 0
 -152.839239211 533.109693 -109.969795041 545.499754584 -95.5788274742 564.216595767 c 1
 -62.0689801312 541.0446185 l 1
 -82.518672954 473.795893703 -141.402206353 443.156 -198.026 443.156 c 0
 -254.677472924 443.156 -313.188198697 473.726896845 -332.903417745 540.933003024 c 1
EndSplineSet
EndChar

StartChar: uni0313
Encoding: 787 787 111
Width: 0
VWidth: 1159
Flags: W
HStem: 406.422 258.935
VStem: -240.428 160.306
LayerCount: 2
Fore
SplineSet
-229.326369141 406.422307617 m 1
 -240.428055664 435.033982421 l 1
 -212.888016602 438.108370117 -149.535274413 470.125131836 -168.957883788 514.890179687 c 0
 -179.845321289 541.072166993 -206.463177734 558.832248046 -229.540474609 570.493412109 c 0
 -235.448553712 572.423801757 -238.926945312 580.725999023 -238.926945312 587.288928711 c 3
 -238.926945312 594.13987207 -235.342142578 599.039845703 -228.611897461 601.535894532 c 0
 -206.956029297 613.232902344 -191.706548829 634.037043945 -177.653791016 653.422578125 c 0
 -175.000925782 659.330513672 -167.87009668 665.357743164 -160.739267579 665.357743164 c 3
 -154.020498048 665.357743164 -146.197436523 659.227462891 -143.824600586 652.492880859 c 0
 -134.645616211 633.62484082 -112.373549804 615.533623046 -91.2463769532 601.535894532 c 0
 -85.3382978516 598.986080078 -80.1217587891 594.007698242 -80.1217587891 587.288928711 c 1
 -80.1217587891 585.216548828 -57.562640625 486.016140625 -229.326369141 406.422307617 c 1
EndSplineSet
EndChar

StartChar: uni0315
Encoding: 789 789 113
Width: 0
VWidth: 1159
Flags: W
HStem: 450.494 209.045
VStem: -126 158.219
LayerCount: 2
Fore
SplineSet
-71.22 659.538865587 m 1
 32.219 628.921865587 l 1
 13.9636530826 573.61196177 -22.8609658658 494.923406585 -106 450.494 c 1
 -126 464.494 l 1
 -93.7764608604 522.542693699 -78.288397766 589.323078259 -71.22 659.538865587 c 1
EndSplineSet
EndChar

StartChar: uniE2A4
Encoding: 58020 58020 159
Width: 281
VWidth: 1159
Flags: HMW
LayerCount: 2
Fore
SplineSet
279.504865585 770.537376359 m 1
 262.420752719 740.97241754 l 1
 140.5 771.617770641 l 1
 18.5803232984 740.97241754 l 1
 1.49511677406 770.537376359 l 1
 121.845659484 878.899448047 l 1
 159.154340516 878.899448047 l 1
 279.504865585 770.537376359 l 1
EndSplineSet
EndChar

StartChar: uniE2A6
Encoding: 58022 58022 161
Width: 329
VWidth: 1159
Flags: W
HStem: 735.703 101.292<153.258 263.626> 769.087 100.102<67.1763 179.101>
VStem: 8.19684 313.919
LayerCount: 2
Fore
SplineSet
8.19684277344 747.157618163 m 1x60
 36.4663271484 816.49711914 83.077328125 869.188914062 89.8062988281 869.188914062 c 3x60
 137.629368165 869.188914062 185.936045899 836.994974609 238.821525391 836.994974609 c 3
 253.851313476 836.994974609 268.37163086 854.826242188 275.78425293 877.945597656 c 1
 322.11553711 862.039367188 l 1
 299.916311524 798.223228516 248.570501953 735.702974609 244.193279298 735.702974609 c 3xa0
 203.392354492 735.702974609 137.052082031 769.086851562 87.2895605469 769.086851562 c 3
 67.6693486328 769.086851562 52.1993154297 729.539256837 58.0082236328 733.20892871 c 1
 8.19684277344 747.157618163 l 1x60
EndSplineSet
EndChar

StartChar: uniE2A7
Encoding: 58023 58023 162
Width: 321
VWidth: 1159
Flags: W
HStem: 747.448 86.0961<75.2314 245.098>
VStem: 16.7646 287.47
LayerCount: 2
Fore
SplineSet
16.7646 838.464 m 1
 56.3614462344 858.533170258 l 1
 71.2201370584 841.89111106 115.578836422 833.543858238 160.081840039 833.543858238 c 3
 204.52013325 833.543858238 249.10221973 841.856256147 264.637480266 858.533170258 c 1
 304.235 838.464 l 1
 283.3205 777.7865 221.529825 747.44775 159.9293125 747.44775 c 3
 98.3288 747.44775 36.91845 777.7865 16.7646 838.464 c 1
EndSplineSet
EndChar

StartChar: uniE2AA
Encoding: 58026 58026 165
Width: 281
VWidth: 1159
Flags: W
HStem: 720.488 54.8564<99.1218 178.74> 868.246 54.8566<100.26 179.582>
VStem: 35.6665 56.4712<782.983 859.431> 186.862 56.4709<784.159 860.708>
LayerCount: 2
Fore
SplineSet
139.5 868.246 m 1
 114.908 868.246 92.1377 848.208 92.1377 820.884 c 1
 92.1377 793.56 113.998 775.344 139.5 775.344 c 1
 164.092 775.344 186.862 795.382 186.862 822.706 c 1
 186.862 848.208 165.002 868.246 139.5 868.246 c 1
139.5 923.102576469 m 1
 195.410750328 923.102576469 243.332878523 879.637741869 243.332878523 824.320481273 c 1
 243.332878523 764.415419879 193.412994507 720.48760275 139.5 720.48760275 c 1
 83.5892168445 720.48760275 35.6664773766 760.000440828 35.6664773766 819.269697945 c 1
 35.6664773766 879.17235819 85.5866179542 923.102576469 139.5 923.102576469 c 1
EndSplineSet
EndChar

StartChar: uniE2AB
Encoding: 58027 58027 166
Width: 300
VWidth: 1159
Flags: W
HStem: 723.278 199.045
VStem: 15.3385 281.053
LayerCount: 2
Fore
SplineSet
15.3385 758.0851 m 1
 22.5745 791.4391 48.8518389262 869.208650602 75.501 922.323 c 1
 75.501 922.323 132.517427156 895.280085657 168.4255 873.4681 c 1
 120.049529412 831.070866601 101.620588236 807.94510293 50.941 730.859224023 c 1
 15.3385 758.0851 l 1
118.643737 759.497324 m 1
 121.101627 772.309971 179.162108468 853.974756812 222.633334 900.02744 c 1
 222.633334 900.02744 268.773744623 856.495562843 296.391426 824.337048 c 1
 239.122890856 797.38071323 215.019542954 780.849400336 144.318621 723.278384 c 1
 118.643737 759.497324 l 1
EndSplineSet
EndChar

StartChar: eogonek
Encoding: 281 281 253
Width: 409
VWidth: 1159
UnlinkRmOvrlpSave: 1
Flags: W
HStem: -303.658 96.6852<214.615 324.928>
VStem: 146.179 121.064<-234.819 -125.948>
LayerCount: 2
Back
SplineSet
366.630859375 52.54296875 m 5xd0
 276.377929688 -47.1502175719 262.771484375 -94.5674013864 262.771484375 -186 c 7
 262.771484375 -236.143554688 288.107421875 -265.872070312 320.166015625 -265.872070312 c 7
 339.918945312 -265.872070312 363.635742188 -255.18359375 387.97265625 -231.599609375 c 13
 387.97265625 -231.599609375 399.081054688 -241.926757812 401.771484375 -250 c 5
 374.767578125 -302.788085938 329.271484375 -326 287.771484375 -326 c 7
 237.798828125 -326 193.561523438 -284.413085938 193.561523438 -214.834960938 c 7
 193.561523438 -150.617750838 236.666992188 -26.3930451996 359.931640625 73.76171875 c 5
 366.630859375 52.54296875 l 5xd0
EndSplineSet
Fore
SplineSet
364.082399415 45.0626611328 m 1
 286.639129883 -21.6035258302 267.242798828 -99.3376925055 267.242798828 -150.90750293 c 3
 267.242798828 -185.027717773 289.235186523 -206.973008789 324.207205078 -206.973008789 c 3
 325.649338867 -206.973008789 329.339737304 -208.874021485 345.155625977 -206.278608398 c 1
 337.18935254 -201.282885742 354.096454102 -216.896987305 355.894293945 -223.152279297 c 1
 327.505953125 -280.010962891 280.831408202 -303.658203125 239.239973633 -303.658203125 c 3
 189.990769531 -303.658203125 146.179109375 -267.145439453 146.179109375 -202.493164062 c 3
 146.179109375 -147.24911309 198.999498048 -29.9424966369 357.982299805 65.3517138672 c 1
 364.082399415 45.0626611328 l 1
EndSplineSet
Refer: 4 101 N 1 0 0 1 0 0 3
Substitution2: "smcp-1" eogonek.smcp
Substitution2: "case-1" Eogonek
Substitution2: "pcap-1" eogonek.pcap
EndChar

StartChar: uni0328
Encoding: 808 808 254
Width: 0
VWidth: 1159
Flags: W
HStem: -300 96.6852<-243.735 -133.421>
VStem: -312.17 121.064<-231.161 -132.37>
LayerCount: 2
Back
SplineSet
-94.3691 15.543 m 1
 -195.162388974 -70.3584937184 -226.228515625 -111.215514218 -226.228515625 -190 c 3
 -226.228515625 -221.309227792 -201.775586907 -239.872070312 -170.833984375 -239.872070312 c 3
 -154.801506148 -239.872070312 -135.55173736 -232.614365408 -115.798828125 -216.599609375 c 1
 -115.798828125 -216.599609375 -104.690305483 -226.926828613 -102 -235 c 1
 -125.978710258 -280.147631579 -166.377945685 -300 -203.228515625 -300 c 3
 -253.201025342 -300 -297.438476562 -268.513714542 -297.438476562 -215.834960938 c 3
 -297.438476562 -159.628200176 -233.56061762 -50.8996824072 -101.068 36.7617 c 1
 -94.3691 15.543 l 1
EndSplineSet
Fore
SplineSet
-94.2671227391 16.4559313516 m 1
 -171.711397446 -39.2459801688 -191.106739344 -104.151784361 -191.106739344 -147.249299804 c 3
 -191.106739344 -181.369122009 -169.114835079 -203.314816 -134.142402 -203.314816 c 3
 -132.700301115 -203.314816 -129.010711032 -205.215884089 -113.193983399 -202.620405274 c 1
 -121.160617994 -197.624583182 -104.252991492 -213.238801453 -102.45531543 -219.494076172 c 1
 -130.844347921 -276.352851706 -177.518054552 -300 -219.10956454 -300 c 3
 -268.35956732 -300 -312.1704265 -263.487474423 -312.1704265 -198.834955196 c 3
 -312.1704265 -150.234912785 -259.350850314 -47.0638398958 -100.367514554 36.7448767359 c 1
 -94.2671227391 16.4559313516 l 1
EndSplineSet
EndChar

StartChar: Aogonek
Encoding: 260 260 255
Width: 730
VWidth: 0
Flags: W
HStem: -9.00646 21G<283.27 317.977> 3.13093 55.8029<40.764 73.4812>
VStem: 355.935 68.4636<597.453 713.147> 405.239 126.966<-205.719 -82.6844>
LayerCount: 2
Fore
SplineSet
273.3093125 256.121729492 m 1x00
 300.823277603 245.938069526 380.505313969 249.056632462 405.863880859 249.601465821 c 1
 379.079580257 310.432540812 360.462703817 339.766523263 326.958660156 401.801978516 c 1
 298.579345018 338.473152607 292.74085346 308.844656097 273.3093125 256.121729492 c 1x00
447.933181609 15.38706537 m 0
 436.481843457 30.2768890048 444.18875 88.145 448.474307617 106.105389648 c 0
 435.397835092 142.992072451 434.929483328 148.869136296 429.211849609 176.242868165 c 1
 387.692631981 196.626408788 315.753798426 208.955754219 250.499 193.385 c 1
 240.954929219 168.176423999 226.110062415 158.162578681 226.000726563 125.445782227 c 0
 221.967548432 94.5857532279 263.60825205 37.5373518201 320.9815 57.5807070313 c 1
 316.6875 -9.00645605469 l 1x90
 249.852321403 6.83499750751 109.095886378 12.9844422536 40.764 3.13093066406 c 1
 40.764 3.13093066406 32.176 28.8758085938 30.029 58.9338085938 c 1
 77.3273432677 81.3639660084 129.0228639 108.157501229 132.917536133 113.871223633 c 0
 217.807488721 313.210769851 287.039963273 470.243179509 350.355544922 636.21288379 c 0
 364.126048587 673.425149535 357.523617702 676.005515815 355.935094727 713.147 c 1
 424.39871875 713.147 l 1x60
 425.949380703 685.492621073 414.523717266 676.483745984 427.746404297 638.47499121 c 0
 479.190199847 450.872006239 506.86521309 340.424787707 623.30229004 127.51915161 c 0
 631.331565588 113.812121752 694.443264227 54.0530796974 711.176 53.4547246094 c 1
 711.176 53.4547246094 709.029 29.6977900391 706.882 3.93379003906 c 1
 647.180492907 75.229870456 546.448540351 68.3745587018 500.573056641 -10.559 c 0
 517.040605033 -64.4159191515 532.20474121 -95.3940284922 532.20474121 -151.134778319 c 3
 532.20474121 -181.094290351 551.094645033 -217.975013672 580.631880859 -217.975013672 c 3
 591.19892926 -217.975013672 591.200738403 -234.674435354 615.337175781 -249.4236875 c 1
 615.337175781 -249.4236875 615.856847053 -256.99086925 621.632195313 -274.320901366 c 1
 597.675871671 -316.19765163 545.780098204 -346.702067382 505.176572266 -346.702067382 c 3
 454.928012476 -346.702067382 405.238898437 -298.36568338 405.238898437 -233.762828125 c 3x50
 405.238898437 -10.3509054663 503.024113421 -12.9374170409 447.933181609 15.38706537 c 0
EndSplineSet
Position2: "cpsp-1" dx=0 dy=0 dh=50 dv=100
Substitution2: "c2pc-1" aogonek.pcap
Substitution2: "c2sc-1" aogonek.smcp
EndChar

StartChar: uniE2AD
Encoding: 58029 58029 257
Width: 0
VWidth: 1159
Flags: W
HStem: -338.23 73.7197<-184.546 -117.498>
VStem: -275.584 71.875<-244.983 -118.496>
LayerCount: 2
Fore
SplineSet
-92.1719 12.3926 m 1
 -164.514989866 -37.5177021671 -203.708984375 -122.700132364 -203.708984375 -187.03125 c 3
 -203.708984375 -228.469229743 -175.522824414 -264.510742188 -144.514648438 -264.510742188 c 3
 -123.539764965 -264.510742188 -98.3555048772 -255.777742187 -72.5146484375 -236.510742188 c 9
 -72.5146484375 -236.510742188 -61.4052257941 -246.838961447 -58.7158203125 -254.911132812 c 1
 -85.7705506897 -302.647325281 -138.205109564 -338.23046875 -179.78515625 -338.23046875 c 3
 -228.965068015 -338.23046875 -275.583984375 -289.420252063 -275.583984375 -227.85546875 c 3
 -275.583984375 -144.145292738 -241.514987387 -38.8975355005 -98.8711 45.1113 c 1
 -92.1719 12.3926 l 1
EndSplineSet
EndChar

StartChar: Eogonek
Encoding: 280 280 258
Width: 672
VWidth: 0
UnlinkRmOvrlpSave: 1
Flags: W
HStem: -347.889 73.7197<484.634 553.852> -9 35<56 103.477> 3.0702 37.3021<232.525 492.796> 333 36<205 473.393> 646.077 36.8925<248.298 487.505> 657 31<48 108.489>
VStem: 122 93<372.549 638.287> 126.788 78.2122<90.4625 333 369 603.172> 395.766 71.875<-257.592 -149.807> 497 36<247.75 305.348 393.846 441.094> 538 30<537 618.59>
LayerCount: 2
Fore
SplineSet
48 688 m 1xd6e0
 120.521055818 684.355725838 206.588460485 682.969176485 287.955928091 682.969176485 c 1
 429.86328558 682.969176485 557.47511282 687.186564497 574 691 c 1
 585.145145837 681.247997393 589.133414459 675.741599913 589.133414459 667.087387512 c 1
 589.133414459 650.893580795 575.168856119 623.677987617 568 537 c 1
 538 534 l 1
 527 570 546 617 510 628 c 0
 468.488636507 639.860389569 402.664140046 646.076658986 339.417525988 646.076658986 c 1
 306.677490841 646.076658986 274.628246937 644.410894684 247 641 c 0
 229 639 216 625 215 607 c 0x9ae0
 211 525.313559322 206 444.635593221 205 369 c 1
 269 371 429 371 443 372 c 0
 480 377 485 403 501 447 c 1
 535 440 l 1
 526.800908316 409.132831309 523.486685813 378.498275435 523.486685813 347.871954284 c 1
 523.486685813 314.997648821 527.305294619 282.132831309 533 249 c 1
 497 240 l 1
 477 311 484 324 443 328 c 0
 399 333 298 332 205 333 c 1
 204 235.613545816 208 147.262948207 220 81 c 0
 224 64 233 50 250 49 c 0
 295.831179232 44.5647245905 336.319436302 40.3723092792 374.696225476 40.3723092792 c 1
 414.193090286 40.3723092792 451.453436792 44.8130178498 490 58 c 0
 550.414440108 78.6680979317 560.916666667 101 601 177 c 1
 629 170 l 1
 601.909278218 96.0751847998 563.005363884 18.4683882549 538.489257812 -19.9775390625 c 0
 508.313510966 -67.2988618945 467.640625 -148.391015834 467.640625 -206.689453125 c 0
 467.640625 -242.779181534 495.826784961 -274.168945312 526.834960938 -274.168945312 c 0
 547.809960937 -274.168945312 572.993960937 -265.436945313 598.834960938 -246.168945312 c 1
 598.834960938 -246.168945312 609.943822568 -256.497164572 612.633789062 -264.569335938 c 1
 585.578932221 -312.305955472 533.145209671 -347.888671875 491.565429688 -347.888671875 c 0
 442.385016588 -347.888671875 395.765625 -303.499671875 395.765625 -247.513671875 c 0
 395.765625 -172.157942368 443.587456716 -80.3722695124 506.53125 0.1865234375 c 1
 426.116814261 0.92057786207 344.873636713 3.07020290016 269.953021447 3.07020290016 c 1xb9e0
 188.876938008 3.07020290016 115.205017511 0.552841530585 58 -9 c 1
 48 26 l 1
 101 36 124 49 124 77 c 1
 125.797958971 111.804426856 126.787753827 207.154066657 126.787753827 309.259280672 c 1xd1e0
 126.787753827 434.312117879 125.303061543 569.498316407 122 616 c 0
 121 643 116 643 43 657 c 1
 48 688 l 1xd6e0
EndSplineSet
Position2: "cpsp-1" dx=0 dy=0 dh=50 dv=100
Substitution2: "c2pc-1" eogonek.pcap
Substitution2: "c2sc-1" eogonek.smcp
EndChar

StartChar: Iogonek
Encoding: 302 302 259
Width: 341
VWidth: 0
UnlinkRmOvrlpSave: 1
Flags: W
HStem: -346.889 73.7197<164.804 231.852> -10 57.205<16.1075 72.7809> 628.354 63.646<264.563 320.118>
VStem: 11.118 4<631.354 633.511> 73.7656 71.875<-253.641 -109.865> 106.946 135.247<85.706 589.368>
LayerCount: 2
Fore
SplineSet
207.177734375 3.734375 m 1xf8
 167.264648438 -46.17578125 145.640625 -131.358398438 145.640625 -195.689453125 c 3
 145.640625 -237.126953125 173.827148438 -273.168945312 204.834960938 -273.168945312 c 3
 225.810546875 -273.168945312 250.994140625 -264.435546875 276.834960938 -245.168945312 c 9
 276.834960938 -245.168945312 287.944335938 -255.497070312 290.633789062 -263.569335938 c 1
 263.579101562 -311.305664062 211.14453125 -346.888671875 169.564453125 -346.888671875 c 3
 120.384765625 -346.888671875 73.765625 -298.078125 73.765625 -236.513671875 c 3
 73.765625 -152.803710938 98.1953125 -47.5556640625 200.478515625 36.453125 c 1
 207.177734375 3.734375 l 1xf8
EndSplineSet
Refer: 34 73 N 1 0 0 1 0 0 3
Position2: "cpsp-1" dx=0 dy=0 dh=50 dv=100
Substitution2: "c2pc-1" iogonek.pcap
Substitution2: "c2sc-1" iogonek.smcp
EndChar

StartChar: iogonek
Encoding: 303 303 260
Width: 263
VWidth: 0
UnlinkRmOvrlpSave: 1
Flags: W
HStem: -326 60.1279<121.017 198.674> 557.077 131.847<125.619 216.025>
VStem: 36.5625 69.209<-252.6 -120.517> 103.606 134.432<578.733 667.346>
LayerCount: 2
Fore
SplineSet
168 12.9248046875 m 1xe0
 113.924804688 -74.3896484375 105.771484375 -115.919921875 105.771484375 -196 c 3
 105.771484375 -239.865234375 131.106445312 -265.872070312 163.166015625 -265.872070312 c 3
 182.918945312 -265.872070312 206.635742188 -255.18359375 230.97265625 -231.599609375 c 1
 230.97265625 -231.599609375 242.081054688 -241.926757812 244.771484375 -250 c 1
 217.768554688 -302.788085938 172.271484375 -326 130.771484375 -326 c 3
 80.798828125 -326 36.5625 -288.154296875 36.5625 -224.834960938 c 3
 36.5625 -167.208984375 66.80859375 -55.732421875 153.30078125 34.1435546875 c 1
 168 12.9248046875 l 1xe0
EndSplineSet
Refer: 8 105 N 1 0 0 1 0 0 3
Substitution2: "smcp-1" iogonek.smcp
Substitution2: "case-1" Iogonek
Substitution2: "pcap-1" iogonek.pcap
EndChar

StartChar: uogonek
Encoding: 371 371 262
Width: 506
VWidth: 0
UnlinkRmOvrlpSave: 1
Flags: W
HStem: -324.658 60.1279<313.017 390.674> -18.7812 20G<319.052 378.615>
VStem: 228.562 69.21<-251.259 -142.76>
LayerCount: 2
Fore
SplineSet
379 -20 m 1
 308.413085938 -92.994140625 297.771484375 -127.711914062 297.771484375 -194.658203125 c 3
 297.771484375 -238.5234375 323.107421875 -264.530273438 355.166015625 -264.530273438 c 3
 374.918945312 -264.530273438 398.635742188 -253.841796875 422.97265625 -230.2578125 c 1
 422.97265625 -230.2578125 434.081054688 -240.584960938 436.771484375 -248.658203125 c 1
 409.767578125 -301.446289062 364.271484375 -324.658203125 322.771484375 -324.658203125 c 3
 272.798828125 -324.658203125 228.561523438 -286.8125 228.561523438 -223.493164062 c 3
 228.561523438 -173.491210938 265.803710938 -76.765625 372.30078125 1.21875 c 1
 379 -20 l 1
EndSplineSet
Refer: 20 117 N 1 0 0 1 0 0 3
Substitution2: "smcp-1" uogonek.smcp
Substitution2: "case-1" Uogonek
Substitution2: "pcap-1" uogonek.pcap
EndChar

StartChar: uni0327
Encoding: 807 807 268
Width: 0
VWidth: 1159
UnlinkRmOvrlpSave: 1
Flags: W
VStem: -238.586 106.014<-166.92 -77.729>
LayerCount: 2
Fore
SplineSet
-289.175 -200.003 m 1
 -287.435430125 -178.959546618 l 1
 -262.430587097 -170.434429161 -238.586 -167.064276263 -238.586 -139.911 c 1
 -238.586 -129.131836018 -242.616504094 -108.860620169 -253.841824406 -99.7169071687 c 1
 -251.446053766 -75.9038892469 l 1
 -245.12116688 -72.6037551369 -237.630041077 -71.7548474818 -231.521 -67.0766 c 0
 -205.309155413 -47.1056991115 -207.267228059 -41.3290989566 -185.476973117 5.43262322594 c 1
 -142.447973117 13.4325802859 l 1
 -142.447973117 13.4325802859 -158.0561507 -37.0081772234 -163.601695328 -46.1936874547 c 1
 -154.5994082 -55.050068205 -132.572 -72.454331621 -132.572 -111.429 c 1
 -132.572 -180.25 -220.06 -229.425 -289.175 -200.003 c 1
EndSplineSet
EndChar

StartChar: uniE2E4
Encoding: 58084 58084 269
Width: 0
VWidth: 1159
Flags: W
VStem: -195 63.126<-165.105 -94.3474>
LayerCount: 2
Fore
SplineSet
-289.175 -200.003 m 1
 -285.141 -177.812 l 1
 -239 -188 -195 -161.724 -195 -125 c 3
 -195 -109.445 -206 -85 -236.636 -95.1289 c 1
 -241.123 -72.4629 l 1
 -199.113 -38.5203 -131.874 -44.0724 -131.874 -109.349 c 3
 -131.874 -179.786 -219.751 -230.116 -289.175 -200.003 c 1
EndSplineSet
EndChar

StartChar: uniE2AE
Encoding: 58030 58030 281
Width: 0
VWidth: 1159
Flags: W
VStem: -194.928 70.897<-182.621 -103.12>
LayerCount: 2
Fore
SplineSet
-302.112 -226.844 m 1
 -297.393 -200.881 l 1
 -243.408 -212.801 -194.928 -182.057 -194.928 -139.091 c 0
 -194.928 -120.892 -206.823 -92.29 -240.667 -104.142 c 1
 -245.892 -77.6221 l 1
 -241.051 -73.5835 -235.91 -70.2296 -230.581 -67.5294 c 0
 -201.19 -48.4085 -207.089 -43.3329 -187.571 4.44336 c 1
 -142.571 12.4434 l 1
 -142.571 12.4434 -152.525 -33.2849 -173.391 -61.6674 c 1
 -145.899 -69.2159 -124.031 -91.6921 -124.031 -124.709 c 0
 -124.031 -204.066 -223.518 -260.771 -302.112 -226.844 c 1
EndSplineSet
EndChar

StartChar: uniE2E5
Encoding: 58085 58085 282
Width: 0
VWidth: 1159
Flags: W
VStem: -194.928 70.897<-182.621 -103.74>
LayerCount: 2
Fore
SplineSet
-302.112 -226.844 m 1
 -297.393 -200.881 l 1
 -243.408 -212.801 -194.928 -182.057 -194.928 -139.091 c 3
 -194.928 -120.892 -206.798 -92.29 -240.642 -104.142 c 1
 -245.892 -77.6221 l 1
 -199.032 -34.292 -124.031 -58.5156 -124.031 -124.709 c 3
 -124.031 -204.066 -223.518 -260.771 -302.112 -226.844 c 1
EndSplineSet
EndChar

StartChar: uniE2B2
Encoding: 58034 58034 295
Width: 300
VWidth: 1159
Flags: W
HStem: 722.065 200.258
VStem: -124.495 283.157
LayerCount: 2
Fore
SplineSet
158.6615 758.0851 m 1
 123.059 730.859224023 l 1
 72.3794117647 807.94510293 53.9504705882 831.070866601 5.5745 873.4681 c 1
 41.4817140441 895.280085657 98.499 922.323 98.499 922.323 c 1
 125.148161073 869.208650602 151.4255 791.4391 158.6615 758.0851 c 1
53.2498413 758.286416 m 1
 27.5734544 722.065329 l 1
 -43.1270381539 779.638492336 -67.2290978557 796.16765823 -124.495486 823.123993 c 1
 -96.8833868231 855.284654843 -50.7410439 898.814385 -50.7410439 898.814385 c 1
 -7.26831546808 852.763848812 50.7915219 771.099063 53.2498413 758.286416 c 1
EndSplineSet
EndChar

StartChar: uni01EA
Encoding: 490 490 308
Width: 845
VWidth: 0
UnlinkRmOvrlpSave: 1
Flags: W
HStem: -346.889 73.7197<406.804 473.852> -0.118 67.205<398.345 534.309> 608.826 77.675<296.635 438.318>
VStem: 43 172.143<296.398 447.841> 315.766 71.875<-253.641 -127.154> 612.681 189.319<222.352 408.035>
LayerCount: 2
Fore
SplineSet
499.177734375 3.734375 m 1
 426.834960938 -46.17578125 387.640625 -131.358398438 387.640625 -195.689453125 c 3
 387.640625 -237.126953125 415.827148438 -273.168945312 446.834960938 -273.168945312 c 3
 467.810546875 -273.168945312 492.994140625 -264.435546875 518.834960938 -245.168945312 c 9
 518.834960938 -245.168945312 529.944335938 -255.497070312 532.633789062 -263.569335938 c 1
 505.579101562 -311.305664062 453.14453125 -346.888671875 411.564453125 -346.888671875 c 3
 362.384765625 -346.888671875 315.765625 -298.078125 315.765625 -236.513671875 c 3
 315.765625 -152.803710938 349.834960938 -47.5556640625 492.478515625 36.453125 c 1
 499.177734375 3.734375 l 1
EndSplineSet
Refer: 40 79 N 1 0 0 1 0 0 3
Position2: "cpsp-1" dx=0 dy=0 dh=50 dv=100
EndChar

StartChar: uni01EB
Encoding: 491 491 309
Width: 505
VWidth: 0
UnlinkRmOvrlpSave: 1
Flags: W
HStem: -326 60.1279<272.366 350.024> -11 56.205<237.363 316.648> 356.795 58.764<187.367 263.537>
VStem: 32 135.644<147.287 284.246> 187.912 69.209<-252.6 -139.048> 339.944 133.056<108.859 263.893>
LayerCount: 2
Fore
SplineSet
360.98046875 13.54296875 m 1
 270.727539062 -74.0302734375 257.12109375 -115.682617188 257.12109375 -196 c 3
 257.12109375 -239.865234375 282.45703125 -265.872070312 314.515625 -265.872070312 c 3
 334.268554688 -265.872070312 357.986328125 -255.18359375 382.322265625 -231.599609375 c 9
 382.322265625 -231.599609375 393.431640625 -241.926757812 396.12109375 -250 c 1
 369.1171875 -302.788085938 323.62109375 -326 282.12109375 -326 c 3
 232.149414062 -326 187.912109375 -288.154296875 187.912109375 -224.834960938 c 3
 187.912109375 -172.674804688 223.05859375 -76.5009765625 320.63671875 8 c 9
 360.98046875 13.54296875 l 1
EndSplineSet
Refer: 14 111 N 1 0 0 1 0 0 3
Substitution2: "case-1" uni01EA
EndChar

StartChar: thorn
Encoding: 254 254 317
Width: 515
VWidth: 1159
Flags: W
HStem: -348 32<8.34375 55.6963> -342 34<151.753 229> -10 46<184.803 329.513> 369 43<198.188 323.819> 654 29<16 45.5305> 739 20G<129 175>
VStem: 67 82<-302.037 -18.4171> 80 65<-197.411 7 69.4004 345.78 368 599.495> 406 69<130.435 275.055>
LayerCount: 2
Fore
SplineSet
145 332 m 9x3d80
 144 241 143 189 143 98 c 3
 143 92 147 85 154 79 c 0
 185 52 227 36 268 36 c 3
 345 36 406 96 406 180 c 3
 406 270 352 369 251 369 c 3
 207 369 155 342 145 332 c 9x3d80
76 31 m 24
 79.1289 217.79 80 367 80 510 c 3
 80 570 80 607 76 627 c 0
 71 654 64 656 46 656 c 3
 36 656 25 654 16 654 c 1
 11 683 l 1
 48 690 104 718 154 759 c 1
 175 743 l 1
 165 717 157 687 156 667 c 0
 151 599 145 484 145 368 c 1xbd80
 178 382 234 412 294 412 c 3
 399 412 475 315 475 223 c 3
 475 94 363.004 -10 225 -10 c 3
 198 -10 170 -2 144 7 c 1
 144 -75 144 -247 149 -284 c 0
 151 -299 170 -303 181 -304 c 0
 197 -305 216 -307 230 -308 c 1
 229 -342 l 1x7e80
 190 -341 159 -339 117 -339 c 3
 87 -339 39 -344 9 -348 c 1
 6 -316 l 1
 17 -315 25 -313 36 -311 c 0
 59 -305 65 -294 67 -266 c 0xbe80
 72 -214 74.0589 -84.8672 76 31 c 24
EndSplineSet
Substitution2: "pcap-1" thorn.pcap
Substitution2: "case-1" Thorn
Substitution2: "smcp-1" thorn.smcp
EndChar

StartChar: Thorn
Encoding: 222 222 318
Width: 594
VWidth: 1159
Flags: W
HStem: -9 35<33 79.7574> 178 45<189.142 391.092> 519 42<188.8 373.894> 661 31<15.871 81.5947>
VStem: 103 86.1416<54.7783 182.945 226.958 514.181 554.895 640.551> 465 87<299.251 431.707>
LayerCount: 2
Fore
SplineSet
300 652.244140625 m 1
 269.541015625 652.76953125 239.069335938 648.46484375 211 641 c 0
 193.498046875 636.344726562 190 622 189 604 c 0
 188.240234375 587.23828125 187.66015625 570.91015625 187.219726562 554.89453125 c 1
 223.961914062 557.525390625 259.918945312 561 309 561 c 3
 442 561 552 478 552 375 c 3
 552 258.262695312 417.193359375 178 292 178 c 3
 251.719726562 178 228.8125 181.861328125 189.141601562 182.9453125 c 1
 190.319335938 145.3203125 192.446289062 106.4140625 198 75 c 0
 201.80078125 58.8486328125 209.211914062 38.1826171875 306 36.1611328125 c 1
 302 -10.6103515625 l 1
 253.839897611 0.765337346976 217.431629665 6.17477902914 177.51514646 6.17477902914 c 3
 138.247715333 6.17477902914 95.5852303172 0.939824883774 35 -9 c 1
 25 26 l 1
 78 36 103 49 103 77 c 1
 104.6 108.20234375 105.4 187.70734375 105.4 277.3266875 c 3
 105.4 411.755703125 103.6 568.941992187 100 620 c 0
 99 647 85 647 12 661 c 1
 17 692 l 1
 64.3137479468 686.877828443 116.634803726 684.064503692 169.426581172 684.064503692 c 3
 212.805530712 684.064503692 256.502306442 685.964030206 298 690.04296875 c 1
 300 652.244140625 l 1
189.073242188 226.958007812 m 1
 228.5625 225.396484375 249.3671875 223 290 223 c 3
 436 223 465 311 465 364 c 3
 465 424 404 519 288 519 c 3
 266.518554688 519 216.749023438 516.599609375 187.26171875 510.466796875 c 1
 185.9765625 417.948242188 187.340820312 313.534179688 189.073242188 226.958007812 c 1
EndSplineSet
Position2: "cpsp-1" dx=0 dy=0 dh=50 dv=100
Substitution2: "c2pc-1" thorn.pcap
Substitution2: "c2sc-1" thorn.smcp
EndChar

StartChar: AE
Encoding: 198 198 319
Width: 1067
VWidth: 1159
Flags: W
HStem: -11.294 46.47<444.843 470.084> -7.706 57.764<200.973 249.57> 6.882 21G<868.225 987.382> 13.473 54.0691<702.271 845.378> 329.412 50.911<656.174 838.404> 456.675 20G<879.684 930> 617.571 53.8949<686.873 859.566> 648.383 37.882<394.44 432.838>
VStem: 514.72 141.454<142.242 229.586 291.726 329.412 380.323 576.036> 878.236 49.764<227.413 282.269 425.529 463.375> 924.971 43.764<517.207 578.734>
LayerCount: 2
Fore
SplineSet
396 686.265 m 1x4dc0
 531.845068626 674.525598058 615.967486631 671.465726206 643.091101536 671.465726206 c 1
 829.821359409 671.465726206 900.215249189 674.038519044 970.147 688.412 c 1
 985.713663562 674.934544383 988.333163465 671.882640603 988.333163465 663.826774152 c 1
 988.333163465 648.4738832 974.555514186 621.723691133 968.735 517.207 c 1
 924.971 510.766 l 1x0ea0
 924.341791667 522.921323944 914.619 568.532 902.706 579.532 c 0
 871.251230385 605.330278769 823.837911957 617.570828785 777.262766297 617.570828785 c 3
 745.557574421 617.570828785 689.47827646 612.998835852 686.704 607.443 c 0
 681.983103057 601.20899138 676.382740798 569.109194508 675.35 561.973 c 0
 667.6796 505.55422079 658.0916 433.767090383 656.174 380.323 c 1
 696.690659653 384.617 806.282662336 384.154224044 815.06 386.764 c 0
 854.788605469 397.520747893 874.8385 466.925414764 884.53 476.675 c 1
 930 461.646 l 1
 921.801200484 424.873983885 918.487096081 388.379586695 918.487096081 351.895017488 c 1
 918.487096081 311.151085428 922.305540207 270.418934213 928 229.354 c 1
 878.236 210.031 l 1
 856.5155 272.868050891 861.826304472 307.445501728 815.06 320.971 c 0
 787.204025 329.412 715.052149815 327.7238 656.174 329.412 c 1
 654.4858 258.184867861 664.133783946 174.34786402 681.497 131.468 c 0
 686.87350871 117.546101004 695.371729637 90.8902894506 701.174 85.704 c 0
 724.497428759 67.0430444026 752.871890218 67.542145874 774.680068248 67.542145874 c 1x1ec0
 780.118701926 67.542145874 802.461137566 71.4534045765 840.267 86.675 c 0
 875.18 100.94 941.383 161.791 988.412 202.234 c 1
 1022.147 194.087 l 1
 996.705532227 100.194961915 993.911510742 78.9216103516 980.853 6.882 c 1x2cc0
 755.596375049 10.0027884117 746.511575291 13.4730248101 677.460348001 13.4730248101 c 1x1cc0
 590.84658801 13.4730248101 574.348010725 8.30761358604 447.559 -11.294 c 1x8cc0
 429.53 35.176 l 1
 471.06 45.176 508.648 84.0172352941 508.648 120.586 c 1
 511.835091525 137.52896391 513.921355633 177.110980325 514.719859375 223.882890625 c 1
 457.660273036 242.433483582 355.076121549 250.73061067 279.798992188 236.677 c 1
 254.004238492 197.09083 234.547335233 180.163631621 213.658913 135.174 c 0
 183.210921 70.499 197.088764 55.381 255.332261 50.058 c 1
 248.775698953 -7.706 l 1
 214.909750263 -1.8598933874 160.176958515 1.44336428407 108.670065636 1.44336428407 c 1
 76.323135682 1.44336428407 45.3376681146 2.05848407987 22.546928675 -3.853 c 1
 22.546928675 -3.853 18.2831379296 30.7053333333 19.9364731172 50.058 c 1
 47.3565016079 71.9623260869 99.1922329697 89.626987041 119.546844 120.145 c 0
 242.405058181 302.384553433 354.977985268 475.278718179 449.483640625 624.749458984 c 1
 431.494666313 631.828170301 410.246775634 638.613321568 387.559 648.383 c 1
 396 686.265 l 1x4dc0
499.951776367 603.866296875 m 1
 475.287573963 562.941227842 358.584639368 369.434335213 314.08 298.176 c 1
 357.330134636 287.889347387 468.467214134 291.423977552 514.85853125 291.726210938 c 1
 515.256765808 409.834421605 507.542986288 578.701407568 505.501 589.325 c 0
 504.248077738 596.964434879 502.985435117 601.713669481 499.951776367 603.866296875 c 1
EndSplineSet
Position2: "cpsp-1" dx=0 dy=0 dh=50 dv=100
Substitution2: "c2pc-1" ae.pcap
Substitution2: "c2sc-1" ae.smcp
EndChar

StartChar: ae
Encoding: 230 230 322
Width: 578
VWidth: 1159
Flags: W
HStem: -7.853 83.145<72.9906 191.521 351.147 479.29> 181.954 30.4922<158.977 229.122> 269.971 24<549.319 562.617> 347.06 63.058<340.505 419.231>
VStem: 25.6586 115.909<39.6785 156.318> 229.122 112.013<122.902 181.954 207.874 220.212>
LayerCount: 2
Fore
SplineSet
352.907257813 347.06 m 3
 320.97696836 347.06 336.367058935 240.202877076 337.51753125 241.882 c 1
 367.652423118 251.153933657 391.205314727 258.275984055 419.296 266.402087784 c 0
 421.226960462 266.959552843 423.178432161 267.521562179 425.153541992 268.089 c 1
 407.928196035 317.204356322 371.302163475 347.06 352.907257813 347.06 c 3
341.135289062 214.882 m 1
 337.711933003 133.387670663 383.191791492 70.675 457.535331055 70.675 c 1
 494.610657755 70.675 516.223127728 84.8244222223 530.769234375 99.617 c 1
 558.53846875 62.294 l 1
 515.677806394 31.0651029412 454.448288742 -9.147 384.033257812 -9.147 c 1
 318.261005084 -9.147 265.951857121 30.7358742046 244.410418945 85.3840126953 c 1
 227.926498044 67.6447373004 155.935717019 -7.853 91.2466289062 -7.853 c 3
 54.7346691646 -7.853 25.6586289063 26.0824 25.6586289063 67.559 c 3
 25.6586289063 99.9191038407 35.532347615 130.649429401 37.2466289063 138.029 c 0
 40.2478103628 149.646769231 51.3016800716 164.871852782 62.9816289063 170.499 c 0
 128.793062642 202.192246772 165.277447397 198.270406777 230.708414062 212.446695312 c 1
 230.166052848 226.669830695 229.130683714 239.59445317 227.727790039 251.305543945 c 1
 227.386931674 254.947820103 227.204511575 269.722131968 223.802391602 285.760645508 c 0
 217.321721383 315.340420933 182.64140893 344.766 178.039628906 344.766 c 3
 181.175184462 344.766 170.714628906 341.68784686 170.714628906 340.853 c 3
 170.714628906 334.529333333 176.753032924 316.983814814 177.759433594 311.559 c 1
 60.3204335938 262.06 l 1
 53.7715447049 275.21425 45.5854335937 301.52275 45.5854335937 314.677 c 1
 45.5854335937 324.760414635 52.5429521123 333.27007317 67.9974335938 344.207 c 1
 144.828015952 389.952875 211.935214669 408.236 229.48853125 408.236 c 1
 245.182601463 408.236 293.96773052 376.777500876 307.797664062 362.42434375 c 1
 344.79715398 396.389265972 377.576515527 410.118 387.676714844 410.118 c 1
 448.993712076 410.118 504.811692414 372.306824677 534.623375 323 c 0
 552.44548677 292.648 562.193147027 292.600533333 564.911 293.971 c 1
 562.617 269.971 l 1
 492.198746793 253.4443 413.404334907 233.769657143 341.135289062 214.882 c 1
229.122476562 181.954453125 m 1
 196.588750654 173.785762941 157.023043585 176.467713885 145.952628906 155.853 c 0
 145.409472743 149.864560055 141.567628906 138.7840932 141.567628906 120.675 c 3
 141.567628906 106.38302614 156.264530177 75.292 182.391628906 75.292 c 3
 200.650067704 75.292 232.015026435 106.695737601 234.83774707 113.339298828 c 1
 230.756657746 133.240794093 228.908294828 156.374338193 229.122476562 181.954453125 c 1
EndSplineSet
Substitution2: "pcap-1" ae.pcap
Substitution2: "case-1" AE
Substitution2: "smcp-1" ae.smcp
EndChar

StartChar: germandbls
Encoding: 223 223 327
Width: 579
VWidth: 1159
Flags: W
HStem: -9 40<37 88.8477 173.148 208.525 365.019 460.981> 356 30<40 95.2842> 705 51<244.321 344.378>
VStem: 100 65<36.3341 356 396.595 588.58> 276 67<305.481 354.885> 301 22<88.2815 107.227> 396.559 58.286<487.211 649.856> 477 62<53.3627 166.162>
LayerCount: 2
Fore
SplineSet
312 756 m 0xfb
 411.877 756 454.845 679.623 454.845 588.779 c 0
 454.845 446.016 343 385.103 343 345 c 0xfb
 343 322 360.358 300 417 276 c 1
 495.85 246.667 539 186.985 539 128 c 0
 539 33.1543 458.812 -9 408 -9 c 0
 365.699560976 -9 332.401317073 2 300 16 c 1
 304 30 306 44 306 59 c 0
 306 68.3555 304.571 95.6445 301 105 c 1
 323 112 l 1xf7
 342.104493506 56.8506 380.314818182 31 426 31 c 0
 451.5 31 477 56.9092 477 106 c 0
 477 163.711 429.343 194.988 396 212 c 0
 347 237 276 253 276 324 c 0
 276 346 396.559 432.484 396.559 571.703 c 0
 396.559 648.474 347.395 705 278 705 c 0
 190.602 705 180.067 591.244 171 454 c 1
 167.34 417.394 165 295.325 165 249 c 0
 165 182.096 166.167 119.272 172 54 c 0
 172.739 39 177.174 34 189 33 c 0
 196.534 32 203.466 32 211 31 c 1
 208 -6 l 1
 182.625 -1 146.375 1 121 1 c 0
 97.2266 1 60.7734 -2 37 -6 c 1
 36 30 l 1
 47 31 61 31 72 33 c 1
 89.5947 40 91.8652 53 93 81 c 1
 97.375 120.633 100 172.459 100 222 c 0
 99.4055 259.124 99.1645 308.001 99.0667 356 c 1
 40 356 l 1
 40 386 l 1
 59.9402 389.935 79.0951 397.74 99.0097 401.801 c 1
 99 418.369 99 434.298 99 449 c 0
 99 579.533 140.062 647.199 205 704 c 0
 235.911 731 265.237 756 312 756 c 0xfb
EndSplineSet
MultipleSubs2: "case-2" S S
Substitution2: "pcap-1" uni1E9E.pcap
Substitution2: "case-1" uni1E9E
Substitution2: "smcp-1" uni1E9E.smcp
EndChar

StartChar: greater
Encoding: 62 62 333
Width: 463
VWidth: 0
Flags: W
HStem: -7 21G<56.6141 101.337> 392 20G<102.6 145.349>
LayerCount: 2
Fore
SplineSet
60.4565 335.3192 m 1
 117.47 412 l 1
 412 200.706 l 1
 68.236 -7 l 1
 49.795 24.735 l 1
 291.7815 167.6422 l 1
 60.4565 335.3192 l 1
EndSplineSet
Position2: "'case' vertical ajustments for all-caps-1" dx=0 dy=90 dh=0 dv=0
EndChar

StartChar: braceleft
Encoding: 123 123 336
Width: 266
VWidth: 1515
Flags: W
HStem: -220.524 39.029<203.883 239.5> 668.095 39.029<203.368 239.5>
VStem: 80.03 100.219<-129.542 77.7776 409.856 611.34> 88.766 114.174<-9.81623 157.369 330.24 495.872>
LayerCount: 2
Fore
SplineSet
239.5 707.124224023 m 1xe0
 239.5 707.124224023 239.5 694.052454023 239.5 668.095224023 c 1
 202.567234508 667.072610605 180.2485 633.395337993 180.2485 533.451124023 c 3xe0
 180.2485 465.140248923 202.94 456.350154365 202.94 390 c 3
 202.94 334.827084254 122.337736323 255.93818896 115.057 243.300224024 c 1
 122.337736323 230.662187278 202.94 154.067077545 202.94 96.5995892469 c 3xd0
 202.94 34.8367220819 180.2485 15.7242334045 180.2485 -46.8515347766 c 3
 180.2485 -144.501998781 196.798499215 -180.472166036 239.5 -181.494775976 c 1
 239.5 -220.523775976 l 1
 164.125403235 -228.942699838 80.03 -177.779244145 80.03 6.17979462344 c 3xe0
 80.03 47.8497437814 88.766 90.3500711547 88.766 103.040589247 c 3
 88.766 149.887387121 64.2984584605 209.183173433 11.5 230.300224024 c 1
 11.5 257.447224024 l 1
 66.5924584605 278.372901801 88.766 338.271653362 88.766 383.559 c 3xd0
 88.766 391.661268389 80.03 444.484732758 80.03 480.420224023 c 3
 80.03 664.379653328 171.108609117 715.543151295 239.5 707.124224023 c 1xe0
EndSplineSet
Position2: "cpsp-1" dx=0 dy=0 dh=50 dv=100
Position2: "'case' vertical ajustments for all-caps-1" dx=0 dy=90 dh=0 dv=0
EndChar

StartChar: asciitilde
Encoding: 126 126 339
Width: 394
VWidth: 0
Flags: W
HStem: 161.325 109.88<197.286 313.215>
LayerCount: 2
Fore
SplineSet
15.706 168.913 m 1
 46.446 241.880244444 116.566666666 311.675 111 311.675 c 3
 155.120931818 311.675 248.493136363 271.205 291.588 271.205 c 3
 298.668363637 271.205 319.909454545 295.947826087 330.53 322.94 c 1
 378.294 311.087 l 1
 354.643411764 245.44772165 301.004305882 161.325 297.882 161.325 c 3
 253.5774 161.325 146.996400001 201.795 97.971 201.795 c 3
 88.69875 201.795 68.0145 173.559923077 58.029 155.913 c 1
 15.706 168.913 l 1
EndSplineSet
Position2: "cpsp-1" dx=0 dy=0 dh=50 dv=100
Position2: "'case' vertical ajustments for all-caps-1" dx=0 dy=90 dh=0 dv=0
EndChar

StartChar: kgreenlandic
Encoding: 312 312 345
Width: 520
VWidth: 1159
Flags: W
HStem: -5 33<33.6364 85.0934 314.455 358.094 457 501.545> 344 29<39.7931 76.7086> 374 27<269 299.949 413.248 459.333> 395 20G<145.5 187>
VStem: 105 64<42.314 204 227 346.994>
LayerCount: 2
Fore
SplineSet
179 211 m 1xe8
 169 204 l 1
 169 140.25 171.723635175 78.5727361869 175 54 c 0
 177 39 185.619315018 37.1522739927 196 33 c 0
 206 29 216 28 230 27 c 1
 225 -7 l 1
 191 -1 172 4 130 4 c 3
 100 4 64 -3 34 -5 c 1
 32 28 l 1
 43 29 54.2438024311 30.030722479 64 33 c 0
 87 40 93.3132247115 48.0575369992 96 76 c 0
 101 128 105 170 105 235 c 3
 105 253.368013699 103.27297056 281.632471039 101 318 c 0
 100 334 94 348 77 348 c 3
 71 348 51 345 41 344 c 1
 36 373 l 1
 88 381.884615385 124 387.538461538 167 415 c 1xd8
 187 399 l 1
 181 385 174.184346429 357.982026431 173 347 c 0
 171 328.454705882 168 273.908529412 167 227 c 1
 201.5858 255.29682906 250.733796152 297.620653704 285 330 c 0
 291.596571429 336.233333333 301 348.518518519 301 355 c 3
 301 373 277 372 267 374 c 1
 269 401 l 1
 295 399 330 399 357 399 c 3
 388.166666667 399 428.777777778 399 459 403 c 1
 461 371 l 1
 400.820895522 364.000222222 364.689666047 341.369176033 333 319 c 2
 231 247 l 1
 297.824402928 186.179636497 367.532605558 122.858938129 446 52 c 1
 462 37 490 29 504 28 c 1
 501 -6 l 1
 467 0 449 4 407 4 c 3
 377 4 345 -3 315 -5 c 1
 312 28 l 1
 348 33 348 37 359 38 c 1
 296.777686305 99.8038948798 205.773756239 186.901875399 179 211 c 1xe8
EndSplineSet
MultipleSubs2: "case-2" K quoteleft
EndChar

StartChar: OE
Encoding: 338 338 346
Width: 1081
VWidth: 1159
Flags: W
HStem: -7 49<336.528 518.419> 3.06988 37.3024<639.125 901.73> 334 36<614 882.393> 650 44<298.396 500.529>
VStem: 37 93<266.365 448.041> 531 93<373.564 620.777> 534.995 79.0053<90.5 334 370 605.156> 906 36<248.75 306.348 394.846 442.094> 947 30<539 620.59> 1007 28<152.034 171.75>
LayerCount: 2
Fore
SplineSet
385 650 m 3xbdc0
 244 650 130 535.515933333 130 377 c 3
 130 202.722537538 273 42 443 42 c 3
 495.7 42 533 62.631 533 92 c 1
 534.422110588 116.770777747 534.994687396 175.604459673 534.994687396 244.572312164 c 0xbbc0
 534.994687396 369.591771373 533.113224845 527.911675418 531 577 c 0
 528.17 641.262 448.642 650 385 650 c 3xbdc0
424 -7 m 3
 210 -7 37 145.659140762 37 336 c 3
 37 527.127628169 212 694 422 694 c 3
 507.490017004 694 461.789007914 684.96875 696.956054688 684.96875 c 3
 838.863027557 684.96875 966.475003159 689.186881304 983 693 c 1
 994.145145837 683.247997393 998.133414459 677.741599913 998.133414459 669.087387512 c 0
 998.133414459 652.893580795 984.168856119 625.677987617 977 539 c 1
 947 536 l 1
 936 572 955 619 919 630 c 0
 856 648 737 653 656 643 c 0
 638 641 625 627 624 609 c 0xbdc0
 620 526.970338983 615 445.953389831 614 370 c 1
 678 372 838 372 852 373 c 0
 889 378 894 404 910 448 c 1
 944 441 l 1
 935.800908316 410.132831309 932.486685813 379.498275435 932.486685813 348.871954284 c 0
 932.486685813 315.997648821 936.305294619 283.132831309 942 250 c 1
 906 241 l 1
 886 312 893 325 852 329 c 0
 808 334 707 333 614 334 c 1
 613 236.227091633 617 147.525896414 629 81 c 0
 633 64 642 50 659 49 c 0
 704.831179232 44.5647245905 745.319436302 40.3723092792 783.696225476 40.3723092792 c 0
 823.193090286 40.3723092792 860.453436792 44.8130178498 899 58 c 0
 958 78 968 101 1007 177 c 1
 1035 170 l 1
 1019 104 1008 62 996 0 c 1
 886.301 -0.545565 771.508 3.06988 667.928 3.06988 c 3x7bc0
 487.932 3.06988 491.022 -7.00001 424 -7 c 3
EndSplineSet
Position2: "cpsp-1" dx=0 dy=0 dh=50 dv=100
Substitution2: "c2pc-1" oe.pcap
Substitution2: "c2sc-1" oe.smcp
EndChar

StartChar: uni2605
Encoding: 9733 9733 347
Width: 821
VWidth: 0
Flags: W
HStem: 734.883 20G<403.898 416.932>
LayerCount: 2
Fore
SplineSet
831.965150391 449.298687304 m 1
 571.580300781 259.660763867 l 1
 670.821365429 -45.9230751953 l 1
 410.436515821 143.715968359 l 1
 150.05166621 -45.9230751953 l 1
 249.292730859 260.643204492 l 1
 -11.09254815 449.298687304 l 1
 310.213010547 448.316246679 l 1
 410.436515821 754.882526367 l 1
 509.677580469 449.298687304 l 1
 831.965150391 449.298687304 l 1
EndSplineSet
EndChar

StartChar: uni2606
Encoding: 9734 9734 348
Width: 821
VWidth: 30
Flags: W
HStem: 362.419 87.0634<259.694 310.397 509.861 561.997> 735.066 20G<404.082 417.115>
LayerCount: 2
Fore
SplineSet
561.99733354 362.419022071 m 1
 447.212270812 364.877479781 l 1
 410.712610859 472.529713992 l 1
 374.983171179 363.824536672 l 1
 259.693855297 362.308283531 l 1
 353.090118156 293.492410085 l 1
 317.126900648 183.310388971 l 1
 410.432931446 254.260924773 l 1
 504.215620696 183.345577054 l 1
 467.775744734 292.439466977 l 1
 561.99733354 362.419022071 l 1
832.148849609 449.482386523 m 1
 571.764 259.844463085 l 1
 671.005064648 -45.7393759766 l 1
 410.62021504 143.899667578 l 1
 150.235365429 -45.7393759766 l 1
 249.476430078 260.82690371 l 1
 -10.9088489313 449.482386523 l 1
 310.396709766 448.499945898 l 1
 410.62021504 755.066225585 l 1
 509.861279688 449.482386523 l 1
 832.148849609 449.482386523 l 1
EndSplineSet
EndChar

StartChar: uni261C
Encoding: 9756 9756 349
Width: 2241
Flags: W
HStem: -39.8809 34.5928<702.366 803.644>
VStem: 65.4062 47.9918<389.495 407.811>
LayerCount: 2
Fore
SplineSet
65.4062 488.98 m 1
 133.471 493.169 171.866 495.579 238.634 514.306 c 1
 246.596 504.546 534.656 534.515 542.911 561.332 c 1
 564.898 551.482 577.512 547.037 605.929 570.229 c 1
 773.769 556.794 986.458 616.839 1106 648 c 1
 1329.25 569.701 1572.25 468.729 1696.18 430.638 c 1
 1739.57 483.052 1793.53 507.924 1848.05 516.793 c 1
 2110.43 547.303 l 1
 2163.02 255.056 2175.68 -29.6611 2148.35 -306.85 c 1
 1892.24 -297.519 l 1
 1875.45 -261.822 1858.65 -226.126 1841.85 -190.43 c 1
 1814.48 -179.761 1789.09 -165.358 1754.94 -149.172 c 1
 1614.8 -241.059 1469.34 -206.779 1327.96 -171.926 c 1
 1302.89 -235.181 1261.64 -288.312 1185.82 -267.69 c 1
 1164.81 -330.418 1107.45 -355.95 1072.25 -326.185 c 0
 999.4 -264.557 891.756 -230.288 835.198 -172.483 c 1
 682.232 -206.512 560.41 -112.538 687.913 48.1104 c 1
 660.334 112.992 745.543 185.467 777.889 271.683 c 1
 695.375 282.243 590.004 307.018 566.297 298.763 c 0
 515.511 281.073 363.284 309.172 334.218 317.119 c 1
 176.398 304.119 59.9014 331.849 65.4062 488.98 c 1
227.493 480.275 m 1
 178.401 472.663 150.689 468.371 101.594 460.757 c 1
 93.8691 413.082 244.447 408.912 227.493 480.275 c 1
1084.38 592.183 m 0
 825.397 554.269 996.286 546.32 636.788 522.399 c 0
 585.692 519 590.137 488.802 569.033 486.987 c 0
 550.55 485.4 544.591 511.314 526.415 507.695 c 0
 434.1 489.321 365.902 488.599 263.3 476.39 c 1
 250.997 394.928 192.292 410.334 113.398 407.811 c 1
 114.412 376.567 264.124 347.652 350.099 377.665 c 1
 407.623 368.682 461.089 357.379 523.575 380.384 c 1
 604.456 372.626 651.254 355.211 727.339 401.371 c 1
 807.605 356.047 974.055 358.16 1064.13 421.6 c 1
 1070.94 421.779 1071.33 413.38 1077.52 410.565 c 1
 1051.33 362.256 1084.46 312.087 1114.36 315.387 c 0
 1130.39 317.154 1149.22 354.088 1163.9 376.21 c 0
 1172.19 388.706 1208.8 379.251 1202.08 365.563 c 0
 1164.56 289.234 1183.03 221.194 1302.92 308.083 c 0
 1330.21 327.857 1391.28 329.565 1389.06 296.334 c 0
 1387.54 273.576 1345.13 302.372 1303.25 264.596 c 0
 1210.07 180.539 1123.04 118.563 1008.84 107.013 c 1
 996.464 98.4824 989.483 93.6709 977.105 85.1396 c 1
 876.257 142.62 705.042 54.8047 694.435 -5.28809 c 1
 757.921 -1.57617 796.29 11.3975 834.737 -28.0469 c 1
 861.688 11.0107 922.306 3.84277 985.483 11.0127 c 1
 998.435 5.33398 1005.74 2.13281 1018.69 -3.54395 c 1
 1031.07 4.98828 1038.05 9.79883 1050.42 18.3291 c 1
 1063.43 11.9795 1070.77 8.39844 1083.78 2.04883 c 1
 1093.29 11.6924 1098.66 17.1289 1108.17 26.7725 c 1
 1169 0.666992 1265.6 3.79102 1298.85 55.3369 c 0
 1307.77 69.1582 1331.21 74.7871 1353.92 73.9941 c 0
 1497.96 68.9609 1697.02 60.1641 1760.13 150.666 c 0
 1796.28 202.51 1766.13 361.801 1721.3 387.54 c 1
 1551.99 437.4 1391.01 515.096 1175.49 584.343 c 0
 1141.59 595.234 1119.66 597.348 1084.38 592.183 c 0
823.456 -100.385 m 1
 821.674 -60.501 792.91 -39.6387 757.787 -39.8809 c 0
 715.507 -40.1699 663.499 -75.8311 669.326 -101.442 c 0
 672.815 -116.764 791.04 -134.5 823.456 -100.385 c 1
1825.2 474.796 m 1
 1793.57 452.477 1775.72 439.887 1744.09 417.571 c 1
 1790.28 409.132 l 1
 1834.35 392.028 1910.85 90.5078 1840.19 -91.3711 c 1
 1844.61 -94.3838 1847.1 -96.085 1851.52 -99.1006 c 1
 1989.62 -17.6104 1923.24 389.222 1825.2 474.796 c 1
EndSplineSet
EndChar

StartChar: uni261E
Encoding: 9758 9758 350
Width: 2241
Flags: HMW
LayerCount: 2
Fore
SplineSet
2162.17 488.98 m 1
 2167.68 331.849 2051.18 304.119 1893.36 317.119 c 1
 1864.29 309.172 1712.07 281.073 1661.28 298.763 c 0
 1637.57 307.018 1532.2 282.243 1449.69 271.683 c 1
 1482.03 185.467 1567.24 112.992 1539.66 48.1104 c 1
 1667.17 -112.538 1545.34 -206.512 1392.38 -172.483 c 1
 1335.82 -230.288 1228.18 -264.557 1155.32 -326.185 c 0
 1120.13 -355.95 1062.77 -330.418 1041.76 -267.69 c 1
 965.937 -288.312 924.688 -235.181 899.613 -171.926 c 1
 758.235 -206.779 612.779 -241.059 472.641 -149.172 c 1
 438.485 -165.358 413.094 -179.761 385.725 -190.43 c 1
 368.927 -226.126 352.131 -261.822 335.333 -297.519 c 1
 79.2285 -306.85 l 1
 51.9014 -29.6611 64.5586 255.056 117.149 547.303 c 1
 379.524 516.793 l 1
 434.047 507.924 488.01 483.052 531.394 430.638 c 1
 655.332 468.729 898.328 569.701 1121.58 648 c 1
 1241.12 616.839 1453.81 556.794 1621.65 570.229 c 1
 1650.07 547.037 1662.68 551.482 1684.67 561.332 c 1
 1692.92 534.515 1980.98 504.546 1988.94 514.306 c 1
 2055.71 495.579 2094.11 493.169 2162.17 488.98 c 1
2000.08 480.275 m 1
 1983.13 408.912 2133.71 413.082 2125.98 460.757 c 1
 2076.89 468.371 2049.18 472.663 2000.08 480.275 c 1
1143.19 592.183 m 0
 1107.92 597.348 1085.99 595.234 1052.09 584.343 c 0
 836.569 515.096 675.586 437.4 506.281 387.54 c 1
 461.443 361.801 431.295 202.51 467.448 150.666 c 0
 530.558 60.1641 729.622 68.9609 873.661 73.9941 c 0
 896.366 74.7871 919.808 69.1582 928.726 55.3369 c 0
 961.981 3.79102 1058.58 0.666992 1119.41 26.7725 c 1
 1128.92 17.1289 1134.29 11.6924 1143.8 2.04883 c 1
 1156.8 8.39844 1164.14 11.9795 1177.15 18.3291 c 1
 1189.53 9.79883 1196.51 4.98828 1208.89 -3.54395 c 1
 1221.83 2.13281 1229.14 5.33398 1242.09 11.0127 c 1
 1305.27 3.84277 1365.89 11.0107 1392.84 -28.0469 c 1
 1431.29 11.3975 1469.66 -1.57617 1533.14 -5.28809 c 1
 1522.54 54.8047 1351.32 142.62 1250.47 85.1396 c 1
 1238.09 93.6709 1231.11 98.4824 1218.74 107.013 c 1
 1104.54 118.563 1017.5 180.539 924.325 264.596 c 0
 882.445 302.372 840.035 273.576 838.518 296.334 c 0
 836.301 329.565 897.366 327.857 924.653 308.083 c 0
 1044.55 221.194 1063.02 289.234 1025.5 365.563 c 0
 1018.77 379.251 1055.38 388.706 1063.68 376.21 c 0
 1078.36 354.088 1097.19 317.154 1113.21 315.387 c 0
 1143.12 312.087 1176.25 362.256 1150.06 410.565 c 1
 1156.25 413.38 1156.63 421.779 1163.45 421.6 c 1
 1253.52 358.16 1419.97 356.047 1500.24 401.371 c 1
 1576.32 355.211 1623.12 372.626 1704 380.384 c 1
 1766.49 357.379 1819.95 368.682 1877.48 377.665 c 1
 1963.45 347.652 2113.17 376.567 2114.18 407.811 c 1
 2035.29 410.334 1976.58 394.928 1964.28 476.39 c 1
 1861.67 488.599 1793.48 489.321 1701.16 507.695 c 0
 1682.99 511.314 1677.03 485.4 1658.54 486.987 c 0
 1637.44 488.802 1641.88 519 1590.79 522.399 c 0
 1231.29 546.32 1402.18 554.269 1143.19 592.183 c 0
1404.12 -100.385 m 1
 1436.54 -134.5 1554.76 -116.764 1558.25 -101.442 c 0
 1564.08 -75.8311 1512.07 -40.1699 1469.79 -39.8809 c 0
 1434.67 -39.6387 1405.9 -60.501 1404.12 -100.385 c 1
402.373 474.796 m 1
 304.342 389.222 237.955 -17.6104 376.058 -99.1006 c 1
 380.473 -96.085 382.967 -94.3838 387.383 -91.3711 c 1
 316.725 90.5078 393.227 392.028 437.294 409.132 c 1
 483.483 417.571 l 1
 451.853 439.887 434.009 452.477 402.373 474.796 c 1
EndSplineSet
EndChar

StartChar: uni211F
Encoding: 8479 8479 429
Width: 831
UnlinkRmOvrlpSave: 1
Flags: W
LayerCount: 2
Fore
SplineSet
485 -72 m 1
 591 95.0902527076 741 461.097472924 737 479 c 1
 626 519 l 1
 617.75 542.192771084 663.209090147 573.033501641 692 596 c 1
 739.19 579.23 765.81 569.77 813 553 c 1
 773 475 572.146067416 -19.3583460949 537 -97 c 1
 485 -72 l 1
EndSplineSet
Refer: 43 82 N 1 0 0 1 0 0 2
EndChar

StartChar: uni2123
Encoding: 8483 8483 430
Width: 841
UnlinkRmOvrlpSave: 1
Flags: W
HStem: 643.383 44.4609<276.219 357.319 515.311 614.204> 678 20G<9.18857 45.0083 513.22 531.517 817.603 831.54>
VStem: 385.53 71.234<-27 59.9921>
LayerCount: 2
Fore
SplineSet
201 -72 m 1x20
 307 95.0902527076 457 461.097472924 453 479 c 1
 342 519 l 1
 333.75 542.192771084 379.209090147 573.033501641 408 596 c 1
 455.19 579.23 481.81 569.77 529 553 c 1
 489 475 288.146067416 -19.3583460949 253 -97 c 1
 201 -72 l 1x20
EndSplineSet
Refer: 54 86 N 1 0 0 1 0 0 2
EndChar

StartChar: estimated
Encoding: 8494 8494 431
Width: 752
VWidth: 0
Flags: W
HStem: -9 50.917<266.135 484.333> 310.923 51.15<191.384 562.454> 632.006 50.917<264.706 485.147>
VStem: 30.1973 161.187<217.349 310.923 362.073 455.702> 562.454 159.576<362.073 456.3>
LayerCount: 2
Fore
SplineSet
632.777 191.846 m 1
 676.861 166.441 l 1
 673.98 161.581 l 2
 613.377 59.3301 501.767 -9 376 -9 c 0
 189.553 -9 30.1973 142.604 30.1973 338.341 c 0
 30.1973 525.945 184.438 682.615 375.52 682.923 c 2
 376.044 682.923 l 2
 564.48 682.923 722.035 529.016 722.03 336.942 c 0
 722.03 329.967 721.813 323.039 721.4 316.168 c 2
 721.084 310.923 l 1
 191.384 310.923 l 1
 191.384 107.399 l 1
 242.467 66.2236 307.069 41.917 376 41.917 c 0
 483.087 41.917 578.216 100.053 629.964 187.113 c 2
 632.777 191.846 l 1
191.384 566.668 m 1
 191.384 362.073 l 1
 562.454 362.073 l 1
 562.454 565.158 l 1
 511.302 606.997 446.18 632.006 376.044 632.006 c 2
 375.598 632.006 l 2
 305.803 631.894 241.805 607.323 191.384 566.668 c 1
EndSplineSet
EndChar

StartChar: uni2023
Encoding: 8227 8227 436
Width: 614
Flags: W
LayerCount: 2
Back
Fore
SplineSet
568.764 310.082430125 m 1
 568.764 272.559 l 1
 538.352 238.795 408.701967403 184.276758558 339.942 148.605989 c 0
 218.718181551 77.372965885 147.614994366 -43.5046242922 121.221660154 -30.5582416822 c 1
 93.920784164 -30.5582416822 65.8112042426 -12.2105500119 47.6698941281 4.115212775 c 1
 44.1645059779 32.0484400597 54.0173380135 545.146466629 36.0249747 572.3965 c 1
 36.988232494 576.41591527 69.6802511402 603.727266516 91.3026680859 603.727266516 c 1
 117.966505208 615.887106516 244.640083529 482.532747251 305.40692 438.650273 c 0
 404.174868544 380.296117071 525.348138698 346.589074714 568.764 310.082430125 c 1
EndSplineSet
EndChar

StartChar: dagger
Encoding: 8224 8224 437
Width: 442
Flags: W
HStem: 453.149 163.555<28.6748 79.0654 363.583 411.95>
VStem: 207.853 26.147<-18 96.8487>
LayerCount: 2
Fore
SplineSet
322.027 370 m 1
 261.911 262 259.764 250 234 -18 c 1
 207.853 -18 l 1
 177.795 266 176.59360254 282.899414062 119.826 370 c 1
 179.942 440.467732026 190.677 459.325294117 207.853 521.853 c 1
 127.118 500.383 l 2
 64.4410465504 478.913 70.800090909 453.149 42.089 453.149 c 3
 40.4908801326 453.149 3.236 505.383 3.236 533.853 c 3
 3.236 563.116116171 42.4688427734 616.704 44.236 616.704 c 3
 71.4998157894 616.704 71.6379057549 593.087 127.118 573.764 c 2
 207.853 552.294 l 1
 184.236 623.441 l 2
 169.207 667.865720183 139.149 685.294256098 139.149 706.588 c 3
 139.149 704.174045223 193.240038569 747.882005687 222 747.882 c 1
 250.6279684 747.881994216 304.851 704.17232687 304.851 710.882 c 3
 304.851 686.939821429 274.793 669.99445287 259.764 623.441 c 2
 236.147 552.294 l 1
 316.882 573.764 l 2
 377.894614997 595.234 371.409631579 618.851 399.764 618.851 c 3
 401.975535935 618.851 440.764 566.99809049 440.764 538.147 c 3
 440.764 510.075737994 399.541915532 455.296 397.617 455.296 c 3
 370.705333333 455.296 371.979882857 481.06 316.882 500.383 c 2
 234 521.853 l 1
 251.176 460.317797385 261.911 441.460235294 322.027 370 c 1
EndSplineSet
EndChar

StartChar: daggerdbl
Encoding: 8225 8225 438
Width: 442
Flags: W
HStem: -12.882 21G<204.203 235.503>
LayerCount: 2
Fore
SplineSet
137.002 369 m 1
 185.388048781 439.471188312 194.028414635 459.322227273 207.853 521.853 c 1
 134 500.383 l 2
 79.2966540858 478.913 83 453.149 57 453.149 c 3
 57.8275086913 453.149 3.236 502.67190909 3.236 533.853 c 3
 3.236 565.152266667 62.561422923 616.704 58 616.704 c 3
 83 616.704 84.1297298224 593.087 134 573.764 c 2
 207.853 552.294 l 1
 184.236 620 l 2
 169.207 656.823714253 139.149 679.293487805 139.149 699.706 c 3
 139.149 702.26551282 190.700733333 747.882 222 747.882 c 3
 253.299266667 747.882 304.851 703.399 304.851 704 c 3
 304.851 681 274.793 656.860040943 259.764 620 c 2
 236.147 552.294 l 1
 310 573.764 l 2
 364.842328516 595.234 360 618.851 386 618.851 c 3
 381.602931688 618.851 440.764 569.32809091 440.764 538.147 c 3
 440.764 506.847733333 381.664852958 455.296 385 455.296 c 3
 360 455.296 359.599101903 481.06 310 500.383 c 2
 234 521.853 l 1
 247.824585365 460.314779221 256.464951219 440.463740259 304.851 369 c 1
 256.464951219 298.518707006 247.824585365 275.686738854 234 213.147 c 1
 309 234.617 l 2
 363.720836758 256.087 360 281.851 386 281.851 c 3
 384.025491309 281.851 439.764 232.32809091 439.764 201.147 c 3
 439.764 169.847733333 380.775459152 118.296 383.853 118.296 c 3
 359.230302631 118.296 358.133372696 141.913 309 161.236 c 2
 234 182.706 l 1
 257.617 115 l 2
 272.646 77.3357448892 302.704 54 302.704 33 c 3
 302.704 33.3226923077 251.152266667 -12.882 219.853 -12.882 c 3
 188.553733333 -12.882 137.002 33.058 137.002 24.118 c 3
 137.002 49.0023571429 167.06 75.1492057075 182.089 115 c 2
 205.706 182.706 l 1
 133 161.236 l 2
 78.1832604333 139.766 83 116.149 57 116.149 c 3
 61.3970683117 116.149 2.236 165.67190909 2.236 196.853 c 3
 2.236 228.152266667 61.3351470424 279.704 58 279.704 c 3
 83 279.704 83.2668154865 253.94 133 234.617 c 2
 207.853 213.147 l 1
 194.028414635 274.694044586 185.388048781 297.526012739 137.002 369 c 1
EndSplineSet
EndChar

StartChar: longs
Encoding: 383 383 445
Width: 357
VWidth: 1159
Flags: W
HStem: -6 36<34 97.3708 215.17 284.568> 1 32<191.619 282.018> 356 25<46 67.3182> 701 55<273.459 377.117>
VStem: 113 72<42.1466 356 403 602.768>
LayerCount: 2
Fore
SplineSet
359 756 m 3x78
 391 756 441 745 466 723 c 1
 465 696 466 696 417 659 c 1
 378 677 347 701 309 701 c 3
 206 701 201 609 191 498 c 0
 187.339 461.394 185 339.326 185 293 c 3
 185 211 186 134 191 54 c 0
 192 39 198 34 214 33 c 0x78
 239 32 262 32 287 31 c 1
 284 -6 l 1xb8
 242 -1 182 1 140 1 c 3x78
 110 1 64 -2 34 -6 c 1
 33 30 l 1xb8
 44 31 58 31 69 33 c 0
 100 40 104 53 106 81 c 0
 111 133 114 201 114 266 c 3
 114 285.149 113 320.574 113 356 c 1
 46 356 l 1
 46 381 l 1
 113 403 l 1
 113 439.562 113 481.75 113 493 c 3
 113 601 156 657 224 704 c 0
 263 731 300 756 359 756 c 3x78
EndSplineSet
Substitution2: "case-1" S
Substitution2: "pcap-1" s.pcap
Substitution2: "smcp-1" s.smcp
EndChar

StartChar: ohorn
Encoding: 417 417 448
Width: 505
VWidth: 0
UnlinkRmOvrlpSave: 1
Flags: W
HStem: -11 56.205<237.363 316.648> 356.795 58.764<187.367 263.537> 365.36 24.3843<349.604 421.731> 382.741 20G<338.441 342.053>
VStem: 32 135.644<147.287 284.246> 339.944 133.056<108.859 263.893> 442.501 86.0273<403.736 481.559>
LayerCount: 2
Fore
SplineSet
334.482421875 402.741210938 m 1x9a
 349.62424831 396.926343349 372.471667174 389.744140625 386.686523438 389.744140625 c 3
 411.796269819 389.744140625 442.501138157 408.271731058 442.501138157 441.560602678 c 3
 442.501138157 449.63955766 438.983530489 459.025418514 428.6640625 470.818359375 c 1
 444.576416165 489.781030223 464.379979468 500.219391987 482.796821553 500.219391987 c 3
 512.365850716 500.219391987 528.528388939 475.09191665 528.528388939 445.9790134 c 3
 528.528388939 396.089685559 450.426516037 365.359813167 388.72825766 365.359813167 c 3xaa
 357.132622939 365.359813167 342.400200021 377.606700862 334.482421875 402.741210938 c 1x9a
EndSplineSet
Refer: 14 111 N 1 0 0 1 0 0 2
Substitution2: "smcp-1" ohorn.smcp
Substitution2: "case-1" Ohorn
Substitution2: "pcap-1" ohorn.pcap
EndChar

StartChar: uhorn
Encoding: 432 432 449
Width: 526
VWidth: 0
UnlinkRmOvrlpSave: 1
Flags: W
HStem: -11 55<175.733 263.795> 338 31<292 351.243> 402 20G<128 167>
VStem: 70 76<75.1633 330.249> 359 64<36.0058 52 76.9705 331.63> 493.501 86.0273<404.739 481.559>
LayerCount: 2
Fore
SplineSet
410 375 m 1
 418.121414362 381.745491074 430.375771951 388.077148438 438 390.077148438 c 1
 462.968647592 396.077148438 493.500976562 408.485648026 493.500976562 441.560546875 c 3
 493.500976562 449.639517266 489.983409974 459.025396022 479.6640625 470.818359375 c 1
 495.576431876 489.781246013 515.380014732 500.219726562 533.796875 500.219726562 c 3
 563.365825233 500.219726562 579.528320312 475.092318034 579.528320312 445.979492188 c 3
 579.528320312 396.08959691 501.426629866 370.359375 439.728515625 365.359375 c 1
 422.413060772 365.359375 414.339204806 368.517835056 410 375 c 1
285 369 m 1
 339.422818792 375.199161305 395.899328859 382.557301496 438 390.077148438 c 1
 445 378 l 1
 431 335.584 423 173.632 423 137 c 3
 423 107 426.284077022 81.1592297825 429 54 c 0
 430 44 433 36 443 36 c 3
 447 36 473 43 493 48 c 1
 499 17 l 1
 463 8 419.410107664 -9.647473084 386 -18 c 0
 382 -19 381 -22 376 -22 c 3
 359 -22 359 0 354 52 c 1
 313 34 236 -11 178 -11 c 3
 140 -11 102.934188969 5.51320688895 86 44 c 0
 75 69 70 95 70 143 c 3
 70 198 73 255 73 312 c 0
 73 322 69 331 59 331 c 3
 49 331 28 319 22 317 c 1
 12 348 l 1
 53 359 107 394 149 422 c 1
 167 406 l 1
 152 336 146 254 146 177 c 3
 146 106 161 44 232 44 c 3
 269 44 322 69 353 85 c 1
 354 154 359 291 359 298 c 3
 359 337 329 337 292 338 c 1
 285 369 l 1
EndSplineSet
Substitution2: "smcp-1" uhorn.smcp
Substitution2: "case-1" Uhorn
Substitution2: "pcap-1" uhorn.pcap
EndChar

StartChar: yen
Encoding: 165 165 451
Width: 463
VWidth: 1159
UnlinkRmOvrlpSave: 1
Flags: W
HStem: -195.143 27.832<290.394 317.58> -25.1615 46.323<93 383> 74.8385 46.323<93 383>
VStem: 207.261 75.8369<-163.561 112.389>
LayerCount: 2
Fore
SplineSet
274.890625 169.708984375 m 1
 274.314622807 115.248982948 272.283654214 50.1171047102 283.09765625 -128.499023438 c 0
 285.015173967 -160.170886375 292.119204273 -161.0586431 320.783203125 -167.310546875 c 1
 317.580078125 -195.142578125 l 1
 274.689595576 -186.83690152 222.038207283 -183.218788643 178.485351562 -198.678710938 c 1
 171.08984375 -171.665039062 l 1
 195.610467016 -162.26863286 206.390990071 -155.268664903 207.260742188 -117.220703125 c 0
 207.787638441 -104.621204106 205.843021338 150.767976016 205.118164062 143.750976562 c 1
 204.034116885 150.049303618 155.095264654 248.178623374 87.2695828038 343.999997223 c 0
 76.0701508093 359.82210075 59.2291043945 378.720580661 49 385 c 1
 139 433 l 1
 144.933661013 402.938576204 168.652866704 351.939024868 181.091541944 327.999991964 c 0
 221.31584563 250.585724695 252.239236655 211.848881796 255.486328125 207.837890625 c 1
 299.730787717 303.031969433 321.320964056 356.628741888 331 433 c 1
 345.5 424.066173481 396.25 400.848034565 418 391 c 1
 345.004852928 317.965777551 314.263107929 249.458544383 274.890625 169.708984375 c 1
EndSplineSet
Refer: 1970 58113 N 0.29 0 0 1.125 93 -2 2
Refer: 1970 58113 N 0.29 0 0 1.125 93 98 2
Position2: "'lnum-2' vertical adjustment" dx=0 dy=190 dh=0 dv=0
EndChar

StartChar: eth
Encoding: 240 240 453
Width: 471
VWidth: 1159
UnlinkRmOvrlpSave: 1
Flags: W
HStem: -5 83.41<147.956 303.086> 337.207 71.234<188.123 260.845>
VStem: 28 109.88<118.462 313.243> 314.385 120.615<129.231 329.681>
LayerCount: 2
Fore
SplineSet
311.561 243.621 m 1
 284.844151515 341.782788571 217.46766245 337.207 201.354 337.207 c 3
 193.076723077 337.207 137.88 337.400819329 137.88 289.085 c 3
 137.88 177.863639171 209.471899643 78.41 288.704 78.41 c 3
 306.810011368 78.41 314.385 123.463480024 314.385 163.002 c 3
 314.385 305.879336314 203.501 569.826 62.706 694.265 c 1
 67.5706415421 702.222027692 77.2373046875 727.453125 77.2373046875 727.453125 c 1
 260.283740169 675.166289781 435 439.719447105 435 235 c 3
 435 113.962890625 360.284179688 -5 193 -5 c 3
 102.911132812 -5 28 65.923828125 28 171 c 3
 28 328.67467314 184.51501695 408.441 290.381 408.441 c 3
 303.728656867 408.441 316.645374882 411.522593544 325.559 414.94 c 1
 311.561 243.621 l 1
EndSplineSet
Refer: 1970 58113 N 0.284488 0.177084 -0.547233 0.872389 82.963 489.958 2
Substitution2: "pcap-1" eth.pcap
Substitution2: "case-1" Eth
Substitution2: "smcp-1" eth.smcp
EndChar

StartChar: quotereversed
Encoding: 8219 8219 462
Width: 200
VWidth: 1159
Flags: W
HStem: 410.855 319.673
VStem: 0.100977 196.056
LayerCount: 2
Fore
SplineSet
184.303976562 410.855 m 1
 -27.7500234375 509.118 0.1009765625 631.588 0.1009765625 634.147 c 1
 0.1009765625 642.441 6.5419765625 648.588 13.8359765625 651.735 c 0
 39.9179482422 669.016617187 67.415421875 691.352 78.7469765625 714.646 c 0
 81.6755537109 722.959306641 91.3349765625 730.528 99.6289765625 730.528 c 3
 108.432629883 730.528 117.236283203 723.087 120.510976563 715.793 c 0
 137.859800781 691.859413085 156.686976563 666.176 183.421976562 651.735 c 0
 191.731922852 648.654086915 196.156976563 642.604537109 196.156976563 634.147 c 3
 196.156976563 626.04454004 191.862976562 615.79395996 184.568976563 613.412 c 0
 156.078752929 599.015804688 123.216976562 577.089 109.775976563 544.766 c 0
 85.7979726562 489.49978125 164.009976563 449.973 198.009976563 446.178 c 1
 184.303976562 410.855 l 1
EndSplineSet
Position2: "cpsp-1" dx=0 dy=0 dh=7 dv=14
EndChar

StartChar: uni20B9
Encoding: 8377 8377 466
Width: 426
VWidth: 1159
UnlinkRmOvrlpSave: 1
Flags: W
HStem: -42 23<381.506 409> 283 31<32 113.386> 460.095 28.999<33.25 411.25> 637.095 28.999<33.25 33.25 33.5 411.25>
VStem: 248 79<400.509 544.149>
LayerCount: 2
Fore
SplineSet
33.25 666.09375 m 1
 411.25 666.09375 l 1
 411.25 637.094726562 l 1
 33.25 637.094726562 l 1
 33.25 666.09375 l 1
33.25 489.09375 m 1
 411.25 489.09375 l 1
 411.25 460.094726562 l 1
 33.25 460.094726562 l 1
 33.25 489.09375 l 1
32.5 666 m 1
 57.25390625 666 67.658203125 666 96 666 c 0
 222.431640625 666 327 583 327 480 c 0
 327 393 262.599609375 334 189 304 c 1
 265.474609375 110.581054688 332.772460938 -13.0947265625 412 -19 c 1
 409 -42 l 1
 258 -39 178 134 114 284 c 1
 100.875 283 89.2080078125 283 79 283 c 0
 60.6474609375 283 50.3525390625 285.400390625 32 286 c 1
 32 316 l 1
 49.912109375 315.5 59.087890625 314 77 314 c 3
 219.663085938 314 248 410.737304688 248 469 c 3
 248 534.418945312 188.37890625 638 75 638 c 3
 61.8720703125 638 35.193359375 638 33.5 638 c 1
 32.5 666 l 1
EndSplineSet
EndChar

StartChar: eng
Encoding: 331 331 467
Width: 499
VWidth: 1159
Flags: W
HStem: -319 60<162.258 279.828> -7 34<20.4 68.4075 170.315 228.824> 335 29<32 53.5363> 358 57<245.574 353.177>
VStem: 95 66<47.5359 302.396> 379 69<-89.8607 331.73>
LayerCount: 2
Fore
SplineSet
329 -267 m 0xdc
 284.360294118 -296 253 -319 194 -319 c 3
 162 -319 112 -308 87 -286 c 1
 88 -259 87 -259 136 -222 c 1
 165.972222222 -237.857142857 189.796296296 -259 219 -259 c 3
 247.822033898 -259 296.27809609 -258.437912348 316 -237 c 0
 342.595265849 -208.090672547 360.595200234 -175.050461911 367 -146 c 0
 373.749647059 -115.385402827 379 -41.9109823322 379 143 c 3
 379 192.5 376.549026451 266.820841347 374 287 c 0
 369 328.328358209 348 358 293 358 c 3xdc
 245 358 203 344.4 170 324 c 1
 168 234.329113924 161 109.430379747 161 71 c 3
 161 27.80589946 195.795590225 30.6204409775 232 27 c 1
 228 -7 l 1
 189 -1 159 4 117 4 c 3
 87 4 51 -1 21 -5 c 1
 18 28 l 1
 55.449092135 34.8089258427 78.318284601 37.5524032329 87 76 c 0
 94 107 95 167 95 199 c 3
 95 219 92.9313485794 287.976104104 86 308 c 0
 77 334 72 336 54 336 c 3
 44 336 41 335 32 335 c 1
 30 364 l 1xec
 67 371 104 375 154 416 c 1
 175 401 l 1
 170 387.056338028 167 366.915492958 167 346 c 1
 215 377 267 415 330 415 c 3
 403 415 448 375 448 304 c 3
 448 213.433607383 445 119.425469455 445 -84 c 3
 445 -134 432.819094368 -164.880515375 419 -186 c 0
 396.752808989 -220 368.44138087 -241.377070309 329 -267 c 0xdc
EndSplineSet
Substitution2: "smcp-1" eng.smcp
Substitution2: "case-1" Eng
Substitution2: "pcap-1" eng.pcap
EndChar

StartChar: Eng
Encoding: 330 330 468
Width: 836
VWidth: 1159
Flags: W
HStem: -241 62<483.653 578.44> -10 44<23.3182 86.8179 186.794 270.067> 655 39<771.217 833> 663 38<601.079 678.507>
VStem: 97 55<66.5393 314.07> 105 56<351.62 550> 676.266 70.7344<-86.2532 70.0219>
LayerCount: 2
Fore
SplineSet
628 -189 m 0xe6
 589 -216 552 -241 493 -241 c 3
 461 -241 411 -230 386 -208 c 1
 387.224489796 -178.046875 386 -178.046875 446 -137 c 1
 485 -155 508.349151158 -179 554 -179 c 3
 640.616503398 -179 676.265625 -76.9678502479 676.265625 -13.4755859375 c 3
 676.265625 48.2626834417 640.03404243 103.097021502 604 139.090820312 c 0
 459.896 279.614068929 313.026 416.065410818 161 550 c 1xe6
 152 154 l 2
 149.672574689 52.4216563039 186 44.674796748 277 35 c 1
 269 -11 l 1
 229.225006617 -2.55029543162 191.72886241 0.193359375 156.584960938 0.193359375 c 0
 107.789937357 0.193359375 63.5294692282 -6.59829339283 24 -10 c 1
 19 34 l 1
 77 34 94.2505340003 45.0370931165 97 93 c 0xea
 106 246.782786885 108.836453881 409.412965035 105 571 c 0
 104 614 69 649 12 648 c 1
 14 692 l 1
 53 688 104.987806691 684 146 684 c 0
 161 684 162.224003945 680.217054625 169 673 c 0
 318.792 516.927864326 473.300161891 367.004316767 636 223.227539062 c 0
 659.155 202.310678333 682.86 176.9488472 699 154 c 1
 708 281.98180798 710.135155394 409.964631854 709 545 c 0
 708 667 656 656 597 663 c 1
 602 701 l 1xd6
 658.737273127 693.806776525 706.285370634 691.3984375 751.0625 691.3984375 c 0
 778.931628397 691.3984375 805.747514379 692.483615703 833 694 c 1
 837 655 l 1
 788 649 766.708243919 651.026764413 763 609 c 0
 748 442.189493433 745 264.596148366 745 86 c 0
 745 63 747 43 747 0 c 3
 747 -86.94 692.388915009 -144.42305884 628 -189 c 0xe6
EndSplineSet
Position2: "cpsp-1" dx=0 dy=0 dh=50 dv=100
Substitution2: "c2pc-1" eng.pcap
Substitution2: "c2sc-1" eng.smcp
EndChar

StartChar: uniE2E1
Encoding: 58081 58081 471
Width: 0
VWidth: 1159
Flags: W
HStem: 451.465 141.391
VStem: -323.78 252.561
LayerCount: 2
Fore
SplineSet
-71.2197304672 474.735507148 m 1
 -84.2195089609 451.465265203 l 1
 -198.0735 486.972152641 l 1
 -309.63356454 451.465265203 l 1
 -323.780313633 474.735507148 l 1
 -215.36429571 592.856614679 l 1
 -179.63570429 592.856614679 l 1
 -71.2197304672 474.735507148 l 1
EndSplineSet
EndChar

StartChar: uniE003
Encoding: 57347 57347 643
Width: 472
VWidth: 1159
Flags: W
HStem: -7 34.735<19.089 52.9323 151.421 199.352 219.298 254.925 414.161 452.323> 395 20G<227.118 273.595>
VStem: 227.118 45.911<342.68 415>
LayerCount: 2
Fore
SplineSet
160.089 130.149 m 1
 179.962839698 123.71525 230.922880101 125.002 249.472 125.002 c 1
 243.972099585 149.073755033 210.560214309 202.823679874 196.619 214.18 c 1
 185.46962 186.726846319 170.2248 153.680853274 160.089 130.149 c 1
219.298 -9.294 m 1
 219.298 -9.294 217.592 16.9644 216.739 27.176 c 1
 255.3724375 28.0909153847 260.046982455 53.0483164696 260.209 62.352 c 0
 261.41308 72.0593333333 262.185251172 73.5310400391 261.472 83.826 c 1
 244.368011082 95.9348544916 170.043198242 102.855 144.795 93.267 c 1
 141.49995996 82.1274716797 146.009145481 90.7903706246 142.058 78.528 c 0
 134.235850646 54.7378961048 159.767054545 20.1245862069 199.352 27.735 c 1
 207.528 -7 l 1
 182.967546201 -2.9169921875 136.021938016 -0.875 92.8076171875 -0.875 c 3
 63.399252042 -0.875 35.8026664584 -1.9169921875 19.089 -4 c 1
 19.089 -1.82353846153 15.22875 14.4999230769 13.942 24.294 c 1
 40.129254359 32.5056 73.6239792615 58.0626468003 77.412 65.352 c 0
 135.196222223 177.632344616 191.741637094 300.261365586 226 392.646 c 0
 228.118 398.588 227.84575 401.47 227.118 415 c 1
 273.029 415 l 1
 274.1615 395 273.848596441 398.340147349 275.294 393.646 c 0
 318.13759091 270.381 349.848681818 166.735 413.882 37 c 0
 419.591290689 25.2840826981 441.339857143 21 452.323 21 c 1
 452.323 19 456.911 5 460.499 -3 c 1
 431.050780918 -0.380859375 390.397305 1.0947265625 349.039382812 1.0947265625 c 3
 299.946579416 1.0947265625 249.772662549 -2.06237347501 219.298 -9.294 c 1
EndSplineSet
EndChar

StartChar: uniE004
Encoding: 57348 57348 644
Width: 444
VWidth: 1159
Flags: W
HStem: -3 43.058<223.464 247.44> -2 24<63 74.3636> 205 2.147<205.381 214.334> 359.354 47.646<214.853 230.553>
VStem: 93.648 111.733<54.0455 207.147 229.588 359.047> 244.472 119.292<257.763 353.27> 250.062 139.938<46.2948 171.892>
LayerCount: 2
Fore
SplineSet
61 22 m 1x7a
 73.4381415141 21.5054242425 76.178 34.176 85.06 81.381 c 0
 85.5848174454 85.8398481304 93.648 131.944530973 93.648 168 c 3
 93.648 206.603916465 86.939036829 288.641254506 85.207 303.178 c 0
 80.6650348735 339.272281993 76.6578793679 370.636751917 66.472 375.853 c 0
 65.3575634946 376.638522914 60.9517647059 378.9354 60 379.706 c 1
 64 407 l 1
 72 407 104 401 136 401 c 3
 170.1292 401 216.77244 407 249.764 407 c 3
 328.764 407 363.764 342 363.764 305 c 3x7c
 363.764 264.447228915 312.617942857 227.949734939 289.176 220.853 c 1
 344.17090909 208.650977574 390 165.943415756 390 109 c 1
 390 41.5927734375 330 -3 239 -3 c 3xba
 209 -3 171 1 138 1 c 3
 103 1 69 -2 63 -2 c 1
 61 22 l 1x7a
216.824 232.882 m 0
 238.8095 242.520613446 244.472 243.043581633 244.472 278.53 c 3
 244.472 301.879155556 227.888641304 359.354 214.853 359.354 c 3
 215.147 359.354 208.882 359.501 209.176 359.501 c 0
 207.909140721 356.27926451 207.983102396 343.928611755 207.793 334.942 c 0
 205.6605 282.265 205.6605 231.260285714 205.234 229.588 c 1
 215.564217394 233.029 207.090276569 228.833942953 216.824 232.882 c 0
215 205 m 3
 200.504778787 205 204.058 207.147 205.381 207.147 c 1
 205.381 170.144300605 213.406856884 135.033895039 214.263 111.998 c 0
 216.327629217 62.8666279905 230.205752764 43.7244157452 241.439 40.029 c 0
 244.439 39.176 242.462157894 40.058 242.735 40.058 c 3
 247.521973334 40.058 250.062 62.9405171331 250.062 97.265 c 3xba
 250.062 151.677116268 240.302474227 205 215 205 c 3
EndSplineSet
EndChar

StartChar: uniE005
Encoding: 57349 57349 645
Width: 500
VWidth: 1159
Flags: W
HStem: -6 54.234<229.86 387.314> 301 103.294<359.49 417.388> 383.559 30.441<246.812 314.157>
VStem: 56 157.114<134.045 291.622> 422 21<97.5031 107>
LayerCount: 2
Fore
SplineSet
56 200 m 3xb8
 56 304.921875 136 414 307 414 c 3xb8
 333 414 342.754809878 415.569184063 387 405 c 0
 412.836654795 398.819115068 425.877117647 407.735 434.559 404.294 c 1
 457 391 l 1
 430 357 418.42818848 337.973240816 417 319 c 0
 415.569875 300 409.849375 301 382.677 301 c 1xd8
 373.795 307.824 361.27433576 320.046428558 341.031 341.795 c 0
 318.200309368 367.015771473 302.11735 383.559 274.795 383.559 c 3
 240.25364 383.559 213.114 327.740375773 213.114 230.058 c 3
 213.114 117.726942408 289.423987951 48.234 340.704 48.234 c 3
 344.05322711 48.234 383.25894 48.7084337349 422 111 c 1
 443 105 l 1
 438 73 435 60 429 27 c 1
 392 9 339 -6 286 -6 c 3
 174 -6 56 73 56 200 c 3xb8
EndSplineSet
EndChar

StartChar: uniE006
Encoding: 57350 57350 646
Width: 560
VWidth: 1159
Flags: W
HStem: -5 49.646<190.839 316.384> 375.706 28.294<60 86.0545 247.359 262.352>
VStem: 106.984 122.406<78.2874 366.398> 353.327 150.673<108.628 292.893>
LayerCount: 2
Fore
SplineSet
260.352 44.646 m 3
 322.681608938 44.646 353.327 95.5295844255 353.327 201.853 c 3
 353.327 304.258831653 287.546579894 372.53 262.352 372.53 c 3
 264.116 372.53 262.509631033 375.572801244 253.35 368.412 c 0
 240.601257844 359.216708509 238.48218615 346.131675355 238.35 346.412 c 0
 235.198638408 325.618151912 229.390050795 222.776792305 229.390050795 163.376348904 c 3
 229.390050795 136.283098481 233.161269319 85.2632575568 234.056 77.911 c 0
 234.575222503 73.669552461 239.90122692 64.983342088 251.056 50.911 c 0
 253.481043478 46.9756 256.48485319 44.646 260.352 44.646 c 3
60 404 m 1
 85 403 111 401 136 401 c 3
 186 401 213 409 263 409 c 3
 426 409 504 303.909179688 504 205 c 3
 504 42.3525390625 365 -5 249 -5 c 3
 207 -5 183 -1 140 -1 c 3
 96 -1 81 -4 62 -7 c 1
 61 18 l 1
 86.8320952381 15.2845555556 88.9891013729 19.558137037 98.412 72.352 c 0
 104.396777361 104.622505988 106.984157786 143.375238181 106.984157786 181.330678414 c 3
 106.984157786 248.584835938 100.197964095 314.902558507 90.824 347 c 0
 82.5468715799 375.257278549 89.2828 373.854 60 375.706 c 1
 60 404 l 1
EndSplineSet
EndChar

